<svg width="190" height="32" viewBox="0 0 190 32" fill="none" xmlns="http://www.w3.org/2000/svg">
<path d="M20.272 6.10352e-05H5.34511C2.39544 6.10352e-05 0 2.42425 0 5.40932V20.2206C0 22.6163 1.91635 24.5556 4.2836 24.5556H19.2105C22.1601 24.5556 24.5556 22.1314 24.5556 19.1464V4.33507C24.5556 1.93941 22.6392 6.10352e-05 20.272 6.10352e-05ZM23.4847 19.3935C23.4847 21.1142 22.1132 22.5022 20.4129 22.5022H5.12905C3.48513 22.5022 2.16059 21.1618 2.16059 19.4981V4.29705C2.16059 2.57635 3.53209 1.18839 5.23238 1.18839H20.4505C22.132 1.18839 23.4847 2.56685 23.4847 4.25902V19.403V19.3935Z" fill="#2F3886"></path>
<path d="M10.7563 4.63025H6.54279C5.84504 4.63025 5.27814 5.19719 5.27814 5.8949V10.1084C5.27814 10.8061 5.84504 11.3731 6.54279 11.3731H10.7563C11.454 11.3731 12.0209 10.8061 12.0209 10.1084V5.8949C12.0209 5.19719 11.454 4.63025 10.7563 4.63025ZM10.3347 9.26528C10.3347 9.49789 10.1457 9.68685 9.91313 9.68685H7.38595C7.15334 9.68685 6.96439 9.49789 6.96439 9.26528V6.73802C6.96439 6.50546 7.15334 6.3165 7.38595 6.3165H9.91313C10.1457 6.3165 10.3347 6.50546 10.3347 6.73802V9.26528Z" fill="#2F3886"></path>
<path d="M10.7563 12.5221H6.54279C5.84504 12.5221 5.27814 13.0891 5.27814 13.7868V18.0003C5.27814 18.698 5.84504 19.265 6.54279 19.265H10.7563C11.454 19.265 12.0209 18.698 12.0209 18.0003V13.7868C12.0209 13.0891 11.454 12.5221 10.7563 12.5221ZM10.3347 17.1572C10.3347 17.3897 10.1457 17.5787 9.91313 17.5787H7.38595C7.15334 17.5787 6.96439 17.3897 6.96439 17.1572V14.6299C6.96439 14.3973 7.15334 14.2083 7.38595 14.2083H9.91313C10.1457 14.2083 10.3347 14.3973 10.3347 14.6299V17.1572Z" fill="#2F3886"></path>
<path d="M18.9277 4.62982H14.7142C14.0165 4.62982 13.4496 5.19676 13.4496 5.89447V10.1079C13.4496 10.8057 14.0165 11.3726 14.7142 11.3726H18.9277C19.6255 11.3726 20.1924 10.8057 20.1924 10.1079V5.89447C20.1924 5.19676 19.6255 4.62982 18.9277 4.62982ZM18.5062 9.26486C18.5062 9.49747 18.3172 9.68642 18.0846 9.68642H15.5574C15.3248 9.68642 15.1358 9.49747 15.1358 9.26486V6.7376C15.1358 6.50503 15.3248 6.31608 15.5574 6.31608H18.0846C18.3172 6.31608 18.5062 6.50503 18.5062 6.7376V9.26486Z" fill="#2F3886"></path>
<path d="M19.2989 15.0562C19.7351 15.0562 20.088 15.4092 20.088 15.8453C20.088 16.2814 19.7351 16.6344 19.2989 16.6344C18.3167 16.6344 17.5234 17.4297 17.5213 18.412C17.5213 18.8481 17.1684 19.2011 16.7322 19.2011C16.2962 19.2011 15.9431 18.8481 15.9431 18.412C15.9431 16.5576 17.4445 15.0562 19.2989 15.0562ZM19.2989 12.4583C19.7351 12.4583 20.088 12.8113 20.088 13.2474C20.088 13.6835 19.7351 14.0365 19.2989 14.0365C18.0882 14.0365 17.0001 14.5246 16.2048 15.3178C15.4115 16.1132 14.9235 17.2013 14.9235 18.412C14.9235 18.8481 14.5705 19.2011 14.1344 19.2011C13.6983 19.2011 13.3453 18.8481 13.3453 18.412C13.3453 15.1247 16.0095 12.4583 19.2989 12.4583ZM19.2678 17.5626C19.7205 17.5626 20.088 17.9302 20.088 18.3829C20.088 18.8356 19.7205 19.2032 19.2678 19.2032C18.8151 19.2032 18.4475 18.8356 18.4475 18.3829C18.4475 17.9302 18.8151 17.5626 19.2678 17.5626Z" fill="#FFB855"></path>
<path d="M182.548 5.59125C184.142 5.59125 185.502 5.93118 186.627 6.61103C187.776 7.26744 188.584 8.26378 189.053 9.60005C189.546 10.9129 189.593 12.5656 189.194 14.5583L187.084 25.1781H179.137L181.071 15.5077C181.282 14.4528 181.235 13.6557 180.93 13.1165C180.625 12.5539 180.051 12.2726 179.207 12.2726C178.316 12.2726 177.566 12.5773 176.957 13.1869C176.347 13.7729 175.913 14.6872 175.655 15.9297L173.792 25.1781H165.844L169.677 5.9429H177.168L176.077 11.3231L175.163 9.8462C176.077 8.36927 177.203 7.29089 178.539 6.61103C179.899 5.93118 181.235 5.59125 182.548 5.59125Z" fill="#2F3886"></path>
<path d="M150.015 25.5297C148.749 25.5297 147.506 25.1898 146.287 24.51C145.068 23.8067 144.06 22.7986 143.263 21.4858C142.49 20.1495 142.103 18.5319 142.103 16.633C142.103 15.0389 142.372 13.5737 142.912 12.2374C143.451 10.9011 144.189 9.74071 145.127 8.75609C146.088 7.74803 147.178 6.9744 148.397 6.4352C149.64 5.87257 150.953 5.59125 152.336 5.59125C153.836 5.59125 155.137 5.89601 156.239 6.50554C157.341 7.11506 158.126 8.14656 158.595 9.60005C159.087 11.0301 159.134 13.011 158.736 15.5429C158.408 17.6059 157.845 19.3876 157.048 20.888C156.274 22.3883 155.301 23.5371 154.129 24.3341C152.957 25.1312 151.586 25.5297 150.015 25.5297ZM153.004 19.2704C153.707 19.2704 154.317 19.0946 154.832 18.7429C155.348 18.3678 155.747 17.8521 156.028 17.1957C156.333 16.5393 156.485 15.7656 156.485 14.8748C156.485 13.9839 156.227 13.2572 155.712 12.6946C155.219 12.1319 154.528 11.8506 153.637 11.8506C152.957 11.8506 152.347 12.0381 151.808 12.4132C151.292 12.7649 150.882 13.2689 150.577 13.9253C150.296 14.5817 150.155 15.3554 150.155 16.2462C150.155 17.1371 150.402 17.8638 150.894 18.4264C151.41 18.9891 152.113 19.2704 153.004 19.2704ZM154.868 25.1781L155.395 22.5759L156.696 15.5429L157.716 8.58026L158.243 5.9429H166.191L162.358 25.1781H154.868Z" fill="#2F3886"></path>
<path d="M130.91 25.5297C128.8 25.5297 126.96 25.1664 125.389 24.4396C123.819 23.6894 122.6 22.6462 121.732 21.31C120.865 19.9737 120.431 18.4147 120.431 16.633C120.431 14.5231 120.947 12.6359 121.978 10.9715C123.01 9.30701 124.44 7.99418 126.269 7.03301C128.097 6.07183 130.195 5.59125 132.563 5.59125C134.861 5.59125 136.853 6.09528 138.541 7.10334C140.229 8.1114 141.413 9.48283 142.093 11.2176L135.341 14.3121C135.013 13.4213 134.568 12.7883 134.005 12.4132C133.466 12.0381 132.856 11.8506 132.176 11.8506C131.473 11.8506 130.84 12.0381 130.277 12.4132C129.715 12.7649 129.269 13.2572 128.941 13.8902C128.636 14.5231 128.484 15.2733 128.484 16.1407C128.484 17.055 128.742 17.8052 129.258 18.3913C129.773 18.9774 130.524 19.2704 131.508 19.2704C132.282 19.2704 132.962 19.0828 133.548 18.7078C134.134 18.3327 134.65 17.6997 135.095 16.8088L140.897 20.1847C139.959 21.8726 138.623 23.1854 136.888 24.1231C135.177 25.0609 133.184 25.5297 130.91 25.5297Z" fill="#2F3886"></path>
<path d="M106.497 25.7407C105.044 25.7407 103.649 25.6352 102.313 25.4243C100.976 25.2133 99.7572 24.9202 98.6554 24.5451C97.577 24.1466 96.6392 23.7129 95.8422 23.244L99.0422 17.1253C99.9565 17.6411 100.871 18.0748 101.785 18.4264C102.723 18.7546 103.649 19.0008 104.563 19.1649C105.501 19.329 106.427 19.4111 107.341 19.4111C108.068 19.4111 108.666 19.3524 109.134 19.2352C109.627 19.118 109.99 18.9539 110.225 18.7429C110.482 18.5085 110.611 18.2506 110.611 17.9693C110.611 17.5942 110.4 17.2894 109.978 17.055C109.556 16.8206 108.994 16.6096 108.291 16.422C107.611 16.2345 106.849 16.0469 106.005 15.8594C105.184 15.6484 104.352 15.3905 103.508 15.0858C102.664 14.7576 101.891 14.3473 101.187 13.855C100.507 13.3627 99.9565 12.7414 99.5345 11.9913C99.1125 11.2411 98.9015 10.3268 98.9015 9.2484C98.9015 7.37294 99.3938 5.74363 100.378 4.36048C101.386 2.97733 102.817 1.91066 104.669 1.16047C106.544 0.386844 108.771 3.05176e-05 111.35 3.05176e-05C113.178 3.05176e-05 114.878 0.187576 116.449 0.562668C118.043 0.914317 119.414 1.43007 120.563 2.10992L117.574 8.15829C116.589 7.54876 115.511 7.09162 114.339 6.78686C113.19 6.48209 112.018 6.32971 110.822 6.32971C110.025 6.32971 109.357 6.41176 108.818 6.57587C108.279 6.71653 107.869 6.91579 107.587 7.17367C107.329 7.43154 107.2 7.70114 107.2 7.98246C107.2 8.35755 107.411 8.67404 107.833 8.93191C108.255 9.16635 108.818 9.37734 109.521 9.56488C110.225 9.72899 110.987 9.91653 111.807 10.1275C112.651 10.3151 113.483 10.5612 114.304 10.866C115.148 11.1473 115.921 11.5341 116.625 12.0264C117.328 12.4953 117.891 13.1048 118.313 13.855C118.735 14.5817 118.945 15.4843 118.945 16.5627C118.945 18.3913 118.441 19.9971 117.433 21.3803C116.425 22.74 114.984 23.8067 113.108 24.5803C111.256 25.3539 109.052 25.7407 106.497 25.7407Z" fill="#2F3886"></path>
<path d="M86.6238 25.5297C84.9593 25.5297 83.5762 25.1781 82.4744 24.4748C81.396 23.7481 80.5989 22.6579 80.0831 21.2045C79.5674 19.7275 79.3095 17.8521 79.3095 15.5781C79.3095 13.2572 79.544 11.37 80.0128 9.91653C80.5051 8.43961 81.2905 7.34949 82.3689 6.6462C83.4473 5.9429 84.8656 5.59125 86.6238 5.59125C88.3117 5.59125 89.859 6.0015 91.2656 6.82202C92.6722 7.61909 93.7975 8.76781 94.6414 10.2682C95.4854 11.7451 95.9074 13.5151 95.9074 15.5781C95.9074 17.6411 95.4854 19.4228 94.6414 20.9231C93.7975 22.4001 92.6722 23.5371 91.2656 24.3341C89.859 25.1312 88.3117 25.5297 86.6238 25.5297ZM73.7886 32.0001V5.9429H81.3491V8.5451L81.3842 15.5781L81.7359 22.6111V32.0001H73.7886ZM84.7249 19.3407C85.311 19.3407 85.8385 19.2001 86.3073 18.9187C86.7762 18.6374 87.1513 18.2154 87.4326 17.6528C87.7139 17.0902 87.8546 16.3986 87.8546 15.5781C87.8546 14.7341 87.7139 14.0308 87.4326 13.4682C87.1513 12.9055 86.7762 12.4836 86.3073 12.2022C85.8385 11.9209 85.311 11.7803 84.7249 11.7803C84.1388 11.7803 83.6114 11.9209 83.1425 12.2022C82.6736 12.4836 82.2985 12.9055 82.0172 13.4682C81.7359 14.0308 81.5952 14.7341 81.5952 15.5781C81.5952 16.3986 81.7359 17.0902 82.0172 17.6528C82.2985 18.2154 82.6736 18.6374 83.1425 18.9187C83.6114 19.2001 84.1388 19.3407 84.7249 19.3407Z" fill="#2F3886"></path>
<path d="M62.9687 25.1781V21.7671L62.406 20.8528V14.3825C62.406 13.4447 62.113 12.7297 61.5269 12.2374C60.9643 11.7451 60.0383 11.4989 58.7489 11.4989C57.8815 11.4989 57.0024 11.6396 56.1115 11.9209C55.2207 12.1788 54.4588 12.5422 53.8258 13.011L51.2939 7.77147C52.4192 7.06817 53.7672 6.52898 55.3379 6.15389C56.9086 5.77879 58.4441 5.59125 59.9445 5.59125C63.25 5.59125 65.8053 6.32971 67.6104 7.80664C69.439 9.28356 70.3533 11.6279 70.3533 14.8396V25.1781H62.9687ZM57.5181 25.5297C55.9474 25.5297 54.6346 25.2601 53.5796 24.721C52.5247 24.1818 51.7276 23.4667 51.1884 22.5759C50.6492 21.6616 50.3796 20.6535 50.3796 19.5517C50.3796 18.3092 50.6961 17.2543 51.3291 16.3869C51.9621 15.5195 52.9232 14.8631 54.2126 14.4176C55.5254 13.9722 57.1782 13.7495 59.1709 13.7495H63.1797V17.5825H60.4368C59.5928 17.5825 58.9716 17.7231 58.5731 18.0045C58.198 18.2623 58.0104 18.6609 58.0104 19.2001C58.0104 19.6455 58.1745 20.0206 58.5027 20.3253C58.8544 20.6067 59.3232 20.7473 59.9093 20.7473C60.4485 20.7473 60.9408 20.6067 61.3863 20.3253C61.8551 20.0206 62.195 19.5517 62.406 18.9187L63.4258 21.2748C63.1211 22.7048 62.4764 23.7715 61.4917 24.4748C60.5071 25.1781 59.1826 25.5297 57.5181 25.5297Z" fill="#2F3886"></path>
<path d="M34.806 25.1786V6.99832H27.5972V0.563141H50.3138V6.99832H43.1049V25.1786H34.806Z" fill="#2F3886"></path>
</svg>