<svg width="453" height="104" viewBox="0 0 453 104" fill="none" xmlns="http://www.w3.org/2000/svg">
<rect width="452.1" height="104" rx="52" fill="white"></rect>
<path d="M94.2311 23.9999H60.1897C53.4629 23.9999 48 29.5284 48 36.336V70.1137C48 75.5771 52.3703 79.9999 57.7689 79.9999H91.8103C98.5371 79.9999 104 74.4714 104 67.6639V33.8861C104 28.4227 99.6297 23.9999 94.2311 23.9999ZM101.558 68.2275C101.558 72.1517 98.43 75.317 94.5524 75.317H59.697C55.948 75.317 52.9273 72.2601 52.9273 68.466V33.7994C52.9273 29.8752 56.0551 26.7099 59.9327 26.7099H94.6381C98.4728 26.7099 101.558 29.8536 101.558 33.7126V68.2492V68.2275Z" fill="#2F3886"></path>
<path d="M72.5317 34.5599H62.9227C61.3314 34.5599 60.0386 35.8528 60.0386 37.444V47.053C60.0386 48.6442 61.3314 49.9371 62.9227 49.9371H72.5317C74.1229 49.9371 75.4158 48.6442 75.4158 47.053V37.444C75.4158 35.8528 74.1229 34.5599 72.5317 34.5599ZM71.5704 45.1303C71.5704 45.6607 71.1393 46.0917 70.6089 46.0917H64.8455C64.3151 46.0917 63.8841 45.6607 63.8841 45.1303V39.3667C63.8841 38.8364 64.3151 38.4054 64.8455 38.4054H70.6089C71.1393 38.4054 71.5704 38.8364 71.5704 39.3667V45.1303Z" fill="#2F3886"></path>
<path d="M72.5317 52.5586H62.9227C61.3314 52.5586 60.0386 53.8516 60.0386 55.4427V65.0518C60.0386 66.643 61.3314 67.936 62.9227 67.936H72.5317C74.1229 67.936 75.4158 66.643 75.4158 65.0518V55.4427C75.4158 53.8516 74.1229 52.5586 72.5317 52.5586ZM71.5704 63.129C71.5704 63.6594 71.1393 64.0904 70.6089 64.0904H64.8455C64.3151 64.0904 63.8841 63.6594 63.8841 63.129V57.3655C63.8841 56.8351 64.3151 56.4041 64.8455 56.4041H70.6089C71.1393 56.4041 71.5704 56.8351 71.5704 57.3655V63.129Z" fill="#2F3886"></path>
<path d="M91.1689 34.5594H81.5599C79.9686 34.5594 78.6758 35.8523 78.6758 37.4435V47.0525C78.6758 48.6437 79.9686 49.9366 81.5599 49.9366H91.1689C92.7601 49.9366 94.0529 48.6437 94.0529 47.0525V37.4435C94.0529 35.8523 92.7601 34.5594 91.1689 34.5594ZM90.2076 45.1298C90.2076 45.6603 89.7766 46.0912 89.2462 46.0912H83.4826C82.9523 46.0912 82.5213 45.6603 82.5213 45.1298V39.3663C82.5213 38.8359 82.9523 38.405 83.4826 38.405H89.2462C89.7766 38.405 90.2076 38.8359 90.2076 39.3663V45.1298Z" fill="#2F3886"></path>
<path d="M92.0141 58.3364C93.0087 58.3364 93.8137 59.1415 93.8137 60.136C93.8137 61.1306 93.0087 61.9357 92.0141 61.9357C89.7741 61.9357 87.9649 63.7494 87.9602 65.9896C87.9602 66.984 87.1552 67.7891 86.1606 67.7891C85.1662 67.7891 84.361 66.984 84.361 65.9896C84.361 61.7605 87.7851 58.3364 92.0141 58.3364ZM92.0141 52.412C93.0087 52.412 93.8137 53.217 93.8137 54.2115C93.8137 55.2061 93.0087 56.0111 92.0141 56.0111C89.253 56.0111 86.7716 57.1241 84.9577 58.9331C83.1486 60.747 82.0357 63.2286 82.0357 65.9896C82.0357 66.984 81.2307 67.7891 80.2362 67.7891C79.2417 67.7891 78.4365 66.984 78.4365 65.9896C78.4365 58.4927 84.5125 52.412 92.0141 52.412ZM91.9431 64.0526C92.9755 64.0526 93.8137 64.8908 93.8137 65.9232C93.8137 66.9556 92.9755 67.794 91.9431 67.794C90.9106 67.794 90.0724 66.9556 90.0724 65.9232C90.0724 64.8908 90.9106 64.0526 91.9431 64.0526Z" fill="#6976E7"></path>
<path d="M118.093 43.4499V31.0999H113.196V26.7284H128.627V31.0999H123.73V43.4499H118.093ZM135.17 30.1444C139.661 30.1444 142.241 32.0793 142.241 36.4269V43.4499H137.225V41.73C136.604 43.0438 135.361 43.6888 133.522 43.6888C130.321 43.6888 128.673 41.8733 128.673 39.6279C128.673 37.0957 130.584 35.6864 134.645 35.6864H136.819C136.651 34.6831 135.887 34.1575 134.358 34.1575C133.188 34.1575 131.874 34.5397 131.014 35.1847L129.294 31.6254C130.823 30.6699 133.14 30.1444 135.17 30.1444ZM135.146 40.44C135.887 40.44 136.556 40.0578 136.842 39.1979V38.2901H135.505C134.358 38.2901 133.856 38.6723 133.856 39.389C133.856 39.9862 134.334 40.44 135.146 40.44ZM153.293 30.1444C156.709 30.1444 159.6 32.7243 159.6 36.9285C159.6 41.1328 156.709 43.6888 153.293 43.6888C151.86 43.6888 150.761 43.3305 149.973 42.5661V48.0842H144.574V30.3833H149.71V31.4582C150.498 30.5744 151.669 30.1444 153.293 30.1444ZM152.003 39.4845C153.198 39.4845 154.129 38.6246 154.129 36.9285C154.129 35.2325 153.198 34.3486 152.003 34.3486C150.809 34.3486 149.877 35.2325 149.877 36.9285C149.877 38.6246 150.809 39.4845 152.003 39.4845ZM166.795 43.8321C165.807 43.8321 164.86 43.7605 163.952 43.6171C163.044 43.4738 162.216 43.2747 161.468 43.0199C160.735 42.7492 160.098 42.4546 159.557 42.1361L161.73 37.9796C162.351 38.33 162.973 38.6246 163.594 38.8634C164.231 39.0864 164.86 39.2536 165.481 39.3651C166.118 39.4766 166.747 39.5323 167.368 39.5323C167.862 39.5323 168.268 39.4925 168.586 39.4129C168.921 39.3332 169.167 39.2218 169.327 39.0784C169.502 38.9192 169.59 38.744 169.59 38.5529C169.59 38.2981 169.446 38.0911 169.16 37.9318C168.873 37.7726 168.491 37.6292 168.013 37.5018C167.551 37.3744 167.034 37.247 166.46 37.1196C165.903 36.9763 165.337 36.8011 164.764 36.5941C164.191 36.3711 163.665 36.0925 163.188 35.758C162.726 35.4236 162.351 35.0016 162.065 34.492C161.778 33.9824 161.635 33.3613 161.635 32.6287C161.635 31.3547 161.969 30.2479 162.638 29.3083C163.323 28.3687 164.294 27.6441 165.552 27.1345C166.826 26.609 168.339 26.3462 170.091 26.3462C171.333 26.3462 172.488 26.4736 173.555 26.7284C174.638 26.9673 175.569 27.3176 176.35 27.7795L174.319 31.8882C173.65 31.4741 172.918 31.1636 172.122 30.9566C171.341 30.7495 170.545 30.646 169.733 30.646C169.191 30.646 168.738 30.7018 168.371 30.8132C168.005 30.9088 167.726 31.0442 167.535 31.2193C167.36 31.3945 167.272 31.5776 167.272 31.7688C167.272 32.0236 167.416 32.2385 167.702 32.4137C167.989 32.573 168.371 32.7163 168.849 32.8437C169.327 32.9552 169.844 33.0826 170.402 33.2259C170.975 33.3533 171.54 33.5205 172.098 33.7276C172.671 33.9187 173.197 34.1814 173.674 34.5159C174.152 34.8344 174.534 35.2484 174.821 35.758C175.108 36.2517 175.251 36.8648 175.251 37.5974C175.251 38.8396 174.909 39.9304 174.224 40.87C173.539 41.7937 172.56 42.5183 171.286 43.0438C170.027 43.5694 168.53 43.8321 166.795 43.8321ZM183.378 43.6888C181.945 43.6888 180.695 43.442 179.628 42.9483C178.561 42.4387 177.733 41.73 177.143 40.8223C176.554 39.9145 176.26 38.8555 176.26 37.6452C176.26 36.2119 176.61 34.9299 177.311 33.7992C178.011 32.6685 178.983 31.7767 180.225 31.1238C181.467 30.4708 182.892 30.1444 184.501 30.1444C186.062 30.1444 187.415 30.4868 188.562 31.1716C189.709 31.8563 190.513 32.788 190.975 33.9664L186.388 36.0686C186.165 35.4634 185.863 35.0334 185.48 34.7786C185.114 34.5238 184.7 34.3964 184.238 34.3964C183.76 34.3964 183.33 34.5238 182.948 34.7786C182.566 35.0175 182.263 35.3519 182.04 35.7819C181.833 36.2119 181.73 36.7215 181.73 37.3107C181.73 37.9318 181.905 38.4414 182.255 38.8396C182.606 39.2377 183.115 39.4368 183.784 39.4368C184.31 39.4368 184.772 39.3094 185.17 39.0546C185.568 38.7997 185.918 38.3698 186.221 37.7646L190.162 40.0578C189.525 41.2045 188.618 42.0963 187.439 42.7333C186.277 43.3703 184.923 43.6888 183.378 43.6888ZM196.355 43.6888C195.495 43.6888 194.651 43.4579 193.823 42.9961C192.995 42.5183 192.31 41.8335 191.768 40.9417C191.243 40.034 190.98 38.9351 190.98 37.6452C190.98 36.5623 191.163 35.5669 191.53 34.6592C191.896 33.7514 192.398 32.9631 193.035 32.2943C193.687 31.6095 194.428 31.084 195.256 30.7177C196.1 30.3355 196.992 30.1444 197.932 30.1444C198.951 30.1444 199.835 30.3514 200.583 30.7655C201.332 31.1795 201.865 31.8802 202.184 32.8676C202.518 33.839 202.55 35.1847 202.279 36.9046C202.056 38.3061 201.674 39.5164 201.133 40.5356C200.607 41.5548 199.946 42.3352 199.15 42.8766C198.354 43.4181 197.422 43.6888 196.355 43.6888ZM198.385 39.4368C198.863 39.4368 199.277 39.3173 199.628 39.0784C199.978 38.8236 200.249 38.4733 200.44 38.0274C200.647 37.5815 200.75 37.0559 200.75 36.4508C200.75 35.8456 200.575 35.3519 200.225 34.9697C199.89 34.5875 199.421 34.3964 198.815 34.3964C198.354 34.3964 197.939 34.5238 197.573 34.7786C197.223 35.0175 196.944 35.3599 196.737 35.8058C196.546 36.2517 196.45 36.7772 196.45 37.3824C196.45 37.9876 196.618 38.4812 196.952 38.8634C197.302 39.2457 197.78 39.4368 198.385 39.4368ZM199.651 43.4499L200.01 41.6822L200.894 36.9046L201.586 32.1748L201.945 30.3833H207.343L204.74 43.4499H199.651ZM218.456 30.1444C219.539 30.1444 220.462 30.3753 221.227 30.8371C222.007 31.283 222.557 31.9599 222.875 32.8676C223.21 33.7594 223.241 34.8821 222.971 36.2358L221.537 43.4499H216.139L217.453 36.8808C217.596 36.1641 217.564 35.6227 217.357 35.2564C217.15 34.8742 216.76 34.6831 216.187 34.6831C215.581 34.6831 215.072 34.8901 214.658 35.3042C214.244 35.7023 213.949 36.3234 213.774 37.1674L212.508 43.4499H207.109L209.713 30.3833H214.801L214.061 34.0381L213.439 33.0348C214.061 32.0315 214.825 31.299 215.733 30.8371C216.656 30.3753 217.564 30.1444 218.456 30.1444Z" fill="#2F3886"></path>
<path d="M134.249 77.55L132.538 73.1092H122.855L121.145 77.55H112.408L123.547 52.0696H131.992L143.131 77.55H134.249ZM125.221 66.9211H130.172L127.697 60.5146L125.221 66.9211ZM154.771 77.9141C147.891 77.9141 143.013 73.6552 143.013 67.5763C143.013 61.5338 147.891 57.2749 154.771 57.2749C159.612 57.2749 163.252 59.4954 164.563 63.1718L158.192 66.3023C157.355 64.4458 156.154 63.6814 154.734 63.6814C152.878 63.6814 151.349 64.9918 151.349 67.5763C151.349 70.1971 152.878 71.5076 154.734 71.5076C156.154 71.5076 157.355 70.7431 158.192 68.8867L164.563 72.0172C163.252 75.6936 159.612 77.9141 154.771 77.9141ZM176.988 77.9141C170.108 77.9141 165.231 73.6552 165.231 67.5763C165.231 61.5338 170.108 57.2749 176.988 57.2749C181.829 57.2749 185.469 59.4954 186.78 63.1718L180.41 66.3023C179.572 64.4458 178.371 63.6814 176.952 63.6814C175.095 63.6814 173.566 64.9918 173.566 67.5763C173.566 70.1971 175.095 71.5076 176.952 71.5076C178.371 71.5076 179.572 70.7431 180.41 68.8867L186.78 72.0172C185.469 75.6936 181.829 77.9141 176.988 77.9141ZM199.023 77.9141C192.289 77.9141 187.448 73.6188 187.448 67.5763C187.448 61.5338 192.289 57.2749 199.023 57.2749C205.794 57.2749 210.598 61.5338 210.598 67.5763C210.598 73.6188 205.794 77.9141 199.023 77.9141ZM199.023 71.5076C200.843 71.5076 202.263 70.1607 202.263 67.5763C202.263 64.9918 200.843 63.6814 199.023 63.6814C197.203 63.6814 195.783 64.9918 195.783 67.5763C195.783 70.1607 197.203 71.5076 199.023 71.5076ZM226.714 57.6389H234.941V77.55H227.115V75.6572C225.622 77.186 223.62 77.9141 221.473 77.9141C216.704 77.9141 213.1 75.1112 213.1 68.6319V57.6389H221.327V67.2123C221.327 70.0515 222.31 70.9979 223.911 70.9979C225.331 70.9979 226.714 69.9423 226.714 66.9939V57.6389ZM252.422 57.2749C257.008 57.2749 260.576 59.9322 260.576 66.1931V77.55H252.349V67.6127C252.349 65.1375 251.403 64.191 249.91 64.191C248.236 64.191 246.816 65.2467 246.816 68.1951V77.55H238.59V57.6389H246.416V59.6046C247.981 58.0393 250.092 57.2749 252.422 57.2749ZM276.852 71.1435L278.818 76.8584C277.544 77.5864 275.687 77.9141 273.758 77.9141C268.262 77.9141 265.058 75.3296 265.058 69.8331V64.737H262.328V58.731H265.058V53.1617H273.285V58.731H277.362V64.737H273.285V69.7603C273.285 70.9979 274.013 71.6896 274.996 71.6896C275.651 71.6896 276.306 71.5076 276.852 71.1435ZM289.809 57.2749C296.653 57.2749 300.584 60.2234 300.584 66.8483V77.55H292.94V74.9292C291.993 76.9312 290.1 77.9141 287.298 77.9141C282.42 77.9141 279.908 75.1476 279.908 71.726C279.908 67.8675 282.82 65.7199 289.008 65.7199H292.321C292.066 64.191 290.901 63.3902 288.572 63.3902C286.788 63.3902 284.786 63.9726 283.476 64.9554L280.855 59.5318C283.184 58.0757 286.715 57.2749 289.809 57.2749ZM289.773 72.9636C290.901 72.9636 291.92 72.3812 292.357 71.0707V69.6875H290.319C288.572 69.6875 287.807 70.2699 287.807 71.362C287.807 72.272 288.535 72.9636 289.773 72.9636ZM317.425 57.2749C322.631 57.2749 327.035 61.1698 327.035 67.5763C327.035 73.9828 322.631 77.9141 317.425 77.9141C314.95 77.9141 313.166 77.2588 311.965 75.912V77.55H304.139V50.5408H312.366V58.9858C313.567 57.8209 315.241 57.2749 317.425 57.2749ZM315.46 71.5076C317.28 71.5076 318.699 70.1607 318.699 67.5763C318.699 64.9918 317.28 63.6814 315.46 63.6814C313.64 63.6814 312.22 64.9918 312.22 67.5763C312.22 70.1607 313.64 71.5076 315.46 71.5076ZM333.74 56.0373C330.719 56.0373 328.789 54.2173 328.789 51.8512C328.789 49.4852 330.719 47.6652 333.74 47.6652C336.761 47.6652 338.69 49.3396 338.69 51.7056C338.69 54.2173 336.761 56.0373 333.74 56.0373ZM329.627 77.55V57.6389H337.853V77.55H329.627ZM341.499 77.55V50.5408H349.726V77.55H341.499ZM357.486 56.0373C354.464 56.0373 352.535 54.2173 352.535 51.8512C352.535 49.4852 354.464 47.6652 357.486 47.6652C360.507 47.6652 362.436 49.3396 362.436 51.7056C362.436 54.2173 360.507 56.0373 357.486 56.0373ZM353.372 77.55V57.6389H361.599V77.55H353.372ZM377.949 71.1435L379.915 76.8584C378.641 77.5864 376.784 77.9141 374.855 77.9141C369.358 77.9141 366.155 75.3296 366.155 69.8331V64.737H363.425V58.731H366.155V53.1617H374.382V58.731H378.459V64.737H374.382V69.7603C374.382 70.9979 375.11 71.6896 376.093 71.6896C376.748 71.6896 377.403 71.5076 377.949 71.1435ZM396.011 57.6389H403.8L395.61 77.9505C393.426 83.4105 390.223 84.9758 386.001 84.9758C383.817 84.9758 381.305 84.2842 379.958 83.1921L382.688 77.55C383.489 78.1689 384.617 78.6057 385.6 78.6057C386.583 78.6057 387.202 78.3145 387.639 77.8049L379.266 57.6389H387.711L391.825 68.3043L396.011 57.6389Z" fill="#6976E7"></path>
</svg>