<svg width="383" height="104" viewBox="0 0 383 104" fill="none" xmlns="http://www.w3.org/2000/svg">
<rect width="383" height="104" rx="52" fill="white"></rect>
<path d="M94.2311 24H60.1897C53.4629 24 48 29.5285 48 36.336V70.1138C48 75.5772 52.3703 80 57.7689 80H91.8103C98.5371 80 104 74.4715 104 67.664V33.8862C104 28.4228 99.6297 24 94.2311 24ZM101.558 68.2276C101.558 72.1518 98.43 75.3171 94.5524 75.3171H59.697C55.948 75.3171 52.9273 72.2602 52.9273 68.4661V33.7995C52.9273 29.8753 56.0551 26.71 59.9327 26.71H94.6381C98.4728 26.71 101.558 29.8537 101.558 33.7127V68.2493V68.2276Z" fill="#2F3886"></path>
<path d="M72.5356 34.5594H62.9266C61.3353 34.5594 60.0425 35.8524 60.0425 37.4435V47.0525C60.0425 48.6438 61.3353 49.9367 62.9266 49.9367H72.5356C74.1268 49.9367 75.4197 48.6438 75.4197 47.0525V37.4435C75.4197 35.8524 74.1268 34.5594 72.5356 34.5594ZM71.5743 45.1298C71.5743 45.6603 71.1432 46.0912 70.6128 46.0912H64.8494C64.319 46.0912 63.8881 45.6603 63.8881 45.1298V39.3663C63.8881 38.8359 64.319 38.405 64.8494 38.405H70.6128C71.1432 38.405 71.5743 38.8359 71.5743 39.3663V45.1298Z" fill="#2F3886"></path>
<path d="M72.5356 52.5587H62.9266C61.3353 52.5587 60.0425 53.8517 60.0425 55.4429V65.052C60.0425 66.6431 61.3353 67.9362 62.9266 67.9362H72.5356C74.1268 67.9362 75.4197 66.6431 75.4197 65.052V55.4429C75.4197 53.8517 74.1268 52.5587 72.5356 52.5587ZM71.5743 63.1292C71.5743 63.6596 71.1432 64.0906 70.6128 64.0906H64.8494C64.319 64.0906 63.8881 63.6596 63.8881 63.1292V57.3657C63.8881 56.8353 64.319 56.4043 64.8494 56.4043H70.6128C71.1432 56.4043 71.5743 56.8353 71.5743 57.3657V63.1292Z" fill="#2F3886"></path>
<path d="M91.1718 34.5594H81.5628C79.9715 34.5594 78.6787 35.8524 78.6787 37.4435V47.0525C78.6787 48.6438 79.9715 49.9367 81.5628 49.9367H91.1718C92.763 49.9367 94.0559 48.6438 94.0559 47.0525V37.4435C94.0559 35.8524 92.763 34.5594 91.1718 34.5594ZM90.2105 45.1298C90.2105 45.6603 89.7795 46.0912 89.2491 46.0912H83.4856C82.9552 46.0912 82.5242 45.6603 82.5242 45.1298V39.3663C82.5242 38.8359 82.9552 38.405 83.4856 38.405H89.2491C89.7795 38.405 90.2105 38.8359 90.2105 39.3663V45.1298Z" fill="#2F3886"></path>
<path d="M92.0156 58.3366C93.0102 58.3366 93.8151 59.1417 93.8151 60.1362C93.8151 61.1307 93.0102 61.9359 92.0156 61.9359C89.7756 61.9359 87.9664 63.7496 87.9617 65.9898C87.9617 66.9842 87.1567 67.7893 86.1621 67.7893C85.1676 67.7893 84.3625 66.9842 84.3625 65.9898C84.3625 61.7607 87.7865 58.3366 92.0156 58.3366ZM92.0156 52.4121C93.0102 52.4121 93.8151 53.2172 93.8151 54.2117C93.8151 55.2062 93.0102 56.0113 92.0156 56.0113C89.2545 56.0113 86.773 57.1243 84.9592 58.9332C83.15 60.7472 82.0372 63.2287 82.0372 65.9898C82.0372 66.9842 81.2322 67.7893 80.2377 67.7893C79.2432 67.7893 78.438 66.9842 78.438 65.9898C78.438 58.4928 84.514 52.4121 92.0156 52.4121ZM91.9446 64.0528C92.977 64.0528 93.8151 64.8909 93.8151 65.9233C93.8151 66.9557 92.977 67.7941 91.9446 67.7941C90.9121 67.7941 90.0739 66.9557 90.0739 65.9233C90.0739 64.8909 90.9121 64.0528 91.9446 64.0528Z" fill="#FFB855"></path>
<path d="M117.993 43.4499V31.0999H113.096V26.7284H128.527V31.0999H123.63V43.4499H117.993ZM135.07 30.1444C139.561 30.1444 142.141 32.0793 142.141 36.4269V43.4499H137.125V41.73C136.503 43.0438 135.261 43.6888 133.422 43.6888C130.221 43.6888 128.573 41.8733 128.573 39.6279C128.573 37.0957 130.484 35.6864 134.545 35.6864H136.718C136.551 34.6831 135.787 34.1575 134.258 34.1575C133.087 34.1575 131.774 34.5397 130.914 35.1847L129.194 31.6254C130.723 30.6699 133.04 30.1444 135.07 30.1444ZM135.046 40.44C135.787 40.44 136.456 40.0578 136.742 39.1979V38.2901H135.405C134.258 38.2901 133.756 38.6723 133.756 39.389C133.756 39.9862 134.234 40.44 135.046 40.44ZM153.193 30.1444C156.609 30.1444 159.5 32.7243 159.5 36.9285C159.5 41.1328 156.609 43.6888 153.193 43.6888C151.76 43.6888 150.661 43.3305 149.873 42.5661V48.0842H144.474V30.3833H149.61V31.4582C150.398 30.5744 151.569 30.1444 153.193 30.1444ZM151.903 39.4845C153.098 39.4845 154.029 38.6246 154.029 36.9285C154.029 35.2325 153.098 34.3486 151.903 34.3486C150.709 34.3486 149.777 35.2325 149.777 36.9285C149.777 38.6246 150.709 39.4845 151.903 39.4845ZM166.695 43.8321C165.707 43.8321 164.76 43.7605 163.852 43.6171C162.944 43.4738 162.116 43.2747 161.368 43.0199C160.635 42.7492 159.998 42.4546 159.456 42.1361L161.63 37.9796C162.251 38.33 162.872 38.6246 163.494 38.8634C164.131 39.0864 164.76 39.2536 165.381 39.3651C166.018 39.4766 166.647 39.5323 167.268 39.5323C167.762 39.5323 168.168 39.4925 168.486 39.4129C168.821 39.3332 169.067 39.2218 169.227 39.0784C169.402 38.9192 169.489 38.744 169.489 38.5529C169.489 38.2981 169.346 38.0911 169.059 37.9318C168.773 37.7726 168.391 37.6292 167.913 37.5018C167.451 37.3744 166.933 37.247 166.36 37.1196C165.803 36.9763 165.237 36.8011 164.664 36.5941C164.091 36.3711 163.565 36.0925 163.087 35.758C162.626 35.4236 162.251 35.0016 161.965 34.492C161.678 33.9824 161.535 33.3613 161.535 32.6287C161.535 31.3547 161.869 30.2479 162.538 29.3083C163.223 28.3687 164.194 27.6441 165.452 27.1345C166.726 26.609 168.239 26.3462 169.991 26.3462C171.233 26.3462 172.388 26.4736 173.455 26.7284C174.538 26.9673 175.469 27.3176 176.25 27.7795L174.219 31.8882C173.55 31.4741 172.818 31.1636 172.022 30.9566C171.241 30.7495 170.445 30.646 169.633 30.646C169.091 30.646 168.637 30.7018 168.271 30.8132C167.905 30.9088 167.626 31.0442 167.435 31.2193C167.26 31.3945 167.172 31.5776 167.172 31.7688C167.172 32.0236 167.316 32.2385 167.602 32.4137C167.889 32.573 168.271 32.7163 168.749 32.8437C169.227 32.9552 169.744 33.0826 170.302 33.2259C170.875 33.3533 171.44 33.5205 171.998 33.7276C172.571 33.9187 173.096 34.1814 173.574 34.5159C174.052 34.8344 174.434 35.2484 174.721 35.758C175.008 36.2517 175.151 36.8648 175.151 37.5974C175.151 38.8396 174.808 39.9304 174.124 40.87C173.439 41.7937 172.459 42.5183 171.185 43.0438C169.927 43.5694 168.43 43.8321 166.695 43.8321ZM183.278 43.6888C181.845 43.6888 180.595 43.442 179.528 42.9483C178.461 42.4387 177.633 41.73 177.043 40.8223C176.454 39.9145 176.16 38.8555 176.16 37.6452C176.16 36.2119 176.51 34.9299 177.211 33.7992C177.911 32.6685 178.883 31.7767 180.125 31.1238C181.367 30.4708 182.792 30.1444 184.401 30.1444C185.962 30.1444 187.315 30.4868 188.462 31.1716C189.608 31.8563 190.413 32.788 190.874 33.9664L186.288 36.0686C186.065 35.4634 185.762 35.0334 185.38 34.7786C185.014 34.5238 184.6 34.3964 184.138 34.3964C183.66 34.3964 183.23 34.5238 182.848 34.7786C182.466 35.0175 182.163 35.3519 181.94 35.7819C181.733 36.2119 181.63 36.7215 181.63 37.3107C181.63 37.9318 181.805 38.4414 182.155 38.8396C182.506 39.2377 183.015 39.4368 183.684 39.4368C184.21 39.4368 184.672 39.3094 185.07 39.0546C185.468 38.7997 185.818 38.3698 186.121 37.7646L190.062 40.0578C189.425 41.2045 188.518 42.0963 187.339 42.7333C186.177 43.3703 184.823 43.6888 183.278 43.6888ZM196.255 43.6888C195.395 43.6888 194.551 43.4579 193.723 42.9961C192.895 42.5183 192.21 41.8335 191.668 40.9417C191.143 40.034 190.88 38.9351 190.88 37.6452C190.88 36.5623 191.063 35.5669 191.429 34.6592C191.796 33.7514 192.297 32.9631 192.934 32.2943C193.587 31.6095 194.328 31.084 195.156 30.7177C196 30.3355 196.892 30.1444 197.831 30.1444C198.851 30.1444 199.735 30.3514 200.483 30.7655C201.231 31.1795 201.765 31.8802 202.083 32.8676C202.418 33.839 202.45 35.1847 202.179 36.9046C201.956 38.3061 201.574 39.5164 201.032 40.5356C200.507 41.5548 199.846 42.3352 199.05 42.8766C198.253 43.4181 197.322 43.6888 196.255 43.6888ZM198.285 39.4368C198.763 39.4368 199.177 39.3173 199.527 39.0784C199.878 38.8236 200.149 38.4733 200.34 38.0274C200.547 37.5815 200.65 37.0559 200.65 36.4508C200.65 35.8456 200.475 35.3519 200.125 34.9697C199.79 34.5875 199.32 34.3964 198.715 34.3964C198.253 34.3964 197.839 34.5238 197.473 34.7786C197.123 35.0175 196.844 35.3599 196.637 35.8058C196.446 36.2517 196.35 36.7772 196.35 37.3824C196.35 37.9876 196.518 38.4812 196.852 38.8634C197.202 39.2457 197.68 39.4368 198.285 39.4368ZM199.551 43.4499L199.91 41.6822L200.794 36.9046L201.486 32.1748L201.845 30.3833H207.243L204.639 43.4499H199.551ZM218.356 30.1444C219.439 30.1444 220.362 30.3753 221.127 30.8371C221.907 31.283 222.457 31.9599 222.775 32.8676C223.109 33.7594 223.141 34.8821 222.871 36.2358L221.437 43.4499H216.039L217.352 36.8808C217.496 36.1641 217.464 35.6227 217.257 35.2564C217.05 34.8742 216.66 34.6831 216.086 34.6831C215.481 34.6831 214.972 34.8901 214.558 35.3042C214.144 35.7023 213.849 36.3234 213.674 37.1674L212.408 43.4499H207.009L209.613 30.3833H214.701L213.96 34.0381L213.339 33.0348C213.96 32.0315 214.725 31.299 215.633 30.8371C216.556 30.3753 217.464 30.1444 218.356 30.1444Z" fill="#2F3886"></path>
<path d="M123.52 71.0707H136.26V77.55H115.075V52.0696H135.787V58.5489H123.52V61.5338H134.294V67.7219H123.52V71.0707ZM161.298 77.55H151.87L149.14 73.2912L146.083 77.55H137.165L144.699 67.6855L137.383 57.6389H146.665L149.504 61.8614L152.489 57.6389H161.116L153.8 67.3215L161.298 77.55ZM176.06 57.2749C181.265 57.2749 185.669 61.2062 185.669 67.6127C185.669 74.0192 181.265 77.9141 176.06 77.9141C173.876 77.9141 172.201 77.368 171 76.2032V84.6118H162.774V57.6389H170.6V59.277C171.801 57.9301 173.584 57.2749 176.06 57.2749ZM174.094 71.5076C175.914 71.5076 177.334 70.1971 177.334 67.6127C177.334 65.0283 175.914 63.6814 174.094 63.6814C172.274 63.6814 170.854 65.0283 170.854 67.6127C170.854 70.1971 172.274 71.5076 174.094 71.5076ZM209.446 67.5763C209.446 68.1587 209.373 68.9231 209.337 69.5055H195.505C196.087 71.0343 197.47 71.8352 199.509 71.8352C201.329 71.8352 202.348 71.362 203.658 70.3791L207.954 74.7108C206.025 76.822 203.222 77.9141 199.254 77.9141C191.937 77.9141 187.205 73.5096 187.205 67.5763C187.205 61.5338 192.047 57.2749 198.49 57.2749C204.386 57.2749 209.446 60.8422 209.446 67.5763ZM198.562 62.8806C196.852 62.8806 195.687 63.8634 195.359 65.5379H201.766C201.438 63.8634 200.237 62.8806 198.562 62.8806ZM219.868 59.7866C221.324 58.1121 223.545 57.2749 226.311 57.2749V64.555C225.583 64.4458 225.074 64.4094 224.491 64.4094C222.016 64.4094 220.269 65.5379 220.269 68.7047V77.55H212.042V57.6389H219.868V59.7866ZM232.756 56.0373C229.735 56.0373 227.806 54.2173 227.806 51.8512C227.806 49.4852 229.735 47.6652 232.756 47.6652C235.777 47.6652 237.707 49.3396 237.707 51.7056C237.707 54.2173 235.777 56.0373 232.756 56.0373ZM228.643 77.55V57.6389H236.869V77.55H228.643ZM261.701 67.5763C261.701 68.1587 261.628 68.9231 261.592 69.5055H247.759C248.342 71.0343 249.725 71.8352 251.764 71.8352C253.584 71.8352 254.603 71.362 255.913 70.3791L260.208 74.7108C258.279 76.822 255.476 77.9141 251.509 77.9141C244.192 77.9141 239.46 73.5096 239.46 67.5763C239.46 61.5338 244.301 57.2749 250.744 57.2749C256.641 57.2749 261.701 60.8422 261.701 67.5763ZM250.817 62.8806C249.106 62.8806 247.941 63.8634 247.614 65.5379H254.02C253.693 63.8634 252.492 62.8806 250.817 62.8806ZM278.129 57.2749C282.716 57.2749 286.283 59.9322 286.283 66.1931V77.55H278.056V67.6127C278.056 65.1375 277.11 64.191 275.618 64.191C273.943 64.191 272.524 65.2467 272.524 68.1951V77.55H264.297V57.6389H272.123V59.6046C273.688 58.0393 275.8 57.2749 278.129 57.2749ZM300.913 77.9141C294.033 77.9141 289.155 73.6552 289.155 67.5763C289.155 61.5338 294.033 57.2749 300.913 57.2749C305.754 57.2749 309.394 59.4954 310.705 63.1718L304.335 66.3023C303.497 64.4458 302.296 63.6814 300.876 63.6814C299.02 63.6814 297.491 64.9918 297.491 67.5763C297.491 70.1971 299.02 71.5076 300.876 71.5076C302.296 71.5076 303.497 70.7431 304.335 68.8867L310.705 72.0172C309.394 75.6936 305.754 77.9141 300.913 77.9141ZM333.613 67.5763C333.613 68.1587 333.541 68.9231 333.504 69.5055H319.672C320.254 71.0343 321.638 71.8352 323.676 71.8352C325.496 71.8352 326.515 71.362 327.826 70.3791L332.121 74.7108C330.192 76.822 327.389 77.9141 323.421 77.9141C316.105 77.9141 311.373 73.5096 311.373 67.5763C311.373 61.5338 316.214 57.2749 322.657 57.2749C328.554 57.2749 333.613 60.8422 333.613 67.5763ZM322.73 62.8806C321.019 62.8806 319.854 63.8634 319.526 65.5379H325.933C325.605 63.8634 324.404 62.8806 322.73 62.8806Z" fill="#FFB855"></path>
</svg>