<svg width="478" height="478" viewBox="0 0 478 478" fill="none" xmlns="http://www.w3.org/2000/svg">
<circle cx="239" cy="239" r="239" fill="white"></circle>
<path d="M314.162 123H173.404C145.589 123 123 145.86 123 174.009V313.677C123 336.268 141.071 354.556 163.394 354.556H304.152C331.967 354.556 354.556 331.696 354.556 303.547V163.879C354.556 141.288 336.485 123 314.162 123ZM344.457 305.878C344.457 322.104 331.524 335.192 315.491 335.192H171.366C155.864 335.192 143.374 322.552 143.374 306.864V163.52C143.374 147.294 156.307 134.206 172.341 134.206H315.845C331.701 134.206 344.457 147.204 344.457 163.161V305.967V305.878Z" fill="#2F3886"></path>
<path d="M224.427 166.664H184.695C178.115 166.664 172.769 172.01 172.769 178.589V218.321C172.769 224.901 178.115 230.247 184.695 230.247H224.427C231.007 230.247 236.353 224.901 236.353 218.321V178.589C236.353 172.01 231.007 166.664 224.427 166.664ZM220.452 210.371C220.452 212.565 218.67 214.347 216.476 214.347H192.645C190.452 214.347 188.67 212.565 188.67 210.371V186.54C188.67 184.347 190.452 182.565 192.645 182.565H216.476C218.67 182.565 220.452 184.347 220.452 186.54V210.371Z" fill="#2F3886"></path>
<path d="M224.427 241.081H184.695C178.115 241.081 172.769 246.427 172.769 253.006V292.739C172.769 299.319 178.115 304.665 184.695 304.665H224.427C231.007 304.665 236.353 299.319 236.353 292.739V253.006C236.353 246.427 231.007 241.081 224.427 241.081ZM220.452 284.789C220.452 286.982 218.67 288.764 216.476 288.764H192.645C190.452 288.764 188.67 286.982 188.67 284.789V260.957C188.67 258.764 190.452 256.982 192.645 256.982H216.476C218.67 256.982 220.452 258.764 220.452 260.957V284.789Z" fill="#2F3886"></path>
<path d="M301.482 166.659H261.75C255.17 166.659 249.824 172.005 249.824 178.585V218.317C249.824 224.897 255.17 230.243 261.75 230.243H301.482C308.062 230.243 313.408 224.897 313.408 218.317V178.585C313.408 172.005 308.062 166.659 301.482 166.659ZM297.507 210.367C297.507 212.56 295.725 214.342 293.532 214.342H269.7C267.507 214.342 265.725 212.56 265.725 210.367V186.535C265.725 184.342 267.507 182.56 269.7 182.56H293.532C295.725 182.56 297.507 184.342 297.507 186.535V210.367Z" fill="#2F3886"></path>
<path d="M304.985 264.979C309.098 264.979 312.427 268.308 312.427 272.42C312.427 276.533 309.098 279.862 304.985 279.862C295.723 279.862 288.242 287.362 288.223 296.625C288.223 300.736 284.894 304.065 280.782 304.065C276.67 304.065 273.341 300.736 273.341 296.625C273.341 279.137 287.499 264.979 304.985 264.979ZM304.985 240.482C309.098 240.482 312.427 243.811 312.427 247.923C312.427 252.035 309.098 255.364 304.985 255.364C293.569 255.364 283.308 259.966 275.808 267.446C268.327 274.947 263.726 285.208 263.726 296.625C263.726 300.736 260.397 304.065 256.285 304.065C252.173 304.065 248.843 300.736 248.843 296.625C248.843 265.625 273.967 240.482 304.985 240.482ZM304.692 288.615C308.961 288.615 312.427 292.081 312.427 296.35C312.427 300.619 308.961 304.085 304.692 304.085C300.423 304.085 296.957 300.619 296.957 296.35C296.957 292.081 300.423 288.615 304.692 288.615Z" fill="#FFB855"></path>
</svg>