<svg width="550" height="52" viewBox="0 0 550 52" fill="none" xmlns="http://www.w3.org/2000/svg">
<path d="M535.024 42.1748C532.656 42.1748 530.321 41.921 528.02 41.4135C525.719 40.906 523.859 40.2462 522.438 39.4342L525.584 31.8721C526.904 32.6503 528.426 33.2593 530.152 33.6992C531.911 34.139 533.62 34.359 535.278 34.359C536.665 34.359 537.595 34.2405 538.069 34.0037C538.577 33.7669 538.83 33.4454 538.83 33.0394C538.83 32.6334 538.543 32.3458 537.968 32.1766C537.392 31.9736 536.631 31.8214 535.684 31.7199C534.736 31.6184 533.688 31.4999 532.537 31.3646C531.421 31.1954 530.287 30.9586 529.137 30.6541C527.986 30.3496 526.938 29.8928 525.99 29.2838C525.043 28.6748 524.281 27.8627 523.706 26.8477C523.131 25.7988 522.844 24.4793 522.844 22.889C522.844 21.1296 523.368 19.5394 524.417 18.1184C525.5 16.6973 527.09 15.5639 529.188 14.718C531.319 13.8383 533.941 13.3984 537.054 13.3984C539.084 13.3984 541.114 13.5845 543.144 13.9567C545.174 14.3289 546.917 14.9041 548.372 15.6823L545.225 23.2443C543.804 22.4661 542.4 21.9417 541.013 21.671C539.659 21.3665 538.391 21.2142 537.206 21.2142C535.751 21.2142 534.753 21.3496 534.212 21.6202C533.704 21.8909 533.451 22.1954 533.451 22.5338C533.451 22.9398 533.738 23.2443 534.313 23.4473C534.889 23.6503 535.65 23.8026 536.597 23.9041C537.545 24.0056 538.577 24.1409 539.693 24.3101C540.844 24.4454 541.977 24.6823 543.094 25.0206C544.244 25.3251 545.293 25.7819 546.24 26.3909C547.188 26.9999 547.949 27.8289 548.524 28.8778C549.099 29.8928 549.387 31.1954 549.387 32.7857C549.387 34.4436 548.862 35.9999 547.813 37.4548C546.765 38.8759 545.174 40.0263 543.043 40.906C540.911 41.7518 538.238 42.1748 535.024 42.1748Z" fill="white"></path>
<path d="M514.217 42.1753C510.394 42.1753 507.417 41.2618 505.285 39.4347C503.153 37.5738 502.088 34.7317 502.088 30.9084V7.66406H513.558V30.8069C513.558 31.6528 513.777 32.3126 514.217 32.7862C514.691 33.2599 515.266 33.4968 515.943 33.4968C516.924 33.4968 517.787 33.243 518.531 32.7355L521.272 40.7035C520.392 41.2111 519.326 41.5832 518.074 41.8201C516.856 42.0569 515.571 42.1753 514.217 42.1753ZM498.281 22.2806V13.9065H519.242V22.2806H498.281Z" fill="white"></path>
<path d="M484.265 41.6673V13.906H495.735V41.6673H484.265ZM490 11.6729C487.902 11.6729 486.227 11.1147 484.975 9.99812C483.724 8.88158 483.098 7.49436 483.098 5.83647C483.098 4.17857 483.724 2.79135 484.975 1.67481C486.227 0.55827 487.902 0 490 0C492.098 0 493.772 0.524436 495.024 1.57331C496.276 2.62218 496.902 3.97556 496.902 5.63346C496.902 7.39286 496.276 8.84774 495.024 9.99812C493.772 11.1147 492.098 11.6729 490 11.6729Z" fill="white"></path>
<path d="M461.121 41.6672V13.906H472.033V22.28L470.256 19.8947C471.102 17.7293 472.456 16.1052 474.317 15.0225C476.177 13.9398 478.411 13.3984 481.016 13.3984V23.5488C480.508 23.4811 480.052 23.4304 479.646 23.3966C479.273 23.3627 478.884 23.3458 478.478 23.3458C476.753 23.3458 475.332 23.8026 474.215 24.7161C473.132 25.5958 472.591 27.1353 472.591 29.3345V41.6672H461.121Z" fill="white"></path>
<path d="M444.566 41.6673V13.906H456.036V41.6673H444.566ZM450.301 11.6729C448.203 11.6729 446.528 11.1147 445.276 9.99812C444.024 8.88158 443.398 7.49436 443.398 5.83647C443.398 4.17857 444.024 2.79135 445.276 1.67481C446.528 0.55827 448.203 0 450.301 0C452.398 0 454.073 0.524436 455.325 1.57331C456.577 2.62218 457.203 3.97556 457.203 5.63346C457.203 7.39286 456.577 8.84774 455.325 9.99812C454.073 11.1147 452.398 11.6729 450.301 11.6729Z" fill="white"></path>
<path d="M427.554 42.1748C425.151 42.1748 423.155 41.6672 421.565 40.6522C420.009 39.6033 418.858 38.03 418.114 35.9323C417.37 33.8007 416.997 31.0939 416.997 27.812C416.997 24.4624 417.336 21.7387 418.012 19.6409C418.723 17.5093 419.856 15.936 421.413 14.921C422.969 13.906 425.016 13.3984 427.554 13.3984C429.99 13.3984 432.223 13.9905 434.253 15.1748C436.283 16.3251 437.907 17.983 439.125 20.1484C440.343 22.28 440.952 24.8345 440.952 27.812C440.952 30.7894 440.343 33.3608 439.125 35.5263C437.907 37.6578 436.283 39.2988 434.253 40.4492C432.223 41.5996 429.99 42.1748 427.554 42.1748ZM409.029 51.5131V13.906H419.941V17.6616L419.992 27.812L420.499 37.9623V51.5131H409.029ZM424.813 33.2424C425.659 33.2424 426.42 33.0394 427.097 32.6334C427.774 32.2274 428.315 31.6184 428.721 30.8063C429.127 29.9943 429.33 28.9962 429.33 27.812C429.33 26.5939 429.127 25.5789 428.721 24.7669C428.315 23.9548 427.774 23.3458 427.097 22.9398C426.42 22.5338 425.659 22.3308 424.813 22.3308C423.967 22.3308 423.206 22.5338 422.529 22.9398C421.853 23.3458 421.311 23.9548 420.905 24.7669C420.499 25.5789 420.296 26.5939 420.296 27.812C420.296 28.9962 420.499 29.9943 420.905 30.8063C421.311 31.6184 421.853 32.2274 422.529 32.6334C423.206 33.0394 423.967 33.2424 424.813 33.2424Z" fill="white"></path>
<path d="M389.276 42.4805C386.299 42.4805 383.423 42.1421 380.648 41.4654C377.874 40.7887 375.59 39.909 373.797 38.8263L377.654 30.097C379.346 31.0782 381.224 31.8733 383.288 32.4823C385.385 33.0575 387.415 33.3451 389.378 33.3451C390.528 33.3451 391.425 33.2774 392.068 33.1421C392.744 32.9729 393.235 32.753 393.539 32.4823C393.844 32.1778 393.996 31.8226 393.996 31.4165C393.996 30.7737 393.641 30.2662 392.93 29.894C392.22 29.5218 391.272 29.2173 390.088 28.9805C388.938 28.7098 387.669 28.4391 386.282 28.1684C384.895 27.8639 383.491 27.4748 382.069 27.0011C380.682 26.5274 379.397 25.9015 378.212 25.1233C377.062 24.3451 376.131 23.3301 375.421 22.0782C374.71 20.7925 374.355 19.2023 374.355 17.3075C374.355 15.1083 374.964 13.112 376.182 11.3188C377.434 9.49173 379.278 8.03685 381.714 6.95414C384.184 5.87143 387.246 5.33008 390.9 5.33008C393.303 5.33008 395.671 5.58384 398.006 6.09136C400.34 6.59887 402.438 7.37707 404.299 8.42594L400.695 17.1045C398.936 16.2248 397.227 15.565 395.569 15.1252C393.945 14.6853 392.355 14.4654 390.799 14.4654C389.648 14.4654 388.735 14.5669 388.058 14.7699C387.381 14.9729 386.891 15.2436 386.586 15.582C386.316 15.9203 386.18 16.2925 386.18 16.6985C386.18 17.3075 386.536 17.7981 387.246 18.1703C387.957 18.5086 388.887 18.7962 390.038 19.0331C391.222 19.2699 392.507 19.5237 393.895 19.7944C395.316 20.065 396.72 20.4372 398.107 20.9109C399.494 21.3846 400.763 22.0105 401.913 22.7887C403.098 23.5669 404.045 24.582 404.756 25.8338C405.466 27.0857 405.821 28.6421 405.821 30.503C405.821 32.6684 405.195 34.6647 403.944 36.4917C402.725 38.285 400.898 39.7399 398.462 40.8564C396.026 41.9391 392.964 42.4805 389.276 42.4805Z" fill="white"></path>
<path d="M350.24 42.3283L328.721 23.8546C327.571 22.9073 326.624 21.9599 325.879 21.0125C325.135 20.0313 324.577 19.0501 324.204 18.0689C323.832 17.0877 323.646 16.1065 323.646 15.1253C323.646 13.2306 324.171 11.5727 325.22 10.1516C326.302 8.69674 327.791 7.56328 329.686 6.75125C331.614 5.93922 333.864 5.5332 336.436 5.5332C338.804 5.5332 340.868 5.90538 342.627 6.64974C344.387 7.36027 345.757 8.39223 346.738 9.74561C347.72 11.099 348.21 12.6892 348.21 14.5163C348.21 16.1403 347.787 17.6122 346.941 18.9317C346.129 20.2512 344.86 21.4524 343.135 22.5351C341.443 23.6178 339.295 24.6497 336.689 25.6309C335.336 26.1385 334.236 26.6629 333.391 27.2043C332.545 27.7456 331.936 28.3208 331.564 28.9298C331.191 29.505 331.005 30.1648 331.005 30.9091C331.005 31.4505 331.174 31.958 331.513 32.4317C331.885 32.9054 332.392 33.2776 333.035 33.5482C333.712 33.8189 334.524 33.9543 335.471 33.9543C337.298 33.9543 339.007 33.4806 340.597 32.5332C342.221 31.552 343.609 30.1479 344.759 28.3208C345.943 26.4937 346.755 24.3114 347.195 21.7738L356.381 24.5144C355.603 27.9994 354.182 31.0952 352.118 33.802C350.088 36.5088 347.567 38.6403 344.556 40.1967C341.579 41.7193 338.263 42.4806 334.609 42.4806C331.767 42.4806 329.229 42.0407 326.996 41.161C324.763 40.2475 323.003 39.0125 321.718 37.4561C320.432 35.8997 319.789 34.1403 319.789 32.1779C319.789 30.2155 320.212 28.49 321.058 27.0012C321.938 25.4787 323.274 24.1253 325.067 22.9411C326.894 21.7231 329.195 20.5896 331.97 19.5407C333.661 18.8979 334.981 18.3058 335.928 17.7644C336.909 17.2231 337.603 16.7155 338.009 16.2418C338.415 15.7343 338.618 15.2437 338.618 14.77C338.618 14.2287 338.432 13.7888 338.06 13.4505C337.721 13.1121 337.197 12.943 336.486 12.943C335.708 12.943 335.099 13.146 334.659 13.552C334.253 13.9242 334.05 14.3979 334.05 14.9731C334.05 15.3452 334.135 15.7174 334.304 16.0896C334.507 16.4618 334.879 16.9185 335.421 17.4599C335.962 17.9674 336.723 18.6441 337.704 19.49L356.381 35.3753L350.24 42.3283Z" fill="white"></path>
<path d="M287.961 42.1748C284.578 42.1748 281.617 41.5488 279.079 40.2969C276.576 39.0451 274.63 37.3364 273.243 35.171C271.856 32.9717 271.162 30.5018 271.162 27.7612C271.162 24.953 271.839 22.4661 273.192 20.3007C274.579 18.1353 276.457 16.4436 278.826 15.2255C281.228 14.0075 283.918 13.3984 286.895 13.3984C289.636 13.3984 292.156 13.9398 294.457 15.0225C296.792 16.1052 298.653 17.7123 300.04 19.8439C301.461 21.9755 302.172 24.6146 302.172 27.7612C302.172 28.1672 302.155 28.624 302.121 29.1315C302.087 29.6052 302.053 30.0451 302.019 30.4511H280.653V24.9191H295.929L291.615 26.3909C291.615 25.3082 291.412 24.3947 291.006 23.6503C290.634 22.8721 290.109 22.28 289.433 21.874C288.756 21.4342 287.944 21.2142 286.997 21.2142C286.049 21.2142 285.22 21.4342 284.51 21.874C283.833 22.28 283.309 22.8721 282.937 23.6503C282.564 24.3947 282.378 25.3082 282.378 26.3909V28.1165C282.378 29.3007 282.615 30.3157 283.089 31.1616C283.562 32.0075 284.239 32.6503 285.119 33.0902C285.999 33.4962 287.064 33.6992 288.316 33.6992C289.602 33.6992 290.651 33.53 291.463 33.1917C292.309 32.8533 293.188 32.3458 294.102 31.6691L300.091 37.7086C298.737 39.1635 297.062 40.28 295.066 41.0582C293.104 41.8026 290.735 42.1748 287.961 42.1748Z" fill="white"></path>
<path d="M236.504 41.6672V13.906H247.416V22.0263L245.233 19.6917C246.316 17.5939 247.771 16.0206 249.598 14.9717C251.459 13.9229 253.523 13.3984 255.79 13.3984C257.921 13.3984 259.85 13.8383 261.575 14.718C263.301 15.5639 264.654 16.9003 265.635 18.7274C266.651 20.5545 267.158 22.9229 267.158 25.8327V41.6672H255.688V27.812C255.688 26.0864 255.384 24.8684 254.775 24.1578C254.166 23.4135 253.337 23.0413 252.288 23.0413C251.51 23.0413 250.782 23.2274 250.105 23.5996C249.463 23.9379 248.938 24.5131 248.532 25.3251C248.16 26.1372 247.974 27.2368 247.974 28.624V41.6672H236.504Z" fill="white"></path>
<path d="M219.951 41.6673V13.906H231.42V41.6673H219.951ZM225.685 11.6729C223.588 11.6729 221.913 11.1147 220.661 9.99812C219.409 8.88158 218.783 7.49436 218.783 5.83647C218.783 4.17857 219.409 2.79135 220.661 1.67481C221.913 0.55827 223.588 0 225.685 0C227.783 0 229.458 0.524436 230.71 1.57331C231.962 2.62218 232.588 3.97556 232.588 5.63346C232.588 7.39286 231.962 8.84774 230.71 9.99812C229.458 11.1147 227.783 11.6729 225.685 11.6729Z" fill="white"></path>
<path d="M167.831 41.6689L156.463 6.14258H168.796L177.982 36.1369H171.79L181.534 6.14258H192.547L201.632 36.1369H195.694L205.286 6.14258H216.655L205.286 41.6689H192.446L185.036 17.105H188.487L180.672 41.6689H167.831Z" fill="white"></path>
<path d="M127.101 49.7888L131.364 35.5275L133.039 41.9223C131.077 41.9223 129.47 41.364 128.218 40.2474C126.966 39.0971 126.34 37.5407 126.34 35.5783C126.34 33.582 126.966 32.0087 128.218 30.8583C129.503 29.6741 131.111 29.082 133.039 29.082C134.968 29.082 136.558 29.6741 137.81 30.8583C139.095 32.0087 139.738 33.582 139.738 35.5783C139.738 36.1196 139.688 36.661 139.586 37.2023C139.518 37.7437 139.349 38.4035 139.079 39.1817C138.808 39.926 138.368 40.9411 137.759 42.2268L134.206 49.7888H127.101Z" fill="white"></path>
<path d="M105.213 41.6672V13.906H116.125V22.28L114.348 19.8947C115.194 17.7293 116.547 16.1052 118.408 15.0225C120.269 13.9398 122.502 13.3984 125.108 13.3984V23.5488C124.6 23.4811 124.143 23.4304 123.737 23.3966C123.365 23.3627 122.976 23.3458 122.57 23.3458C120.844 23.3458 119.423 23.8026 118.307 24.7161C117.224 25.5958 116.683 27.1353 116.683 29.3345V41.6672H105.213Z" fill="white"></path>
<path d="M87.3829 42.1748C83.9994 42.1748 81.0389 41.5488 78.5013 40.2969C75.9975 39.0451 74.052 37.3364 72.6648 35.171C71.2776 32.9717 70.584 30.5018 70.584 27.7612C70.584 24.953 71.2607 22.4661 72.6141 20.3007C74.0013 18.1353 75.8791 16.4436 78.2475 15.2255C80.6498 14.0075 83.3396 13.3984 86.3171 13.3984C89.0577 13.3984 91.5783 13.9398 93.8791 15.0225C96.2137 16.1052 98.0746 17.7123 99.4618 19.8439C100.883 21.9755 101.593 24.6146 101.593 27.7612C101.593 28.1672 101.576 28.624 101.543 29.1315C101.509 29.6052 101.475 30.0451 101.441 30.4511H80.0746V24.9191H95.3509L91.037 26.3909C91.037 25.3082 90.834 24.3947 90.428 23.6503C90.0558 22.8721 89.5314 22.28 88.8547 21.874C88.178 21.4342 87.3659 21.2142 86.4186 21.2142C85.4712 21.2142 84.6423 21.4342 83.9317 21.874C83.255 22.28 82.7306 22.8721 82.3584 23.6503C81.9862 24.3947 81.8002 25.3082 81.8002 26.3909V28.1165C81.8002 29.3007 82.037 30.3157 82.5107 31.1616C82.9844 32.0075 83.6611 32.6503 84.5408 33.0902C85.4205 33.4962 86.4862 33.6992 87.7381 33.6992C89.0238 33.6992 90.0727 33.53 90.8847 33.1917C91.7306 32.8533 92.6103 32.3458 93.5238 31.6691L99.5126 37.7086C98.1592 39.1635 96.4844 40.28 94.4881 41.0582C92.5257 41.8026 90.1573 42.1748 87.3829 42.1748Z" fill="white"></path>
<path d="M54.2247 42.1748C50.8412 42.1748 47.8807 41.5488 45.3431 40.2969C42.8393 39.0451 40.8938 37.3364 39.5066 35.171C38.1194 32.9717 37.4258 30.5018 37.4258 27.7612C37.4258 24.953 38.1025 22.4661 39.4559 20.3007C40.8431 18.1353 42.7209 16.4436 45.0893 15.2255C47.4916 14.0075 50.1814 13.3984 53.1589 13.3984C55.8995 13.3984 58.4201 13.9398 60.7209 15.0225C63.0555 16.1052 64.9164 17.7123 66.3036 19.8439C67.7247 21.9755 68.4352 24.6146 68.4352 27.7612C68.4352 28.1672 68.4183 28.624 68.3844 29.1315C68.3506 29.6052 68.3168 30.0451 68.2829 30.4511H46.9164V24.9191H62.1927L57.8788 26.3909C57.8788 25.3082 57.6758 24.3947 57.2698 23.6503C56.8976 22.8721 56.3732 22.28 55.6965 21.874C55.0198 21.4342 54.2077 21.2142 53.2604 21.2142C52.313 21.2142 51.4841 21.4342 50.7735 21.874C50.0968 22.28 49.5724 22.8721 49.2002 23.6503C48.828 24.3947 48.6419 25.3082 48.6419 26.3909V28.1165C48.6419 29.3007 48.8788 30.3157 49.3525 31.1616C49.8262 32.0075 50.5029 32.6503 51.3825 33.0902C52.2622 33.4962 53.328 33.6992 54.5799 33.6992C55.8656 33.6992 56.9145 33.53 57.7265 33.1917C58.5724 32.8533 59.4521 32.3458 60.3656 31.6691L66.3544 37.7086C65.001 39.1635 63.3262 40.28 61.3299 41.0582C59.3675 41.8026 56.9991 42.1748 54.2247 42.1748Z" fill="white"></path>
<path d="M0 41.6689V6.14258H18.9812C23.8872 6.14258 27.5075 7.02228 29.8421 8.78168C32.1767 10.5072 33.344 12.7234 33.344 15.4302C33.344 17.2234 32.8365 18.8305 31.8214 20.2516C30.8402 21.6388 29.4023 22.7384 27.5075 23.5505C25.6128 24.3625 23.2782 24.7685 20.5038 24.7685L21.5188 22.0279C24.2932 22.0279 26.6786 22.417 28.6748 23.1952C30.7049 23.9734 32.2613 25.1069 33.344 26.5956C34.4605 28.0505 35.0188 29.8099 35.0188 31.8738C35.0188 34.9527 33.7331 37.355 31.1617 39.0806C28.6241 40.8061 24.9023 41.6689 19.9962 41.6689H0ZM11.7744 33.2948H18.9812C20.3008 33.2948 21.282 33.058 21.9248 32.5843C22.6015 32.1106 22.9399 31.417 22.9399 30.5035C22.9399 29.5899 22.6015 28.8963 21.9248 28.4227C21.282 27.949 20.3008 27.7121 18.9812 27.7121H10.9624V19.7948H17.3571C18.7105 19.7948 19.6917 19.5749 20.3008 19.1351C20.9436 18.6614 21.265 18.0016 21.265 17.1557C21.265 16.276 20.9436 15.6163 20.3008 15.1764C19.6917 14.7366 18.7105 14.5166 17.3571 14.5166H11.7744V33.2948Z" fill="white"></path>
</svg>