<svg width="300" height="47" viewBox="0 0 300 47" fill="none" xmlns="http://www.w3.org/2000/svg">
<path d="M48.7283 9.74567H62.9306V45.5029H48.7283V9.74567ZM48.7283 0H62.9306V6.83237H48.7283V0ZM95.5838 0H109.786V6.83237H95.5838V0ZM95.5838 9.74567H109.786V45.5029H95.5838V9.74567ZM137.965 9.74567H152.168V45.5029H138.988V40.2486C135.451 45.1561 131.965 46.526 126.087 46.526C118.301 46.526 113.254 41.7572 113.254 31.5087V9.74567H127.457V29.0636C127.457 33.9711 129.173 35.5491 132.572 35.5491C136.665 35.5491 137.965 32.4798 137.965 26.948V9.74567ZM190.855 34.0405C190.855 41.4798 184.717 46.526 171.607 46.526C163.422 46.526 154.405 44.0116 153.659 34.3699H167.168C167.168 35.8092 167.705 36.9017 168.676 37.6474C169.561 38.3237 170.792 38.7399 172.162 38.7399C174.347 38.7399 176.671 38.0636 176.671 35.5318C176.671 29.7919 154.751 34.3699 154.751 20.5145C154.751 11.3757 164.237 8.7052 171.676 8.7052C179.462 8.7052 188.601 10.474 189.416 19.9595H176.514C176.376 18.7977 175.908 17.9827 175.145 17.3584C174.399 16.7514 173.376 16.474 172.283 16.474C169.821 16.474 168.26 17.2197 168.26 19.0058C168.277 24.0173 190.855 20.6705 190.855 34.0405ZM44.5665 25.0405C45.6416 26.6879 46.2832 28.6994 46.2832 31.1792C46.2139 40.3353 38.6358 46.5434 22.3353 46.5434C12.1387 46.5434 0.936416 43.4393 0 31.5954V31.0058H15.2775L11.896 40.9769L23.0462 33.2254L34.1965 40.9769L31.3006 32.4104C30.8497 31.526 29.6879 31.0405 29.6879 31.0405C23.6012 27.659 1.38728 29.4971 1.38728 14.5491C1.38728 3.2948 13.1965 0.0173421 22.4566 0.0173421C32.1503 0.0173421 43.526 2.20231 44.5491 13.8728V14.3237H27.3468L23.0809 1.76879L18.815 14.3237H5.0289L12.7283 19.6301C14.9827 18.7283 17.3931 18.3295 19.8035 18.0694C22.3873 17.7919 24.9884 17.7399 27.5896 17.9133C29.7746 18.052 31.9422 18.3642 34.0751 18.8671C36 19.3179 37.9595 19.8208 39.711 20.7746C41.6705 21.8497 43.3873 23.2197 44.5665 25.0405ZM90.711 8.72254C91.5954 8.72254 92.5491 8.93064 92.5491 8.93064V23.1329C92.5491 23.1329 91.8035 22.7168 89.6185 22.7168C83.8092 22.7168 80.8786 25.4393 80.8786 33.1561V45.5202H66.6763V9.74567H79.578V16.9769H79.7168C81.711 11.3931 85.1618 8.72254 90.711 8.72254ZM276.087 1.02312H300V45.5029H284.879V32.8786C284.879 26.7572 285 21.0867 285.225 15.8844C284.775 18.0173 284.272 20.0289 283.717 21.9364L277.526 45.4856H264.884L258.555 21.9538C258.329 21.0867 258.104 20.2543 257.896 19.4566C257.688 18.659 257.514 17.9653 257.376 17.3237C257.237 16.6994 257.15 16.3526 257.098 16.2659C257.324 21.3468 257.445 26.896 257.445 32.8786V45.5029H242.341V1.02312H266.254L270.104 17.896C270.52 19.7688 270.902 21.5376 271.266 23.2023C271.769 20.5318 272.133 18.763 272.358 17.896L276.087 1.02312ZM223.37 21.7803L240.902 45.5202H222.694L220.006 41.4624L214.769 33.3988C213.347 35.5318 211.439 38.2023 209.064 41.4624L206.116 45.5202H188.861L206.861 22.7168L190.786 1.04046H208.786L211.474 4.90751C213.208 7.45665 214.526 9.36416 215.393 10.6474C215.48 10.474 216.104 9.57225 217.249 7.89017C218.168 6.55491 218.844 5.56648 219.312 4.89018L222 1.02312H238.769L223.37 21.7803Z" fill="white"></path>
</svg>