<svg width="443" height="100" viewBox="0 0 443 100" fill="none" xmlns="http://www.w3.org/2000/svg">
<g clip-path="url(#clip0_19_112)">
<path d="M386.344 84.9392H341.832V14.6953H385.674V24.0856H352.625V44.0246H382.747V53.4148H352.625V75.549H386.344V84.9392Z" fill="white"></path>
<path d="M122.438 84.9392V14.6953H133.169V44.0246H168.779V14.6953H179.511V84.9392H168.779V53.4148H133.169V84.9392H122.438Z" fill="white"></path>
<path d="M249.087 59.6953C249.087 75.8538 238.721 86.4026 221.892 86.4026C205.062 86.4026 194.818 75.8538 194.818 59.6953V14.6953H205.55V60.0002C205.55 70.1831 211.526 76.7075 221.892 76.7075C232.379 76.7075 238.355 70.1831 238.355 60.0002V14.6953H249.087V59.6953Z" fill="white"></path>
<path d="M260.004 49.6958C260.004 28.9641 274.882 13.2324 295.309 13.2324C313.419 13.2324 325.614 24.269 329.943 38.8422H317.443C314.821 29.8178 307.077 22.9275 295.065 22.9275C281.162 22.9275 271.223 33.4154 271.223 49.9397C271.223 65.4885 280.736 77.2568 296.345 77.2568C309.333 77.2568 317.565 69.208 319.516 57.1958H295.248V48.5373H330.858C331.223 71.0373 317.443 86.4032 295.919 86.4032C275.675 86.4032 260.004 71.0373 260.004 49.6958Z" fill="white"></path>
<path d="M400.002 84.9392V14.6953H410.734V75.2441H442.502V84.9392H400.002Z" fill="white"></path>
<path d="M88.9045 18.5371C89.4533 21.5859 89.8192 24.6956 89.8192 27.8664C89.8192 58.72 61.8314 83.72 27.3192 83.72C21.8923 83.72 16.6484 83.1103 11.6484 81.9517C20.7948 92.8664 34.5753 99.8176 49.9411 99.8176C77.5631 99.8176 99.9411 77.4395 99.9411 49.8176C99.8801 37.9883 95.7338 27.1347 88.9045 18.5371Z" fill="white"></path>
<path d="M22.751 49.8193C22.751 37.1363 31.5315 26.4656 43.2998 23.5388C40.6779 23.051 37.995 22.7461 35.251 22.7461C15.6779 22.7461 -0.175781 36.1607 -0.175781 52.7461C-0.175781 58.5998 1.83641 64.0876 5.25105 68.7217C12.6291 71.9534 20.9218 73.7827 29.7023 73.7827C31.9584 73.7827 34.2145 73.6607 36.4706 73.4168C28.2998 68.7217 22.751 59.8802 22.751 49.8193Z" fill="white"></path>
<path d="M35.3101 16.8935C58.2979 16.8935 76.9565 31.6496 76.9565 49.8203C76.9565 49.8813 76.9565 49.9423 76.9565 50.0032C81.4077 43.2349 83.9077 35.4301 83.9077 27.1374C83.9077 21.1618 82.5662 15.4301 80.1882 10.1252C71.7735 3.66178 61.2857 -0.179688 49.8223 -0.179688C30.493 -0.179688 13.7248 10.7959 5.37109 26.8935C12.993 20.7349 23.6028 16.8935 35.3101 16.8935Z" fill="white"></path>
</g>
<defs>
<clipPath id="clip0_19_112">
<rect width="442.683" height="100" fill="white"></rect>
</clipPath>
</defs>
</svg>