<svg width="250" height="143" viewBox="0 0 250 143" fill="none" xmlns="http://www.w3.org/2000/svg">
<g clip-path="url(#clip0_19_72)">
<path d="M35.8982 97.904C35.0596 98.5661 34.8831 99.6692 35.3686 101.214C35.8099 102.582 36.847 104.281 38.4799 106.311C45.0554 114.432 52.8889 121.184 61.9802 126.568C71.0714 131.952 80.8028 135.924 91.1739 138.483C101.589 141.087 112.225 142.389 123.081 142.389C136.983 142.389 150.222 140.359 162.8 136.299C175.378 132.283 185.881 126.634 194.311 119.352C197.267 116.749 198.746 114.674 198.746 113.13C198.746 112.556 198.503 111.982 198.018 111.408C197.356 110.747 196.561 110.526 195.634 110.747C194.708 110.967 193.406 111.519 191.729 112.402C183.653 116.638 173.811 120.014 162.204 122.53C150.642 125.089 138.572 126.369 125.994 126.369C110.415 126.369 95.3663 124.251 80.8468 120.014C66.3273 115.778 53.4626 109.158 42.2532 100.155C40.6204 98.8752 39.2962 98.0584 38.2813 97.7053C37.3104 97.3523 36.516 97.4187 35.8982 97.904Z" fill="white"></path>
<path d="M182.985 101.215C182.058 102.098 181.815 103.024 182.257 103.996C182.566 104.702 183.161 105.099 184.044 105.187C184.926 105.319 186.184 105.231 187.817 104.922C190.465 104.349 193.223 103.951 196.092 103.73C198.961 103.554 201.454 103.598 203.572 103.863C205.691 104.172 207.015 104.702 207.545 105.452C208.339 106.643 208.052 109.159 206.684 112.998C205.36 116.838 203.55 120.567 201.256 124.186C200.373 125.642 199.843 126.789 199.667 127.628C199.49 128.467 199.711 129.173 200.329 129.746C200.726 130.143 201.167 130.342 201.653 130.342C202.933 130.342 204.786 129.217 207.213 126.966C211.583 123.171 214.65 118.669 216.415 113.462C217.386 110.769 217.982 107.945 218.202 104.988C218.423 102.032 218.092 99.9131 217.209 98.6333C216.371 97.3974 214.517 96.3823 211.649 95.5883C208.824 94.7939 205.978 94.3965 203.109 94.3965C197.504 94.3965 192.186 95.7207 187.155 98.3686C185.302 99.3837 183.912 100.332 182.985 101.215Z" fill="white"></path>
<path d="M37.8467 5.34575C37.9516 4.71672 37.7418 4.19253 37.2177 3.87802C34.2822 2.51511 30.8225 1.78125 26.9435 1.78125C16.4597 1.78125 9.5403 8.59575 9.5403 18.7651V20.9667L1.3629 22.2248C0.629031 22.3297 0 22.9586 0 23.6925V30.4022C0 31.3457 0.733867 32.0796 1.67742 32.0796H9.43547V74.644C9.43547 75.5876 10.2742 76.3214 11.2177 76.3214H21.9113C22.75 76.3214 23.5887 75.5876 23.5887 74.644V32.0796H34.8064C35.7499 32.0796 36.5887 31.3457 36.5887 30.4022V22.6441C36.5887 21.7006 35.7499 20.9667 34.8064 20.9667H23.6935V19.499C23.6935 15.7248 25.8951 13.1038 29.25 13.1038C30.9274 13.1038 32.6048 13.7328 34.2822 14.5716C34.5967 14.7812 34.9112 14.8861 35.2258 14.8861C35.8548 14.8861 36.379 14.5716 36.4838 13.9425L37.8467 5.34575Z" fill="white"></path>
<path d="M49.2145 0C53.7226 0 57.4968 2.93548 57.4968 8.1774C57.4968 13.2096 53.7226 16.25 49.2145 16.25C44.8113 16.25 41.0371 13.2096 41.0371 8.1774C41.0371 2.93548 44.8113 0 49.2145 0ZM42.1903 74.5402V22.5403C42.1903 21.5967 43.029 20.9677 44.0774 20.9677H54.6661C55.6097 20.9677 56.3435 21.5967 56.3435 22.5403V74.5402C56.3435 75.5886 55.6097 76.3225 54.6661 76.3225H44.0774C43.029 76.3225 42.1903 75.5886 42.1903 74.5402Z" fill="white"></path>
<path d="M94.4121 34.5954C95.6701 35.3292 96.9282 35.0147 97.1379 33.9663L99.8637 23.168C100.073 22.3293 99.654 21.4906 98.9201 21.176C96.9282 20.3373 94.7266 19.918 92.3153 19.918C86.4443 19.918 81.5169 23.3776 79.3153 29.1438H78.7911L77.4282 22.5389C77.2185 21.4906 76.5895 20.9664 75.5411 20.9664H67.0492C66.0008 20.9664 65.1621 21.5954 65.1621 22.5389V74.5389C65.1621 75.5872 66.0008 76.3211 67.0492 76.3211H77.6379C78.5815 76.3211 79.3153 75.5872 79.3153 74.5389V43.8212C79.3153 36.6921 82.2508 32.7083 87.4927 32.7083C89.904 32.7083 92.3153 33.3373 94.4121 34.5954Z" fill="white"></path>
<path d="M123.222 19.7109C136.746 19.7109 146.077 31.5577 146.077 48.227V50.9528C146.077 52.106 145.343 52.7351 144.4 52.7351H113.892C114.521 61.7512 117.561 66.3641 123.222 66.3641C127.311 66.3641 130.561 64.477 131.714 59.3399C131.924 58.1867 132.553 57.7673 133.601 57.977L143.561 60.1786C144.609 60.3883 145.133 61.1222 144.714 62.2754C141.359 72.1302 133.601 77.477 123.222 77.477C108.859 77.477 99.1094 65.9447 99.1094 48.9609C99.1094 31.977 109.069 19.7109 123.222 19.7109ZM131.714 43.4044C130.98 35.1222 128.15 30.8238 123.222 30.8238C118.4 30.8238 115.045 35.3319 113.996 43.4044H131.714Z" fill="white"></path>
<path d="M201.216 74.7542C201.845 74.3349 202.37 73.1817 202.16 72.2381L200.797 65.1091C200.587 63.7462 199.434 63.222 198.071 63.9559C196.603 64.6897 194.926 65.2139 193.458 65.2139C189.999 65.2139 187.797 62.6978 187.797 58.9236V32.1898H199.015C199.958 32.1898 200.797 31.3511 200.797 30.4075V22.7543C200.797 21.8108 199.958 20.9721 199.015 20.9721H187.797V9.33499C187.797 8.39145 186.958 7.55273 186.015 7.55273H177.103C176.055 7.55273 175.216 8.39145 175.112 9.33499L173.644 20.9721L166.095 22.5446C165.257 22.7543 164.418 23.6979 164.418 24.5366V30.4075C164.418 31.3511 165.257 32.1898 166.095 32.1898H173.644V57.4559C173.644 70.4559 179.62 77.48 190.837 77.48C194.926 77.48 198.491 76.5365 201.216 74.7542Z" fill="white"></path>
<path d="M237.318 20.9707C236.479 20.9707 235.745 21.5997 235.535 22.4384L226.939 61.7529H226.205L217.608 22.4384C217.398 21.5997 216.664 20.9707 215.826 20.9707H205.132C203.769 20.9707 202.826 22.0191 203.245 23.382L217.503 74.9625C217.713 75.6964 218.551 76.3254 219.39 76.3254H233.753C234.592 76.3254 235.43 75.6964 235.64 74.9625L249.898 23.382C250.318 22.0191 249.374 20.9707 248.011 20.9707H237.318Z" fill="white"></path>
</g>
<defs>
<clipPath id="clip0_19_72">
<rect width="250" height="142.387" fill="white"></rect>
</clipPath>
</defs>
</svg>