<svg width="175" height="150" viewBox="0 0 175 150" fill="none" xmlns="http://www.w3.org/2000/svg">
<g clip-path="url(#clip0_19_91)">
<path d="M156.649 76.1856C156.675 76.7783 156.701 77.3969 156.701 77.9897V79.0722V74.6392C156.495 33.3763 121.469 0 78.2732 0H0V9.20103H78.2732C120.258 9.20103 154.562 38.8918 156.675 76.2113L156.649 76.1856Z" fill="#FAFAFA"></path>
<path d="M0 71.0312V74.6653C0 116.237 35.2577 149.975 78.7113 149.975H156.753V141.882H78.7113C35.2577 141.882 0 110.181 0 71.0312Z" fill="#FAFAFA"></path>
<path d="M33.6587 25.9551H31.6484V31.0066H33.3237C34.6897 31.0066 35.6433 30.7747 36.1845 30.3107C36.7258 29.8468 37.0093 29.2283 37.0093 28.5066C37.0093 27.785 36.7773 27.1664 36.3134 26.7025C35.8495 26.2386 34.9474 25.9809 33.633 25.9809L33.6587 25.9551Z" fill="#FAFAFA"></path>
<path d="M89.2526 72.7838C87.9381 71.4694 86.4175 70.4385 84.6907 69.6653C82.9639 68.8921 81.1598 68.5312 79.2784 68.5312C77.3969 68.5312 75.5928 68.9436 73.8402 69.7426C72.0876 70.5416 70.567 71.5983 69.2526 72.9127C67.9381 74.2271 66.9072 75.7477 66.134 77.5003C65.3608 79.2529 65 81.057 65 82.9385C65 84.8199 65.4381 86.4694 66.3402 88.0931C67.2423 89.691 68.3505 91.0828 69.7165 92.2941C71.0825 93.5055 72.6546 94.4333 74.3557 95.1292C76.0825 95.8251 77.8351 96.1859 79.5619 96.2374C81.3402 96.2374 83.067 95.8508 84.7423 95.1292C86.4175 94.4333 87.9124 93.4539 89.201 92.1653C90.4897 90.8766 91.5206 89.4591 92.3196 87.8096C93.1186 86.1601 93.5309 84.4075 93.5309 82.6034C93.5309 80.7993 93.1443 79.0209 92.3969 77.3199C91.6495 75.6189 90.5928 74.1498 89.2784 72.8096H89.2526V72.7838Z" fill="#FAFAFA"></path>
<path d="M156.675 76.1861C154.588 38.8407 120.284 9.17578 78.2732 9.17578H0V71.0314C0 110.155 35.2577 141.882 78.7113 141.882H156.753V77.9902C156.753 77.3974 156.753 76.7789 156.701 76.1861H156.675ZM99.9742 27.5778H106.649L110.052 38.5572L113.196 27.5778H119.433L112.887 45.2067C112.165 47.217 111.392 48.583 110.593 49.2789C109.51 50.2583 107.835 50.7737 105.567 50.7737C103.299 50.7737 103.247 50.6448 101.34 50.3871L100.825 45.9541C101.753 46.2376 102.732 46.3923 103.892 46.3923C105.052 46.3923 105.232 46.2376 105.696 45.8768C106.16 45.516 106.546 44.9232 106.881 44.0211L99.9484 27.5521H99.9742V27.5778ZM87.268 27.5778H89.5876V24.5624L95.9278 21.315V27.5778H99.4072V32.1912H95.9278V38.0418C95.9278 38.7376 95.9794 39.2273 96.1082 39.4335C96.3402 39.7943 96.6753 39.9748 97.1907 39.9748C97.7062 39.9748 98.299 39.8459 99.1752 39.5624L99.6649 43.918C98.1186 44.2789 96.6495 44.4335 95.2835 44.4335C93.9175 44.4335 92.5515 44.2531 91.8041 43.8407C91.0567 43.4284 90.4897 42.8098 90.1546 41.9851C89.8196 41.1603 89.6134 39.8201 89.6134 37.9644V32.1655H87.2938V27.5521L87.268 27.5778ZM79.1753 21.315H85.5155V25.6191H79.1753V21.315ZM79.1753 27.5778H85.5155V44.0985H79.1753V27.5778ZM65.4639 27.5521H71.4433V30.2583C72.0103 29.0727 72.5773 28.2737 73.1959 27.8356C73.8144 27.3974 74.5618 27.1655 75.4639 27.1655C76.366 27.1655 77.3969 27.449 78.5309 28.016L76.5464 32.5263C75.8247 32.217 75.2062 32.0366 74.768 32.0366C73.9433 32.0366 73.299 32.3974 72.835 33.0675C72.1649 34.0211 71.8557 35.8253 71.8557 38.4799V44.0211H65.4897V27.5005L65.4639 27.5521ZM41.9845 113.712H23.7113L24.3041 50.3356H42.5773L41.9845 113.712ZM41.8041 33.6861C40.4381 35.0005 38.299 35.6191 35.4639 35.6191H31.6237V44.0727H24.5619V21.2892H36.2371C38.7887 21.2892 40.6959 21.882 41.9588 23.0933C43.2216 24.3046 43.866 26.0315 43.866 28.2737C43.866 30.516 43.1701 32.3717 41.8041 33.6603V33.6861ZM45.5928 27.6036H51.9588V36.6758C51.9588 37.7325 52.1392 38.4541 52.5258 38.8665C52.9124 39.2789 53.4536 39.5366 54.1495 39.5366C54.8454 39.5366 55.5155 39.2531 56.0052 38.6861C56.4948 38.1191 56.7268 37.0624 56.7268 35.5675V27.6552H63.067V44.0985H57.1907V41.418C56.2887 42.5005 55.4124 43.2995 54.5103 43.7634C53.6082 44.2273 52.5 44.4593 51.2113 44.4593C49.9227 44.4593 48.0928 43.9438 47.1134 42.9129C46.134 41.8562 45.6186 40.284 45.6186 38.1191V27.6294L45.5928 27.6036ZM112.732 88.6088C112.32 90.7995 111.624 92.9387 110.722 95.0005C109.794 97.0624 108.686 98.9696 107.371 100.799C106.057 102.629 104.51 104.176 102.732 105.568L111.907 117.294L97.2423 127.501L85.9278 113.531C82.6804 114.124 79.4072 114.227 76.1598 113.789C72.9124 113.377 69.7938 112.526 66.8041 111.263C63.8402 110.001 61.0825 108.377 58.5567 106.366C56.0309 104.356 53.8917 102.114 52.0361 99.5624C50.1804 97.0108 48.7887 94.2531 47.8093 91.2634C46.8299 88.2737 46.366 85.1294 46.4691 81.882C46.4691 77.5005 47.3969 73.3253 49.2783 69.4335C51.134 65.5418 53.6082 62.1397 56.701 59.2273C59.7938 56.2892 63.3247 54.0211 67.3196 52.3201C71.3402 50.6448 75.4897 49.7686 79.8454 49.7686C84.201 49.7686 88.2216 50.6191 92.2165 52.3201C96.2629 53.9954 99.8454 56.2892 103.041 59.2273C106.211 62.1655 108.737 65.5675 110.593 69.4593C112.448 73.3768 113.402 77.5521 113.402 81.9335C113.402 86.3149 113.17 86.3923 112.758 88.583L112.732 88.6088ZM128.557 38.2479H119.356V33.351H128.557V38.2479Z" fill="#FAFAFA"></path>
<path d="M165.979 142.01V143.402H163.582V149.948H161.907V143.402H159.51V142.01H165.979ZM172.216 142.01H174.613V149.974H173.066V143.324L171.572 149.999H169.948L168.453 143.324V149.974H166.907V142.01H169.329L170.798 148.273L172.242 142.01H172.267H172.216Z" fill="#FAFAFA"></path>
</g>
<defs>
<clipPath id="clip0_19_91">
<rect width="174.588" height="150" fill="white"></rect>
</clipPath>
</defs>
</svg>