<svg width="435" height="80" viewBox="0 0 435 80" fill="none" xmlns="http://www.w3.org/2000/svg">
<g clip-path="url(#clip0_19_128)">
<path d="M61.0027 26.9555V26.3694C61.0027 18.7503 58.6585 12.3035 53.9698 7.90758C48.6951 2.92592 40.7832 0.288483 31.4055 0.288483H0.0507812V79.7022H17.9267V53.9151H28.1831L43.4207 79.7022H63.6403L46.0578 50.3986C52.7977 47.1752 61.0027 40.7288 61.0027 26.9555ZM43.1268 27.2485C43.1268 34.5746 38.1452 38.9698 29.9403 38.9698H17.9255V15.8197H29.9403C38.4384 15.8197 43.1268 19.6292 43.1268 27.2485ZM312.14 -0.00390625L282.25 79.7034H300.125L306.279 62.7068H334.118L340.272 79.7034H358.733L328.843 -0.00390625H312.14ZM328.551 47.7615H311.554L320.052 23.4397L328.551 47.7615ZM410.602 39.2634L434.338 0.582098H414.704L400.638 25.7834L386.866 0.582098H366.353L389.796 39.5569L365.181 79.9958H384.814L399.76 53.3293L414.705 79.9958H434.925L410.602 39.2634ZM97.6295 64.4646V47.4681H129.571V32.2304H97.6295V15.8198H133.674V0.28861H80.047V79.7023H113.453L121.658 64.4646H97.6295ZM250.007 0.28861L232.131 26.0757L213.962 0.28861H213.669L195.501 34.8675V79.7023H212.789V30.4716L231.544 54.7935V55.0865H232.423L251.471 30.4712V79.7019H268.76V0.288167L250.007 0.28861Z" fill="white"></path>
<path d="M173.562 0.279297L131.658 79.6921H153.343L195.247 0.279297H173.562Z" fill="white"></path>
</g>
<defs>
<clipPath id="clip0_19_128">
<rect width="434.871" height="80" fill="white"></rect>
</clipPath>
</defs>
</svg>