<svg width="222" height="150" viewBox="0 0 222 150" fill="none" xmlns="http://www.w3.org/2000/svg">
<g clip-path="url(#clip0_23_38)">
<path d="M204.77 149.868C194.399 149.868 188.248 144.56 187.777 136.916H197.693C197.693 139.465 199.105 142.856 205.241 143.067C209.493 143.067 211.846 140.519 211.846 138.604C211.375 135.634 207.594 135.423 203.828 134.774C199.576 134.158 196.281 133.297 193.912 132.242C190.617 130.538 188.718 126.919 188.718 123.105C188.718 116.305 194.399 110.997 204.299 110.997C213.745 110.997 219.88 115.883 220.334 123.316H210.905C210.905 121.416 210.434 118.22 204.769 118.22C200.988 118.22 198.635 118.853 198.164 121.612C198.164 125.442 206.182 125.231 212.317 126.708C217.981 128.201 221.762 131.804 221.762 136.916C221.762 146.265 214.215 149.868 204.77 149.868ZM24.0693 87.1481L56.6263 68.2402L74.089 98.201H30.2042" fill="white"></path>
<path d="M92.5322 148.741V110.926Z" fill="white"></path>
<path d="M92.5322 148.741V110.926" stroke="white" stroke-width="9.52682"></path>
<path d="M8.9594 130.391C8.9594 136.331 14.1525 141.216 19.8001 141.216C25.9512 141.216 30.6579 136.331 30.6579 130.391C30.6579 124.662 25.9512 119.566 19.8001 119.566C14.1525 119.566 8.9594 124.662 8.9594 130.391ZM19.33 149.932C8.95866 149.932 0 141.216 0 130.391C0 119.566 8.9594 111.062 19.33 111.062C23.582 111.062 27.3631 112.133 30.6579 114.453V111.483H40.1037V149.071H30.6586V146.735C27.8348 148.861 23.582 149.932 19.33 149.932ZM145.342 98.1911L100.045 19.185L132.601 0.0664062L189.227 98.1911M52.3733 130.391C52.3733 136.331 57.097 141.216 63.2311 141.216C68.8787 141.216 74.0888 136.331 74.0888 130.391C74.0888 124.662 68.8787 119.566 63.2311 119.566C57.0962 119.566 52.3733 124.662 52.3733 130.391ZM62.7602 149.932C51.9024 149.932 43.4147 141.216 43.4147 130.391C43.4147 119.566 51.9024 111.062 62.7602 111.062C66.9959 111.062 70.7778 112.133 74.0888 114.453V98.5319H83.5184V149.071H74.0881V146.735C70.7771 148.861 66.9967 149.932 62.7602 149.932ZM62.2952 53.3786L95.3223 34.6983L131.661 98.1889H97.2058V107.537H87.7755V98.1889M215.644 107.831C213.274 107.831 210.921 105.705 210.921 103.157C210.921 100.609 213.274 98.4831 215.644 98.4831C218.468 98.4831 220.367 100.61 220.367 103.157C220.367 105.705 218.468 107.831 215.644 107.831ZM215.644 99.1329C213.274 99.1329 211.863 101.031 211.863 103.157C211.863 105.283 213.274 107.199 215.644 107.199C217.997 107.199 219.409 105.284 219.409 103.157C219.409 101.03 217.997 99.1329 215.644 99.1329Z" fill="white"></path>
<path d="M216.618 105.723L215.677 103.597H214.736V105.723H214.021V100.627H216.147C216.618 100.627 217.559 101.276 217.559 102.12C217.559 102.963 217.089 103.386 216.618 103.597L217.559 105.723M215.677 101.276H214.736V102.964H215.677C216.618 102.964 216.618 102.753 216.618 102.12C216.618 101.682 216.618 101.276 215.677 101.276ZM153.322 130.392C153.322 136.332 158.046 141.218 164.18 141.218C169.844 141.218 175.021 136.332 175.021 130.392C175.021 124.663 169.844 119.567 164.18 119.567C158.045 119.567 153.322 124.663 153.322 130.392ZM163.694 149.933C152.852 149.933 144.364 141.218 144.364 130.392C144.364 119.567 152.852 111.063 163.693 111.063C167.946 111.063 171.727 112.134 175.021 114.455V111.484H183.996V149.073H175.022V146.736C171.727 148.862 167.946 149.933 163.694 149.933ZM109.941 130.392C109.941 136.332 115.134 141.218 120.798 141.218C126.933 141.218 131.656 136.332 131.656 130.392C131.656 124.663 126.933 119.567 120.798 119.567C115.134 119.567 109.941 124.663 109.941 130.392ZM131.656 98.5332H141.085V149.073H131.656V146.736C128.815 148.862 125.034 149.933 120.798 149.933C109.941 149.933 100.981 141.218 100.981 130.392C100.981 119.567 109.941 111.063 120.798 111.063C125.034 111.063 128.815 112.134 131.656 114.455V98.5332Z" fill="white"></path>
</g>
<defs>
<clipPath id="clip0_23_38">
<rect width="221.762" height="150" fill="white"></rect>
</clipPath>
</defs>
</svg>