<svg width="150" height="85" viewBox="0 0 150 85" fill="none" xmlns="http://www.w3.org/2000/svg">
<g clip-path="url(#clip0_832_511)">
<path d="M42.2032 50.9494V51.1638H37.3866V50.9494L38.5545 48.9468L36.862 44.846H30.7123L29.0923 48.9468L30.5935 50.9494V51.1638H26.4V50.9494L27.9736 48.9468L33.1931 35.9083L32.4772 34.1434L34.6711 33.5L40.8672 48.9439L42.2032 50.9494ZM36.5548 44.0635L33.7176 37.198L31.0253 44.0635H36.5548Z" fill="white"></path>
<path d="M41.4613 35.8157L40.1021 33.8624V33.6479H45.1071V33.8624L43.8667 35.8157L48.5848 47.9964L52.9001 35.8157L51.564 33.8624V33.6479H55.2359V33.8624L53.8767 35.8157L48.2052 51.5001H47.4893L41.4613 35.8157Z" fill="white"></path>
<path d="M68.8947 50.9494V51.1638H64.0809V50.9494L65.2488 48.9468L63.5565 44.846H57.4065L55.7866 48.9468L57.2877 50.9494V51.1638H53.0943V50.9494L54.6679 48.9468L59.8875 35.9083L59.1717 34.1434L61.3653 33.5L67.5615 48.9439L68.8947 50.9494ZM63.2463 44.0635L60.4092 37.198L57.7167 44.0635H63.2463Z" fill="white"></path>
<path d="M70.8246 50.9495L72.0882 48.9701V35.7896L70.7523 33.9058V33.645H75.5661V33.9058L74.2299 35.7896V50.3988H77.4729C79.7625 50.3988 80.8086 48.6107 80.9766 47.5877L83.1213 49.1845C82.8345 50.2105 82.0722 51.1639 77.6148 51.1639H70.8219V50.9495H70.8246Z" fill="white"></path>
<path d="M84.9819 50.9263L86.3178 48.9469V35.7896L85.3875 33.8827V33.645H89.3667V33.8827L88.4625 35.7896V48.9469L89.7723 50.9263V51.1639H84.9819V50.9263Z" fill="white"></path>
<path d="M94.8702 37.1025V48.9469L96.3483 50.9495V51.164H92.343V50.9495L93.8211 48.9469V35.865L92.343 33.8624V33.6479H95.0352L105.025 47.1385V35.8157L103.596 33.8624V33.6479H107.506V33.8624L106.077 35.8157V51.3089H105.219L94.8702 37.1025Z" fill="white"></path>
<path d="M123.376 49.9728C122.089 51.022 121.135 51.2364 118.394 51.164H109.885V50.9495L111.386 48.9701V35.865L109.552 33.8624V33.6479H121.422L122.28 37.485H121.898L118.918 34.3638H113.531V41.1076H117.463L119.179 39.8933H119.417V43.5159H119.179L117.463 41.8727H113.531V50.4047H117.655C119.944 50.4047 120.944 48.6658 121.231 47.6631L123.376 49.9728Z" fill="white"></path>
</g>
<defs>
<clipPath id="clip0_832_511">
<rect width="97.2" height="18" fill="white" transform="translate(26.4 33.5)"></rect>
</clipPath>
</defs>
</svg>