<svg width="150" height="85" viewBox="0 0 150 85" fill="none" xmlns="http://www.w3.org/2000/svg">
<g clip-path="url(#clip0_832_312)">
<path d="M98.393 57.6045C98.393 58.1971 98.6959 58.5 99.2885 58.5H102.615C103.207 58.5 103.51 58.2129 103.51 57.6045V52.4872C103.51 50.7436 103.813 49.8798 104.709 49.0317L105.349 48.4233C106.115 47.6885 107.155 47.7359 107.651 48.5681L113.023 57.4281C113.487 58.1945 114.048 58.5 114.943 58.5H117.885C118.828 58.5 119.229 57.5887 118.733 56.7881L111.936 45.7843C111.135 44.4885 111.201 43.4323 112.175 42.4105L117.422 36.9402C118.172 36.1553 117.806 34.9412 116.703 34.9412H114.256C113.184 34.9412 112.689 35.1808 112.128 35.805L105.428 43.2743C104.74 44.0407 103.508 43.8169 103.508 42.6343V28.9942C103.508 28.4016 103.205 28.0987 102.612 28.0987H99.2858C98.6933 28.0987 98.3904 28.4016 98.3904 28.9942V57.6045H98.393ZM75.0765 57.6045C75.0765 58.2129 75.3793 58.5 75.9719 58.5H79.2984C79.891 58.5 80.1938 58.1971 80.1938 57.6045V42.076C80.1938 40.4615 80.9286 39.7741 82.6564 39.7741H85.0557C88.0793 39.7741 89.9492 41.7257 89.9492 44.844V57.6045C89.9492 58.1971 90.2521 58.5 90.8447 58.5H94.1395C94.7479 58.5 95.0666 58.1813 95.0666 57.6045V43.996C95.0666 38.5415 91.5005 34.9438 86.1119 34.9438H78.5635C76.2616 34.9438 75.0765 36.1421 75.0765 38.4467V57.6045ZM66.3772 57.6045C66.3772 58.2129 66.6801 58.5 67.2727 58.5H70.5991C71.1917 58.5 71.4946 58.1971 71.4946 57.6045V35.8393C71.4946 35.2467 71.1917 34.9438 70.5991 34.9438H67.2727C66.6801 34.9438 66.3772 35.2467 66.3772 35.8393V57.6045ZM65.8663 30.5612C65.8663 31.7938 66.6327 32.5602 67.8653 32.5602H69.9933C71.2417 32.5602 72.0081 31.7938 72.0081 30.5612V28.5148C72.0081 27.2664 71.2417 26.5 69.9933 26.5H67.8653C66.6327 26.5 65.8663 27.2664 65.8663 28.5148V30.5612ZM55.9186 54.9971C55.9186 57.299 57.117 58.5 59.4215 58.5H63.2589C63.8514 58.5 64.1543 58.1971 64.1543 57.6045V54.9497C64.1543 54.3571 63.8514 54.0542 63.2589 54.0542H62.4924C61.4679 54.0542 61.036 53.6381 61.036 52.6162V28.9942C61.036 28.4016 60.7331 28.0987 60.1405 28.0987H56.8141C56.2215 28.0987 55.9186 28.4016 55.9186 28.9942V54.9971ZM36.184 42.076V51.3678C36.184 52.9823 36.9188 53.6697 38.6465 53.6697H41.2065C45.1097 53.6697 47.6513 50.9359 47.6513 46.7298C47.6513 42.5237 45.1097 39.7741 41.2065 39.7741H38.6465C36.9188 39.7741 36.184 40.4615 36.184 42.076ZM36.184 33.5848C36.184 34.4644 36.6159 34.9438 37.4165 34.9438H41.8149C48.6126 34.9438 53.2322 39.6924 53.2322 46.6824C53.2322 53.6723 48.4019 58.5 41.1275 58.5H34.5537C32.2518 58.5 31.0508 57.3016 31.0508 54.9971V28.9942C31.0508 28.4016 31.3537 28.0987 31.9463 28.0987H35.2885C35.8811 28.0987 36.184 28.4016 36.184 28.9942V33.5848Z" fill="white"></path>
</g>
<defs>
<clipPath id="clip0_832_312">
<rect width="87.8986" height="32" fill="white" transform="translate(31.0508 26.5)"></rect>
</clipPath>
</defs>
</svg>