<svg width="150" height="85" viewBox="0 0 150 85" fill="none" xmlns="http://www.w3.org/2000/svg">
<path fill-rule="evenodd" clip-rule="evenodd" d="M57.7759 35.0299H55.6359C55.4345 35.0299 55.2436 35.0404 55.0562 35.0577L54.7576 34.3166L54.591 34.7574L53.8898 33.3915L53.8048 35.292C53.593 35.3545 53.3934 35.4291 53.1956 35.5107L51.217 33.4748L52.1074 35.8752L51.9217 35.8353L52.0536 36.139C50.0559 37.5188 49.0805 39.8358 49.0805 40.9813V45.303C49.0805 49.7323 53.5219 51.8584 55.2141 51.8584H55.9118C56.0212 52.1882 56.2416 52.7609 56.2416 52.7609L56.0975 50.3467L57.6908 54.5L57.0261 51.8584H58.1959C58.8259 51.8584 59.8395 51.5616 60.8618 50.9628L61.6654 52.5596L60.9381 49.9544L61.5282 50.5272C63.0053 49.4529 64.3295 47.7242 64.3295 45.3047V40.9831C64.3313 39.2891 62.2086 35.0299 57.7759 35.0299ZM60.5233 45.6814C60.5233 46.2836 60.1849 46.8737 59.6989 47.3146L60.0599 48.5781L58.8398 46.8824C58.8398 46.8824 58.9682 47.3823 59.0602 47.7606C58.7148 47.9394 58.3434 48.0453 57.9807 48.0453H56.5991L56.7276 50.3745L56.1652 48.1321L55.6983 48.4427L55.6879 48.0453H55.4345C54.23 48.0453 52.8936 46.8876 52.8936 45.6831V41.2139C52.8936 40.0094 54.2317 38.8518 55.4345 38.8518H57.9807C59.1869 38.8518 60.5251 40.0077 60.5251 41.2139V45.6814H60.5233ZM100.531 35.0299H98.3874C93.9581 35.0299 91.8355 39.2891 91.8355 40.9831V45.3047C91.8355 45.4696 91.8441 45.6328 91.8563 45.7925L93.4426 44.9229L91.9621 46.5596C92.3353 48.3854 93.4964 49.7253 94.7461 50.6001C95.4438 50.2807 97.5161 49.314 97.5161 49.314L95.5531 50.9594L96.7837 50.4248L95.8412 51.2509C96.6709 51.6553 97.4501 51.8584 97.9726 51.8584H100.954C102.647 51.8584 107.09 49.7323 107.09 45.303V40.9813C107.086 39.2891 104.964 35.0299 100.531 35.0299ZM103.277 45.6814C103.277 46.8859 101.938 48.0435 100.734 48.0435H99.8349L100.461 47.2764L99.1632 48.0383L100.651 46.5041C100.651 46.5041 98.856 47.653 98.193 48.0435H98.186C96.9815 48.0435 95.6399 46.8859 95.6399 45.6814V43.9406L96.5685 43.1717L95.6399 43.2133V41.2139C95.6399 40.0094 96.9815 38.8518 98.186 38.8518H100.732C101.938 38.8518 103.275 40.0077 103.275 41.2139V45.6814H103.277ZM38.0646 30.5087C38.0646 30.5087 30.8409 30.5 29.8655 30.5L29.8621 51.881H38.0941C42.86 51.881 47.6503 48.2501 47.6503 43.3748V39.2162C47.6503 34.9449 43.8059 30.5087 38.0646 30.5087ZM43.5821 42.7187C43.5821 45.6415 40.9144 47.6079 38.5019 47.6079H34.1299V34.787L35.777 34.7939C36.296 34.7939 38.4898 34.8008 38.4898 34.8008C40.937 34.8008 43.5838 36.5486 43.5838 40.0441V42.7187H43.5821ZM120.131 46.0059C120.077 45.0965 119.803 44.3467 119.439 43.7288C118.98 42.979 118.446 42.566 117.791 42.1511C117.137 41.7398 115.542 40.9831 114.853 40.5787C114.161 40.1743 113.348 39.6189 113.107 39.3377C112.868 39.0548 112.777 38.7303 113.461 38.7303C114.148 38.7303 118.073 38.7251 118.073 38.7251L119.931 34.4936C119.931 34.4936 114.322 34.4867 112.901 34.4867C111.477 34.4867 110.426 35.4569 110.101 35.804C109.764 36.1616 108.943 37.1942 108.745 38.5445C108.52 40.0823 109.044 40.9883 109.393 41.66C109.745 42.3299 110.781 43.2342 111.679 43.8486C112.574 44.463 113.527 44.8066 114.105 45.0635C114.683 45.3204 115.237 45.6866 115.537 46.0094C115.837 46.334 115.927 46.636 115.764 47.0039C115.603 47.3701 114.89 47.3996 114.322 47.3996C113.73 47.3996 109.87 47.4048 109.87 47.4048L108.155 51.6553C108.155 51.6553 112.923 51.6467 114.214 51.6467C114.683 51.6467 115.761 51.6536 116.896 51.2822C117.892 50.9576 118.678 50.4248 119.308 49.4962C119.937 48.5642 120.185 46.9119 120.131 46.0059ZM87.6891 33.1867L83.4073 31.4754V34.8425H81.8331V38.6331L83.4021 38.6383V47.6496C83.4021 47.6496 83.423 48.1147 83.5132 48.4306C83.6087 48.7447 83.7302 49.2446 84.3775 49.9267C85.0249 50.6088 85.7348 51.0218 85.7348 51.0218C85.7348 51.0218 89.0498 48.5642 89.6902 48.1199C89.4646 48.0227 88.812 47.6305 88.2705 47.2018C87.7273 46.7731 87.6926 46.4572 87.6926 46.0354V38.6331H90.4227V34.846H87.6891V33.1867ZM76.2844 35.0577L80.7033 33.3325L76.2844 31.5084V35.0577ZM76.3799 50.7702L80.6564 50.7598L80.6599 34.6984L76.392 36.2292L76.3799 50.7702ZM68.3509 36.3559C67.2887 37.3973 66.7125 38.968 66.7125 40.4555V50.7823H70.9717V39.8584C70.9717 39.3828 71.2529 38.6817 72.1328 38.6817C72.9642 38.6817 75.2482 38.6747 75.2482 38.6747V34.8807H72.0825C70.7704 34.8824 69.342 35.3805 68.3509 36.3559Z" fill="white"></path>
</svg>