<svg width="150" height="85" viewBox="0 0 150 85" fill="none" xmlns="http://www.w3.org/2000/svg">
<g clip-path="url(#clip0_832_316)">
<path d="M92.1134 51.45C92.3039 51.8871 92.8558 51.8871 93.7154 51.7161C96.0035 51.2204 98.9022 51.1838 99.3979 51.8675C99.8741 52.5733 98.8265 55.279 97.586 57.2595C97.1293 58.0214 96.9388 58.4976 97.3198 58.859C97.415 58.9738 97.5493 59.0104 97.7007 59.0299C98.1574 59.0299 98.7484 58.5733 99.3027 58.058C100.504 57.0104 101.439 55.6771 101.952 54.1704C102.468 52.7222 102.714 50.6832 102.182 49.9017C101.667 49.1594 99.6641 48.6636 98.1208 48.6832C96.4993 48.6832 94.9364 49.0837 93.5249 49.826C92.6482 50.3022 91.8473 50.8346 92.1134 51.4451V51.45Z" fill="white"></path>
<path d="M49.8033 50.649C49.9352 51.0495 50.2429 51.5452 50.6995 52.1167C56.553 59.3377 65.9742 62.5 75.0683 62.5C83.0194 62.5 90.7044 60.0996 95.586 55.87C96.426 55.1276 96.8631 54.5367 96.8631 54.08C96.8631 53.8895 96.7874 53.7381 96.6531 53.5843C96.2331 53.1472 95.6055 53.4695 94.8412 53.87C90.3039 56.251 83.3247 57.8895 75.9059 57.8895C67.5347 57.8895 58.5725 55.8138 51.7838 50.3462C51.1366 49.8309 50.4309 49.3181 49.9523 49.6991C49.7813 49.8334 49.625 50.1191 49.8009 50.6515L49.8033 50.649Z" fill="white"></path>
<path d="M53.0122 27.2764C56.9023 27.2764 59.5909 30.6512 59.5909 35.4302V36.2312C59.5909 36.5364 59.3809 36.7269 59.0952 36.7269H50.348C50.5384 39.3203 51.4102 40.6366 53.0122 40.6366C54.1941 40.6366 55.1099 40.0847 55.4542 38.6146C55.5299 38.2898 55.7204 38.1653 56.0256 38.2336L58.8486 38.8637C59.1734 38.9345 59.3052 39.1494 59.1929 39.4742C58.221 42.2971 56.0085 43.8234 53.0146 43.8234C48.9316 43.8234 46.1086 40.5218 46.1086 35.6598C46.1086 30.7977 48.9682 27.2764 53.0122 27.2764ZM55.4737 34.0578C55.2344 31.7062 54.4285 30.4632 53.0146 30.4632C51.6007 30.4632 50.6727 31.7403 50.3919 34.0578H55.4737Z" fill="white"></path>
<path d="M73.8767 38.5023C73.1905 41.9357 70.6728 43.8234 67.7351 43.8234C63.8059 43.8234 60.8682 40.2581 60.8682 35.545C60.8682 30.8319 63.8059 27.2764 67.7351 27.2764C70.6728 27.2764 73.1905 29.164 73.8767 32.5975C73.9329 32.9223 73.7815 33.1323 73.4762 33.1885L70.7119 33.6842C70.4066 33.7403 70.2162 33.6085 70.1404 33.2837C69.7204 31.357 68.8828 30.4998 67.7375 30.4998C65.9817 30.4998 65.0684 32.2922 65.0684 35.545C65.0684 38.7977 65.9842 40.5999 67.7375 40.5999C68.8828 40.5999 69.7204 39.7428 70.1404 37.816C70.2162 37.4913 70.4066 37.3594 70.7119 37.4156L73.4762 37.9113C73.7815 37.9675 73.9329 38.1775 73.8767 38.5023Z" fill="white"></path>
<path d="M75.6665 42.9835V22.9957C75.6665 22.71 75.8765 22.5 76.1622 22.5H79.1757C79.4614 22.5 79.7105 22.71 79.7105 22.9957V29.975H79.8619C80.5114 28.2118 81.8448 27.2766 83.6372 27.2766C86.5359 27.2766 88.3283 29.66 88.3283 33.4841V42.9811C88.3283 43.2668 88.1183 43.4768 87.8326 43.4768H84.7801C84.4943 43.4768 84.2843 43.2668 84.2843 42.9811V33.7894C84.2843 31.9872 83.5224 30.9762 82.1109 30.9762C80.5481 30.9762 79.708 32.1386 79.708 34.3242V42.9835C79.708 43.2692 79.498 43.4792 79.2123 43.4792H76.1598C75.8741 43.4792 75.6641 43.2692 75.6641 42.9835H75.6665Z" fill="white"></path>
<path d="M90.1208 35.5499C90.1208 30.8197 93.0781 27.2764 96.9878 27.2764C100.897 27.2764 103.891 30.8197 103.891 35.5499C103.891 40.28 100.917 43.8185 96.9878 43.8185C93.0586 43.8185 90.1208 40.2751 90.1208 35.5499ZM96.9878 40.5804C98.724 40.5804 99.6959 38.788 99.6959 35.5499C99.6959 32.3118 98.724 30.5145 96.9878 30.5145C95.2515 30.5145 94.3187 32.3069 94.3187 35.5499C94.3187 38.7928 95.2735 40.5804 96.9878 40.5804Z" fill="white"></path>
</g>
<defs>
<clipPath id="clip0_832_316">
<rect width="57.7827" height="40" fill="white" transform="translate(46.1086 22.5)"></rect>
</clipPath>
</defs>
</svg>