<svg width="150" height="85" viewBox="0 0 150 85" fill="none" xmlns="http://www.w3.org/2000/svg">
<g clip-path="url(#clip0_832_504)">
<path d="M84.8437 34.8439H86.7469V37.8213C86.7469 37.8213 85.5482 38.9575 83.4284 38.9575C80.8836 38.9575 79.2283 36.7835 79.2283 34.1008C79.2283 31.2764 81.068 29.2441 83.7601 29.2441C85.3128 29.2441 86.7542 29.9824 87.416 31.1994C87.4743 31.3066 87.5275 31.4165 87.5748 31.529L88.0185 30.7614C87.2593 29.4185 85.6539 28.5005 83.7585 28.5005C80.2317 28.5005 77.7208 30.8833 77.7208 34.1003C77.7208 37.3173 79.9526 39.7001 83.4284 39.7001H83.4414C85.6659 39.6954 86.0991 38.856 87.4519 38.856C87.7498 38.856 88.0247 38.9294 88.22 39.0669H88.2549V34.1013H85.9179L84.8437 34.8444V34.8439ZM90.4195 29.393H94.3181V39.5517H95.8048V29.393H98.6411L99.7034 28.6489H90.4195V29.393ZM73.6149 37.6948L66.667 28.6494H65.5589V39.5522H66.302V30.5047L73.2515 39.5522H74.3575V28.6494H73.6144V37.6948H73.6149ZM123.854 28.6494V37.6948L116.906 28.6494H115.798V39.5522H116.541V30.5047L123.49 39.5522H124.597V28.6494H123.854ZM106.71 28.501C103.314 28.501 100.761 31.0088 100.761 34.1008C100.761 37.1928 103.314 39.7006 106.71 39.7006C110.106 39.7006 112.658 37.1928 112.658 34.1008C112.658 31.0088 110.106 28.501 106.71 28.501ZM106.71 38.957C104.07 38.957 102.267 36.783 102.267 34.1003C102.267 31.4175 104.07 29.2436 106.71 29.2436C109.349 29.2436 111.153 31.4175 111.153 34.1003C111.153 36.783 109.349 38.957 106.71 38.957ZM61.4062 28.6494H60.0435V39.5511H61.4062V28.6494ZM39.4148 28.6494H35.6057V39.5511H39.4148C42.7046 39.5511 45.1484 37.1105 45.1484 34.0998C45.1484 31.089 42.7046 28.6484 39.4148 28.6484V28.6494ZM39.4148 38.8081H37.0559V29.3925H39.4148C41.8866 29.3925 43.6982 31.4998 43.6982 34.0998C43.6982 36.6997 41.8861 38.807 39.4148 38.807V38.8081ZM30.6605 29.393L31.7227 28.6489H25.4017V39.5517H31.7227V38.8076H26.8894V34.1003H30.7313V33.3572H26.8894V29.3935H30.661L30.6605 29.393ZM56.135 31.6472C56.135 29.9918 54.7697 28.6505 52.932 28.6505H48.3029V39.5522H49.7906V29.393H52.7305C53.8433 29.417 54.6587 30.4157 54.6587 31.6467C54.6587 32.8776 53.8433 33.8769 52.7305 33.9071H50.1597L51.2116 34.6439H52.0968L54.9352 39.5517H56.6427L53.6319 34.5752C55.1066 34.2836 56.1365 33.0838 56.1365 31.6472" fill="white"></path>
<path d="M66.7933 55.6295C69.1366 56.3486 71.6022 55.8081 73.8605 55.0181C75.5039 54.4485 77.3191 53.6612 78.9469 52.9905C84.0114 50.8686 90.0189 48.9481 95.1802 51.823C92.8688 51.1149 90.3969 50.9873 88.0224 51.4007C85.0695 51.8892 82.2149 53.0363 79.4041 54.1334C75.6091 55.5571 70.6873 57.7248 66.7933 55.6295Z" fill="white"></path>
<path d="M62.8029 53.9395C65.1461 54.6586 67.6117 54.1181 69.8695 53.3282C71.5129 52.7585 73.3281 51.9712 74.9559 51.3005C80.0204 49.1786 86.0279 47.2582 91.1893 50.1331C88.8778 49.4249 86.4065 49.2973 84.0315 49.7108C81.079 50.1992 78.2239 51.3464 75.4131 52.444C71.6181 53.8677 66.6963 56.0354 62.8024 53.94V53.939L62.8029 53.9395Z" fill="white"></path>
<path d="M58.8107 52.25C61.1539 52.9692 63.6195 52.4286 65.8774 51.6392C67.5207 51.0696 69.336 50.2823 70.9637 49.6116C76.0282 47.4896 82.0357 45.5692 87.1971 48.4441C84.8861 47.737 82.4143 47.6084 80.0398 48.0218C77.0868 48.5103 74.2317 49.6574 71.4209 50.7551C67.6259 52.1787 62.7041 54.3465 58.8102 52.2511V52.25H58.8107Z" fill="white"></path>
<path d="M54.818 50.5606C57.1612 51.2797 59.6268 50.7392 61.8852 49.9498C63.5286 49.3801 65.3438 48.5928 66.9715 47.9221C72.036 45.8002 78.0435 43.8798 83.2054 46.7547C80.8939 46.0475 78.4221 45.9189 76.0476 46.3324C73.0946 46.8208 70.2401 47.9679 67.4292 49.0656C63.6343 50.4893 58.7124 52.657 54.8185 50.5616V50.5606H54.818Z" fill="white"></path>
</g>
<defs>
<clipPath id="clip0_832_504">
<rect width="99.1956" height="28" fill="white" transform="translate(25.4022 28.5)"></rect>
</clipPath>
</defs>
</svg>