<svg width="150" height="85" viewBox="0 0 150 85" fill="none" xmlns="http://www.w3.org/2000/svg">
<g clip-path="url(#clip0_832_347)">
<path d="M49.9679 50.0032C49.7324 50.1892 49.6828 50.4991 49.8192 50.9331C49.9431 51.3174 50.2345 51.7946 50.6932 52.365C52.5404 54.6462 54.741 56.543 57.295 58.0556C59.8489 59.5681 62.5827 60.6839 65.4962 61.4029C68.422 62.1344 71.4098 62.5001 74.4596 62.5001C78.365 62.5001 82.0843 61.9299 85.6177 60.7892C89.151 59.661 92.1017 58.0741 94.4697 56.0285C95.3003 55.2971 95.7156 54.7144 95.7156 54.2804C95.7156 54.1192 95.6475 53.9581 95.5111 53.7969C95.3251 53.611 95.102 53.549 94.8416 53.611C94.5813 53.6729 94.2156 53.8279 93.7444 54.0759C91.4756 55.2661 88.711 56.2145 85.4503 56.9212C82.2021 57.6402 78.8113 57.9998 75.278 57.9998C70.9016 57.9998 66.6739 57.4047 62.595 56.2145C58.5162 55.0243 54.9022 53.1647 51.7532 50.6355C51.2945 50.276 50.9225 50.0466 50.6374 49.9474C50.3646 49.8482 50.1415 49.8669 49.9679 50.0032Z" fill="white"></path>
<path d="M91.2889 50.934C91.0286 51.182 90.9604 51.4423 91.0844 51.7151C91.1712 51.9135 91.3386 52.025 91.5866 52.0498C91.8345 52.087 92.1878 52.0622 92.6465 51.9755C93.3904 51.8143 94.1652 51.7027 94.9711 51.6407C95.777 51.5912 96.4775 51.6035 97.0725 51.6779C97.6677 51.7647 98.0396 51.9135 98.1884 52.1242C98.4116 52.459 98.3309 53.1656 97.9466 54.2443C97.5747 55.3228 97.0664 56.3704 96.4217 57.3871C96.1737 57.7961 96.025 58.1185 95.9753 58.3541C95.9258 58.5897 95.9878 58.788 96.1613 58.9492C96.2728 59.0607 96.3968 59.1165 96.5332 59.1165C96.8928 59.1165 97.4135 58.8004 98.0954 58.1681C99.3228 57.1019 100.184 55.8374 100.68 54.3744C100.953 53.6181 101.12 52.8247 101.182 51.994C101.244 51.1635 101.151 50.5683 100.903 50.2088C100.668 49.8616 100.147 49.5764 99.3413 49.3534C98.5479 49.1302 97.7482 49.0186 96.9424 49.0186C95.3678 49.0186 93.8739 49.3905 92.4606 50.1344C91.9399 50.4196 91.5494 50.6861 91.2889 50.934Z" fill="white"></path>
<path d="M50.5166 24.0018C50.546 23.8251 50.4871 23.6779 50.3398 23.5895C49.5152 23.2066 48.5433 23.0005 47.4536 23.0005C44.5084 23.0005 42.5646 24.9148 42.5646 27.7716V28.3901L40.2674 28.7436C40.0612 28.773 39.8845 28.9497 39.8845 29.1559V31.0408C39.8845 31.3058 40.0907 31.512 40.3557 31.512H42.5352V43.4694C42.5352 43.7344 42.7708 43.9406 43.0358 43.9406H46.0399C46.2755 43.9406 46.5111 43.7344 46.5111 43.4694V31.512H49.6625C49.9275 31.512 50.1631 31.3058 50.1631 31.0408V28.8614C50.1631 28.5963 49.9275 28.3901 49.6625 28.3901H46.5406V27.9778C46.5406 26.9176 47.1591 26.1813 48.1015 26.1813C48.5727 26.1813 49.044 26.358 49.5152 26.5936C49.6036 26.6525 49.6919 26.6819 49.7803 26.6819C49.957 26.6819 50.1042 26.5936 50.1337 26.4169L50.5166 24.0018Z" fill="white"></path>
<path d="M53.7108 22.5C54.9772 22.5 56.0375 23.3246 56.0375 24.7972C56.0375 26.2109 54.9772 27.065 53.7108 27.065C52.4738 27.065 51.4136 26.2109 51.4136 24.7972C51.4136 23.3246 52.4738 22.5 53.7108 22.5ZM51.7375 43.4401V28.8321C51.7375 28.567 51.9732 28.3903 52.2677 28.3903H55.2423C55.5073 28.3903 55.7135 28.567 55.7135 28.8321V43.4401C55.7135 43.7346 55.5073 43.9408 55.2423 43.9408H52.2677C51.9732 43.9408 51.7375 43.7346 51.7375 43.4401Z" fill="white"></path>
<path d="M66.4069 32.2189C66.7604 32.4251 67.1138 32.3367 67.1727 32.0422L67.9384 29.0087C67.9973 28.7731 67.8795 28.5375 67.6734 28.4491C67.1138 28.2135 66.4953 28.0957 65.8179 28.0957C64.1686 28.0957 62.7844 29.0676 62.1659 30.6874H62.0187L61.6358 28.832C61.5769 28.5375 61.4002 28.3902 61.1057 28.3902H58.7201C58.4256 28.3902 58.1899 28.5669 58.1899 28.832V43.44C58.1899 43.7345 58.4256 43.9407 58.7201 43.9407H61.6947C61.9598 43.9407 62.1659 43.7345 62.1659 43.44V34.8107C62.1659 32.808 62.9906 31.6888 64.4631 31.6888C65.1405 31.6888 65.8179 31.8655 66.4069 32.2189Z" fill="white"></path>
<path d="M74.5007 28.0371C78.2999 28.0371 80.9211 31.3651 80.9211 36.0479V36.8137C80.9211 37.1377 80.715 37.3144 80.4499 37.3144H71.8795C72.0562 39.8472 72.9103 41.1431 74.5007 41.1431C75.6493 41.1431 76.5623 40.6129 76.8863 39.1698C76.9452 38.8458 77.1219 38.728 77.4164 38.7869L80.2143 39.4054C80.5088 39.4643 80.6561 39.6705 80.5383 39.9945C79.5958 42.7629 77.4164 44.2649 74.5007 44.2649C70.4658 44.2649 67.7268 41.0253 67.7268 36.2541C67.7268 31.4829 70.5247 28.0371 74.5007 28.0371ZM76.8863 34.6932C76.6801 32.3665 75.8849 31.159 74.5007 31.159C73.1459 31.159 72.2035 32.4254 71.9089 34.6932H76.8863Z" fill="white"></path>
<path d="M96.4103 43.4991C96.587 43.3813 96.7342 43.0573 96.6753 42.7923L96.2925 40.7895C96.2336 40.4067 95.9096 40.2594 95.5267 40.4656C95.1144 40.6717 94.6432 40.819 94.2309 40.819C93.259 40.819 92.6405 40.1122 92.6405 39.0519V31.5417H95.7918C96.0569 31.5417 96.2925 31.3061 96.2925 31.0411V28.8911C96.2925 28.626 96.0569 28.3904 95.7918 28.3904H92.6405V25.1213C92.6405 24.8562 92.4049 24.6206 92.1398 24.6206H89.6364C89.3419 24.6206 89.1063 24.8562 89.0768 25.1213L88.6645 28.3904L86.544 28.8322C86.3084 28.8911 86.0728 29.1562 86.0728 29.3918V31.0411C86.0728 31.3061 86.3084 31.5417 86.544 31.5417H88.6645V38.6396C88.6645 42.2916 90.3432 44.2648 93.4946 44.2648C94.6432 44.2648 95.6445 43.9998 96.4103 43.4991Z" fill="white"></path>
<path d="M106.553 28.3901C106.317 28.3901 106.111 28.5668 106.052 28.8025L103.637 39.8468H103.431L101.016 28.8025C100.957 28.5668 100.751 28.3901 100.515 28.3901H97.5113C97.1284 28.3901 96.8633 28.6847 96.9811 29.0675L100.987 43.5577C101.045 43.7639 101.281 43.9406 101.517 43.9406H105.552C105.787 43.9406 106.023 43.7639 106.082 43.5577L110.087 29.0675C110.205 28.6847 109.94 28.3901 109.557 28.3901H106.553Z" fill="white"></path>
</g>
<defs>
<clipPath id="clip0_832_347">
<rect width="70.2309" height="40" fill="white" transform="translate(39.8845 22.5)"></rect>
</clipPath>
</defs>
</svg>