<svg width="150" height="85" viewBox="0 0 150 85" fill="none" xmlns="http://www.w3.org/2000/svg">
<path d="M125.029 36.6085H125.504C125.837 36.6085 126.122 36.561 126.122 36.1809C126.122 35.8483 125.79 35.7533 125.504 35.7533H125.029V36.6085ZM124.507 35.3257H125.6C126.312 35.3257 126.692 35.5632 126.692 36.1809C126.692 36.7035 126.407 36.9411 125.932 36.9886L126.74 38.2714H126.17L125.409 36.9886H125.077V38.2714H124.507V35.3257ZM127.5 36.846C127.5 35.6107 126.597 34.7555 125.504 34.7555C124.412 34.7555 123.509 35.6582 123.509 36.846C123.509 38.0813 124.412 38.9365 125.504 38.9365C126.597 38.9365 127.5 38.0813 127.5 36.846ZM122.891 36.846C122.891 35.4207 124.079 34.2329 125.504 34.2329C126.93 34.2329 128.118 35.4207 128.118 36.846C128.118 38.2714 126.93 39.4592 125.504 39.4592C124.032 39.4592 122.891 38.2714 122.891 36.846Z" fill="white"></path>
<path d="M21.8823 34.8984C22.7375 35.0409 22.69 34.4707 23.5927 34.2807C24.4479 34.1382 24.4954 34.8984 25.3982 34.8984C26.3009 34.8984 26.3009 34.2807 27.1561 34.2807C28.0588 34.2807 28.0588 34.8984 28.914 34.8984C29.8167 34.8984 29.8167 34.2807 30.6719 34.2807C31.5746 34.2807 31.5746 34.8984 32.4298 34.8984H44.0701V33.6631H33.9502H32.4298C31.9072 33.6631 31.2896 33.0454 30.6719 33.0454C30.0543 33.0454 29.4366 33.6631 28.914 33.6631C27.9163 33.6631 28.0113 33.0454 27.1561 33.0454C26.3009 33.0454 26.3009 33.6631 25.3982 33.6631C24.4954 33.6631 24.4954 33.0454 23.6402 33.0454C22.7375 33.0454 22.7375 33.473 21.8823 33.6155V34.8984Z" fill="white"></path>
<path d="M21.8823 38.0342C22.7375 38.1768 22.69 37.6066 23.5927 37.4166C24.4479 37.2741 24.4954 38.0342 25.3982 38.0342C26.3009 38.0342 26.3009 37.4166 27.1561 37.4166C28.0588 37.4166 28.0588 38.0342 28.914 38.0342C29.8167 38.0342 29.8167 37.4166 30.6719 37.4166C31.5746 37.4166 31.5746 38.0342 32.4298 38.0342H44.0701V36.7514H33.9502H32.4298C31.9072 36.7514 31.2896 36.1338 30.6719 36.1338C30.0543 36.1338 29.4366 36.7514 28.914 36.7514C27.9163 36.7514 28.0113 36.1338 27.1561 36.1338C26.3009 36.1338 26.3009 36.7514 25.3982 36.7514C24.4954 36.7514 24.4954 36.1338 23.6402 36.1338C22.7375 36.1338 22.785 36.5614 21.9298 36.7514V38.0342H21.8823Z" fill="white"></path>
<path d="M21.8823 41.2173C22.7375 41.3599 22.69 40.7897 23.5927 40.5997C24.4479 40.4572 24.4954 41.2173 25.3982 41.2173C26.3009 41.2173 26.3009 40.5997 27.1561 40.5997C28.0588 40.5997 28.0588 41.2173 28.914 41.2173C29.8167 41.2173 29.8167 40.5997 30.6719 40.5997C31.5746 40.5997 31.5746 41.2173 32.4298 41.2173H44.0701V39.9345H33.9502H32.4298C31.9072 39.9345 31.2896 39.3169 30.6719 39.3169C30.0543 39.3169 29.4366 39.9345 28.914 39.9345C27.9163 39.9345 28.0113 39.3169 27.1561 39.3169C26.3009 39.3169 26.3009 39.9345 25.3982 39.9345C24.4954 39.9345 24.4954 39.3169 23.6402 39.3169C22.7375 39.3169 22.785 39.7445 21.9298 39.9345V41.2173H21.8823Z" fill="white"></path>
<path d="M21.8823 44.3531C22.7375 44.4956 22.69 43.9255 23.5927 43.7354C24.4479 43.5929 24.4954 44.3531 25.3507 44.3531C26.2534 44.3531 26.2534 43.7354 27.1086 43.7354C28.0113 43.7354 28.0113 44.3531 28.8665 44.3531C29.7692 44.3531 29.7692 43.7354 30.6244 43.7354C31.5271 43.7354 31.5271 44.3531 32.3823 44.3531H44.0226V43.0703H33.9502H32.4298C31.9072 43.0703 31.2896 42.4526 30.6719 42.4526C30.0543 42.4526 29.4366 43.0703 28.914 43.0703C27.9163 43.0703 28.0113 42.4526 27.1561 42.4526C26.3009 42.4526 26.3009 43.0703 25.3982 43.0703C24.4954 43.0703 24.4954 42.4526 23.6402 42.4526C22.7375 42.4526 22.7375 42.9277 21.8823 43.0703V44.3531Z" fill="white"></path>
<path d="M21.8823 47.4888C22.7375 47.6314 22.69 47.0612 23.5927 46.8712C24.4479 46.7286 24.4954 47.4888 25.3982 47.4888C26.3009 47.4888 26.3009 46.8712 27.1561 46.8712C28.0588 46.8712 28.0588 47.4888 28.914 47.4888C29.8167 47.4888 29.8167 46.8712 30.6719 46.8712C31.5746 46.8712 31.5746 47.4888 32.4298 47.4888H44.0701V46.206H33.9502H32.4298C31.9072 46.206 31.2896 45.5884 30.6719 45.5884C30.0543 45.5884 29.4366 46.206 28.914 46.206C27.9163 46.206 28.0113 45.5884 27.1561 45.5884C26.3009 45.5884 26.3009 46.206 25.3982 46.206C24.4954 46.206 24.4954 45.5884 23.6402 45.5884C22.7375 45.5884 22.785 46.016 21.9298 46.206V47.4888H21.8823Z" fill="white"></path>
<path d="M59.3688 48.8665H51.767V32H53.4299V47.2511H59.3688V48.8665Z" fill="white"></path>
<path d="M73.052 43.0226H61.5543C61.6493 44.4005 62.1719 45.5407 63.0746 46.396C63.9774 47.2512 65.1176 47.6788 66.4479 47.6788C67.3982 47.6788 68.2534 47.4412 69.0136 46.9186C69.7737 46.4435 70.3914 45.7308 70.7715 44.8281H72.6244C72.0543 46.2534 71.1991 47.2987 70.1538 48.0588C69.1086 48.819 67.8733 49.1991 66.4479 49.1991C64.595 49.1991 63.0271 48.534 61.7443 47.2036C60.4615 45.8733 59.8439 44.3055 59.8439 42.4525C59.8439 40.5045 60.4615 38.8892 61.7443 37.6539C62.9796 36.3711 64.595 35.7534 66.543 35.7534C68.4434 35.7534 70.0113 36.4186 71.2466 37.7489C72.4344 39.0792 73.052 40.7896 73.052 42.8801V43.0226ZM71.2466 41.5973C70.914 40.172 70.3914 39.1267 69.5362 38.4141C68.7285 37.7014 67.6357 37.3213 66.3054 37.3213C65.0701 37.3213 64.0249 37.7014 63.1697 38.4616C62.3145 39.2217 61.7918 40.267 61.6018 41.5973H71.2466Z" fill="white"></path>
<path d="M76.0453 48.8665V37.7489H73.6222V36.1335H76.0453V32H77.6607V36.1335H80.0837V37.7964H77.6607V48.914H76.0453V48.8665Z" fill="white"></path>
<path d="M81.3665 36.1333H83.2669L87.2103 46.4908L91.3438 36.1333H93.2443L86.3551 52.9998H84.5972L86.3076 48.8663L81.3665 36.1333Z" fill="white"></path>
<path d="M96.0475 32V37.3213V38.2715C96.7126 37.4638 97.4728 36.8462 98.328 36.4186C99.1357 36.0385 100.038 35.8484 101.084 35.8484C102.889 35.8484 104.409 36.5136 105.645 37.7964C106.88 39.0792 107.498 40.6471 107.498 42.5C107.498 44.4005 106.88 46.0158 105.597 47.2986C104.314 48.5814 102.747 49.2466 100.846 49.2466C99.8959 49.2466 99.0407 49.0566 98.2805 48.6765C97.4728 48.2964 96.7601 47.7262 96.1425 46.9661V48.8665H94.5271V32H96.0475ZM96.0475 42.6425C96.0475 44.0204 96.5226 45.2081 97.4728 46.2059C98.423 47.2036 99.5633 47.7262 100.799 47.7262C102.176 47.7262 103.317 47.2036 104.314 46.2059C105.312 45.2081 105.74 43.9253 105.74 42.4525C105.74 41.0271 105.265 39.8394 104.314 38.8891C103.364 37.8914 102.224 37.4163 100.894 37.4163C99.5633 37.4163 98.423 37.9389 97.4728 38.9367C96.5226 39.9344 96.0475 41.1697 96.0475 42.6425Z" fill="white"></path>
<path d="M108.733 42.5002C108.733 40.6472 109.351 39.0318 110.633 37.7015C111.916 36.3712 113.437 35.7061 115.195 35.7061C117.048 35.7061 118.615 36.3712 119.898 37.654C121.181 38.9368 121.846 40.5047 121.846 42.3101C121.846 44.2106 121.229 45.826 119.946 47.1563C118.663 48.4866 117.143 49.1518 115.29 49.1518C113.437 49.1518 111.869 48.4866 110.586 47.1563C109.398 45.921 108.733 44.3531 108.733 42.5002ZM110.443 42.5002C110.443 43.973 110.919 45.2083 111.821 46.2061C112.771 47.2038 113.912 47.6789 115.29 47.6789C116.667 47.6789 117.808 47.2038 118.71 46.2061C119.661 45.2083 120.088 43.973 120.088 42.5002C120.088 40.9798 119.613 39.7445 118.663 38.7943C117.713 37.8441 116.525 37.3214 115.1 37.3214C113.817 37.3214 112.676 37.7966 111.774 38.7943C110.919 39.792 110.443 41.0273 110.443 42.5002Z" fill="white"></path>
</svg>