<svg width="150" height="85" viewBox="0 0 150 85" fill="none" xmlns="http://www.w3.org/2000/svg">
<g clip-path="url(#clip0_832_279)">
<path d="M75 18.5C61.7499 18.5 51 29.2499 51 42.5C51 55.7501 61.7499 66.5 75 66.5C88.2501 66.5 99 55.7501 99 42.5C99 29.2499 88.2501 18.5 75 18.5ZM75 19.4007C78.0335 19.3998 81.0375 19.9966 83.8402 21.157C86.643 22.3174 89.1897 24.0187 91.3348 26.1636C93.48 28.3085 95.1814 30.855 96.3421 33.6577C97.5028 36.4603 98.0999 39.4642 98.0993 42.4977C98.1008 45.5318 97.5043 48.5364 96.3441 51.3399C95.1838 54.1433 93.4824 56.6907 91.3372 58.8363C89.192 60.9819 86.645 62.6838 83.8418 63.8446C81.0386 65.0054 78.0341 65.6024 75 65.6015C71.9661 65.6024 68.9618 65.0055 66.1587 63.8448C63.3556 62.6841 60.8087 60.9825 58.6636 58.8371C56.5184 56.6917 54.817 54.1447 53.6566 51.3415C52.4962 48.5383 51.8995 45.5339 51.9007 42.5C51.8998 39.4665 52.4966 36.4625 53.657 33.6598C54.8174 30.857 56.5187 28.3103 58.6636 26.1652C60.8085 24.02 63.355 22.3186 66.1577 21.1579C68.9603 19.9972 71.9642 19.4001 74.9977 19.4007H75Z" fill="white"></path>
<path d="M86.621 37.8149C83.8825 37.8149 82.4508 38.9743 82.4508 40.7531C82.4508 41.3203 82.8025 42.1326 83.3947 42.516C84.4315 43.1876 85.3005 43.2874 86.4917 43.5778C87.1746 43.7457 87.9165 43.9386 87.9165 44.3742C87.9165 44.7372 87.5489 45.0072 86.5779 45.0072C84.6539 45.0072 84.275 43.993 84.275 43.993L81.811 44.8983C82.3328 46.5569 84.8853 47.1263 86.5756 47.1263C88.3839 47.1263 89.4276 46.7406 90.0923 46.1054C90.8252 45.4065 90.8978 44.7304 90.8978 44.0883C90.8978 43.5211 90.6754 42.7679 89.5864 42.1371C88.7923 41.6811 87.1905 41.3997 86.4917 41.2523C86.2285 41.1933 85.3822 41.0708 85.3822 40.5716C85.3822 40.1995 85.9108 39.9976 86.621 39.9976C88.0231 39.9976 88.2478 40.946 88.2478 40.946L90.7208 40.0362C90.3351 38.3005 88.3022 37.8149 86.621 37.8149ZM94.7934 37.8581L91.828 38.9471V46.7747H94.7957L94.7934 37.8581ZM55.1042 38.0214V46.7724H58.0719V45.1411C59.2068 44.7713 60.3236 44.3481 61.4185 43.8728C63.4922 42.929 63.5807 41.7469 63.5807 40.7645C63.5807 39.5461 62.6732 38.0214 60.1434 38.0214H58.0719H55.1042ZM64.4293 38.0214V46.7724H72.1434V44.617H67.3969V43.4576H71.1247V41.3044H67.3969V40.17H72.0594V38.0191L64.4293 38.0214ZM73.4298 38.0214V46.7724H76.3975V45.1411C77.5324 44.7713 78.6492 44.3481 79.7441 43.8728C81.8178 42.929 81.9063 41.7469 81.9063 40.7645C81.9063 39.5461 80.9987 38.0214 78.469 38.0214H76.3975H73.4298ZM58.0719 40.1723H59.5558C60.0549 40.1723 60.4701 40.5784 60.4701 41.0934C60.4701 41.706 60.2341 42.0328 59.3425 42.4048L58.0719 42.9085V40.1723ZM76.3975 40.1723H77.8813C78.3805 40.1723 78.7957 40.5784 78.7957 41.0934C78.7957 41.706 78.562 42.0328 77.6681 42.4048L76.3975 42.9085V40.1723Z" fill="white"></path>
<path d="M74.9998 21.0049C70.8065 21.0084 66.7057 22.2382 63.2025 24.5429C59.6993 26.8476 56.9466 30.1265 55.2834 33.976C55.3606 34.0032 59.5534 35.487 63.7871 35.487C70.4009 35.487 78.3305 32.7848 86.875 32.7848C91.2018 32.7848 94.4031 33.8557 94.7298 33.9691C93.0647 30.1189 90.3095 26.8399 86.8037 24.5363C83.2979 22.2327 79.1947 21.0051 74.9998 21.0049Z" fill="white"></path>
<path d="M75.0113 63.9997C79.2047 63.9969 83.3058 62.7676 86.8094 60.4633C90.3131 58.159 93.0662 54.8803 94.7299 51.0309C94.6528 51.0014 90.4577 49.5176 86.2262 49.5176C79.6125 49.5176 71.6828 52.2221 63.136 52.2221C58.8116 52.2221 55.6102 51.1512 55.2812 51.0377C56.9467 54.8876 59.7021 58.166 63.2079 60.4692C66.7136 62.7724 70.8166 63.9996 75.0113 63.9997Z" fill="white"></path>
</g>
<defs>
<clipPath id="clip0_832_279">
<rect width="48.0012" height="48" fill="white" transform="translate(50.9995 18.5)"></rect>
</clipPath>
</defs>
</svg>