<svg width="150" height="85" viewBox="0 0 150 85" fill="none" xmlns="http://www.w3.org/2000/svg">
<mask id="mask0_832_467" style="mask-type:luminance" maskUnits="userSpaceOnUse" x="45" y="16" width="60" height="53">
<path d="M104.573 16.5H45.428V68.5H104.573V16.5Z" fill="white"></path>
</mask>
<g mask="url(#mask0_832_467)">
<path d="M77.3907 36.354L83.0411 18.8071L81.1173 36.8511L89.754 22.0972L84.3097 38.1694L95.3087 26.1401L86.799 40.4634L99.6349 30.7573L88.6515 42.9692L102.703 35.7124L89.7404 45.6479L104.572 40.7964L90.8624 48.2163L104.325 45.9858L90.6613 50.6802L74.7745 52.0952L59.5568 50.769L45.4279 46.2261L59.6466 48.3491L46.0831 40.7964L61.2648 45.6479L47.9611 35.7124L62.3693 42.9692L51.0226 30.7573L64.213 40.4634L55.3527 26.1401L66.7052 38.1694L60.8986 22.0972L69.8751 36.8511L67.6144 18.8071L73.5499 36.354L75.3292 16.5005L77.3907 36.354ZM88.3273 46.6284V46.6294C88.2922 46.6366 88.2601 46.6474 88.2296 46.6597L88.1378 46.6968C88.0184 46.7388 87.8963 46.7778 87.7736 46.8179C87.73 46.8322 87.6845 46.8421 87.6378 46.8521C87.5916 46.8619 87.5437 46.8718 87.4982 46.8872C87.1134 47.0163 86.7268 47.1502 86.3439 47.2798C86.2734 47.303 86.2021 47.3211 86.13 47.3394L85.9142 47.4019C85.8387 47.4273 85.7485 47.4593 85.6583 47.4897L85.4015 47.5669C85.3874 47.57 85.3631 47.5716 85.3322 47.5718C85.3016 47.572 85.267 47.5712 85.2325 47.5708C85.1985 47.5704 85.1643 47.5697 85.1368 47.5718C85.1231 47.5728 85.1095 47.5751 85.0988 47.5776C85.0894 47.5798 85.0784 47.5832 85.0704 47.5903C85.0635 47.5962 85.0571 47.6044 85.0529 47.6089C85.048 47.6141 85.0441 47.6174 85.0402 47.6196L85.0216 47.6294L85.0304 47.647C85.0497 47.6874 85.0888 47.7183 85.1251 47.7446C85.1631 47.7721 85.1984 47.7955 85.2228 47.8218C85.2531 47.8546 85.2767 47.8952 85.3058 47.937C85.3338 47.9773 85.3665 48.018 85.4132 48.0425L85.4308 48.0513L85.4415 48.0347C85.4427 48.0328 85.4445 48.0306 85.4493 48.0269C85.4527 48.0242 85.4561 48.0191 85.4611 48.0142L85.465 48.0132L85.4777 48.0073V47.9946C85.4777 47.9834 85.4737 47.9731 85.4718 47.9663C85.4708 47.9626 85.4703 47.9597 85.4698 47.9575V47.9526C85.4704 47.9284 85.4846 47.8952 85.506 47.8618C85.5269 47.8293 85.5524 47.7996 85.5714 47.7817L85.6183 47.7476L85.6115 47.7271L85.6193 47.7476L85.6232 47.7446C85.7701 47.6498 85.8827 47.6078 85.9728 47.5884C86.0636 47.5688 86.1315 47.5722 86.1945 47.5688L86.2501 47.5728C86.3018 47.5839 86.3426 47.6164 86.3829 47.6636C86.41 47.6953 86.4364 47.7329 86.465 47.7739C86.4933 47.8145 86.5242 47.858 86.5597 47.9009C86.6148 47.9674 86.6854 48.0519 86.7462 48.1411C86.8071 48.2306 86.8569 48.3227 86.8712 48.4058L86.8673 48.4595C86.8626 48.4781 86.8543 48.4973 86.8439 48.5161C86.8336 48.5346 86.8208 48.5522 86.8077 48.5688L86.7677 48.6147C86.7426 48.639 86.7133 48.6563 86.6857 48.6714C86.6721 48.6788 86.6574 48.6861 86.6456 48.6929C86.6342 48.6995 86.6232 48.7071 86.6144 48.7153C86.5975 48.7304 86.5884 48.7487 86.5861 48.7681C86.5838 48.7868 86.5881 48.8052 86.5948 48.8218C86.6081 48.8542 86.6338 48.8839 86.6544 48.9038V48.9048C86.6729 48.9243 86.7036 48.9507 86.7365 48.9663C86.7687 48.9815 86.8109 48.9892 86.8439 48.9575L86.8654 48.9321C86.8727 48.9215 86.8807 48.9083 86.8888 48.894C86.9049 48.8656 86.9218 48.8306 86.9376 48.7954C86.9535 48.7601 86.9683 48.7239 86.9786 48.6929C86.9838 48.6774 86.9885 48.6626 86.9913 48.6499L86.9943 48.6157C86.9944 48.6081 86.9933 48.6009 86.9923 48.5962C86.9914 48.5917 86.9906 48.5888 86.9904 48.5864C86.9923 48.5673 86.9967 48.5472 87.0011 48.5249C87.0055 48.503 87.0097 48.4789 87.0118 48.4546C87.0304 48.2643 87.0022 48.1106 86.9337 47.9272V47.9263C86.9006 47.8427 86.8876 47.8129 86.8683 47.7876C86.859 47.7755 86.8484 47.7638 86.8341 47.7485C86.8192 47.7326 86.798 47.7107 86.7697 47.6763C86.6986 47.5868 86.6549 47.5253 86.6349 47.481C86.6252 47.4594 86.6221 47.4439 86.6232 47.4321C86.6243 47.4211 86.6288 47.4103 86.6398 47.3999C86.6514 47.389 86.6697 47.3784 86.6954 47.3667C86.7209 47.3551 86.7526 47.3431 86.7911 47.3296C86.8682 47.3026 86.9721 47.2695 87.0997 47.2202L87.1183 47.2124L87.298 47.1675L87.299 47.1685C87.3606 47.1483 87.4225 47.1233 87.4825 47.1011C87.5428 47.0788 87.6028 47.0577 87.6652 47.0444C87.6871 47.0407 87.7104 47.0361 87.7325 47.0366C87.754 47.0371 87.771 47.0432 87.7833 47.0571L87.7843 47.0581C87.8002 47.0747 87.805 47.0873 87.8058 47.1001L87.797 47.1597C87.7841 47.2225 87.7599 47.2802 87.7306 47.3374C87.7159 47.366 87.6997 47.3945 87.6837 47.4233C87.6678 47.4522 87.652 47.4821 87.6368 47.5122L87.6359 47.5132C87.6273 47.5329 87.6229 47.5542 87.6183 47.5728C87.6135 47.592 87.6085 47.6088 87.6017 47.6235L87.4493 47.9419C87.4399 47.9649 87.4333 47.9899 87.4269 48.0122C87.4203 48.0349 87.4133 48.0553 87.4044 48.0737C87.3827 48.1167 87.3556 48.1571 87.3273 48.1987C87.2993 48.2399 87.2704 48.2827 87.2491 48.3306C87.2365 48.3593 87.2283 48.3886 87.2218 48.4165C87.2152 48.4449 87.2106 48.4711 87.2032 48.4966C87.1837 48.556 87.1572 48.6133 87.129 48.6704C87.1011 48.727 87.0711 48.7846 87.045 48.8433C87.0266 48.8842 87.011 48.9302 86.9952 48.9702C86.9789 49.0117 86.9611 49.0502 86.9347 49.0815L86.9327 49.0835C86.9269 49.0921 86.9194 49.1049 86.9132 49.1147C86.9063 49.1258 86.8997 49.1352 86.8937 49.1411C86.871 49.1617 86.8386 49.1827 86.8048 49.1968C86.7709 49.2108 86.7377 49.2176 86.7111 49.2124L86.7101 49.2114C86.7067 49.2107 86.7023 49.2093 86.6964 49.2065C86.6912 49.2041 86.6828 49.2006 86.6759 49.1978C86.6612 49.1918 86.6387 49.1849 86.6173 49.2007L86.6163 49.2026C86.6121 49.2064 86.6082 49.21 86.6056 49.2134C86.6022 49.2177 86.6014 49.2199 86.5988 49.2231C86.5949 49.2279 86.5924 49.2301 86.59 49.231L86.5607 49.2397L86.5792 49.2632C86.6258 49.3246 86.6843 49.3744 86.7423 49.4214C86.8005 49.4685 86.8582 49.5125 86.9073 49.5649V49.5659C86.9478 49.61 86.9798 49.6637 87.0157 49.7183C87.051 49.7718 87.0904 49.826 87.1437 49.8657L87.1525 49.8726L87.1632 49.8696C87.1704 49.8672 87.1754 49.8676 87.1876 49.8667C87.1992 49.8658 87.2136 49.8633 87.2277 49.8511V49.8501C87.2412 49.8375 87.2467 49.8177 87.2491 49.8003C87.2517 49.7818 87.2517 49.7599 87.2511 49.7388C87.2505 49.7174 87.2492 49.6946 87.2482 49.6753C87.2471 49.6564 87.2465 49.6407 87.2472 49.6294C87.2534 49.596 87.2801 49.5241 87.3107 49.4458C87.3408 49.3686 87.3745 49.286 87.3927 49.2368L87.3917 49.2358C87.4859 49.0113 87.5931 48.7917 87.6925 48.5669C87.73 48.481 87.7638 48.3951 87.797 48.3101C87.8302 48.2249 87.8633 48.1402 87.8995 48.0562C87.9243 47.999 87.9528 47.9434 87.9816 47.8872C88.0102 47.8314 88.0392 47.7745 88.0646 47.7153L88.2052 47.3647C88.2507 47.2482 88.2969 47.1327 88.3488 47.021C88.3577 47.0017 88.3719 46.9757 88.3888 46.9448C88.4054 46.9144 88.424 46.88 88.4386 46.8452C88.4531 46.8107 88.4644 46.7746 88.4669 46.7407C88.4694 46.7065 88.4633 46.6716 88.4386 46.645L88.4357 46.6431L88.4279 46.6353L88.4259 46.6343L88.3976 46.6216C88.389 46.6192 88.3808 46.618 88.3722 46.6187L88.3273 46.6284ZM63.0109 46.2661C62.9636 46.2743 62.9211 46.2947 62.882 46.3179C62.8625 46.3294 62.8431 46.3419 62.8243 46.354L62.7677 46.3892C62.7222 46.4137 62.6876 46.4226 62.6486 46.438C62.6293 46.4456 62.6102 46.4546 62.5909 46.4673L62.5304 46.52L62.5294 46.522C62.509 46.5501 62.4863 46.5798 62.4611 46.6079C62.3481 46.731 62.2352 46.8499 62.132 46.979C62.066 47.0617 61.9963 47.1452 61.923 47.2251C61.8529 47.3018 61.7772 47.3793 61.6984 47.4536L61.507 47.6353C61.4894 47.6545 61.4586 47.6865 61.4406 47.7202C61.4316 47.7371 61.4244 47.7567 61.4249 47.7769C61.4256 47.7981 61.4346 47.8188 61.4532 47.8354V47.8345C61.4657 47.8461 61.4796 47.8535 61.4943 47.856C61.5087 47.8583 61.5229 47.8566 61.5353 47.8521C61.5598 47.843 61.5817 47.8238 61.5968 47.8071L61.6359 47.7632C61.6483 47.7488 61.6606 47.7347 61.674 47.7222C61.7255 47.6768 61.7711 47.6599 61.8156 47.6626C61.8612 47.6655 61.9105 47.689 61.9679 47.731L62.1984 47.9272C62.2681 47.9906 62.3362 48.0565 62.4044 48.1226C62.4727 48.1886 62.5418 48.2554 62.6124 48.3198L63.3517 48.9946C63.475 49.1073 63.6183 49.2387 63.7335 49.3589L63.7345 49.3599C63.7505 49.3748 63.7635 49.3855 63.7775 49.3989C63.7901 49.4112 63.8005 49.4233 63.8077 49.436L63.8195 49.4702C63.8262 49.5064 63.8176 49.5483 63.8019 49.5933C63.7916 49.6227 63.7787 49.6527 63.7657 49.6812C63.753 49.7093 63.7405 49.7376 63.7316 49.7622L63.7267 49.7759L63.7374 49.7856L63.755 49.8013C63.7575 49.8038 63.7604 49.8059 63.7618 49.8071L63.7628 49.8081L63.7755 49.8267L63.7931 49.812C63.8594 49.758 63.9118 49.6914 63.9611 49.6245C64.0106 49.5571 64.0569 49.4896 64.1124 49.4292H64.1134C64.1734 49.3625 64.2429 49.3031 64.3126 49.2407C64.3818 49.1788 64.4509 49.1139 64.507 49.0376L64.5197 49.02L64.5031 49.0073C64.4973 49.003 64.4947 49.0015 64.4913 48.9985C64.4876 48.9948 64.4843 48.9904 64.4806 48.9858C64.4768 48.9811 64.4719 48.9743 64.4669 48.9692L64.4552 48.9575L64.4406 48.9663C64.3932 48.9971 64.3261 49.0475 64.257 49.0786C64.1869 49.1101 64.1252 49.1176 64.0822 49.0786C64.0461 49.0452 64.0032 49.0082 63.9611 48.9722C63.9189 48.9362 63.8771 48.9004 63.8419 48.8677C63.3751 48.4429 62.91 48.0227 62.4493 47.5972C62.4013 47.5527 62.3555 47.5113 62.3068 47.4722H62.3077C62.2889 47.4527 62.2666 47.4303 62.2472 47.4058C62.2275 47.3808 62.211 47.3547 62.2042 47.3296H62.2052L62.2042 47.3276L62.2003 47.2915C62.2015 47.2772 62.2051 47.2607 62.2111 47.2427C62.2228 47.2074 62.2429 47.1682 62.2667 47.1294C62.3143 47.0519 62.3755 46.9779 62.4093 46.9409C62.5325 46.8058 62.6876 46.7053 62.8468 46.6724C63.0052 46.6397 63.1694 46.6733 63.3146 46.8062C63.4245 46.9055 63.4896 46.9909 63.5226 47.0845C63.5554 47.1777 63.5576 47.2822 63.5382 47.4224C63.5335 47.4434 63.533 47.466 63.5314 47.4849C63.5297 47.5045 63.5268 47.5229 63.5206 47.5396C63.5083 47.5724 63.4872 47.6025 63.464 47.6323C63.4413 47.6615 63.4152 47.6929 63.3966 47.7231C63.3777 47.754 63.3642 47.7881 63.3693 47.8267C63.3744 47.8652 63.3974 47.9041 63.4415 47.9448L63.5109 47.9985C63.5369 48.0161 63.5662 48.0326 63.5909 48.0405H63.5919C63.6204 48.0485 63.6483 48.0501 63.6749 48.0493C63.7024 48.0485 63.7255 48.0461 63.7511 48.0464C63.7787 48.0489 63.8069 48.0535 63.8361 48.0591C63.8644 48.0645 63.8941 48.0696 63.924 48.0728V48.0737C63.9627 48.0792 64.0028 48.0797 64.0411 48.0796C64.0797 48.0795 64.1172 48.0788 64.1544 48.0825L64.4679 48.1274C64.573 48.1443 64.6792 48.1622 64.7863 48.1753C64.8282 48.1807 64.8701 48.181 64.9103 48.1812C64.9509 48.1813 64.9901 48.1809 65.0284 48.186C65.0426 48.188 65.0572 48.1922 65.0724 48.1958C65.0872 48.1993 65.1035 48.2025 65.1193 48.2056C65.151 48.2118 65.1859 48.2158 65.2208 48.2046C65.2359 48.1997 65.2523 48.1889 65.2677 48.1772C65.2835 48.1653 65.3007 48.1503 65.3165 48.1353C65.3477 48.1056 65.3765 48.0725 65.3937 48.0532L65.3947 48.0542C65.461 47.9869 65.5234 47.9113 65.5792 47.8345L65.5909 47.8188L65.5763 47.8062C65.5751 47.805 65.5747 47.8037 65.5743 47.8032C65.5745 47.8022 65.5748 47.8007 65.5753 47.7983L65.5792 47.7827L65.5646 47.7749C65.5569 47.7707 65.5473 47.7669 65.5411 47.7642C65.5343 47.761 65.5291 47.7583 65.5255 47.7554L65.5177 47.7485L65.5079 47.7505C65.4632 47.759 65.4158 47.7729 65.3722 47.7827C65.3272 47.7929 65.2828 47.8003 65.2374 47.7983C65.2004 47.7976 65.1619 47.7924 65.1232 47.7866C65.085 47.7809 65.045 47.7747 65.006 47.771C64.9685 47.7671 64.9318 47.7667 64.8966 47.7671C64.8608 47.7675 64.8262 47.7689 64.7921 47.7661C64.7224 47.7601 64.6519 47.7501 64.5802 47.7407C64.5088 47.7314 64.4362 47.7221 64.3634 47.7173H64.3644C64.3337 47.7142 64.3032 47.7153 64.2745 47.7163C64.2454 47.7173 64.2175 47.7187 64.1896 47.7163C64.1467 47.7132 64.1038 47.7061 64.0607 47.6987C64.0178 47.6914 63.9734 47.6834 63.9298 47.6782H63.8732C63.8546 47.6791 63.8372 47.68 63.8195 47.6802C63.7844 47.6806 63.7531 47.6773 63.7257 47.6616L63.7091 47.645L63.6788 47.6069C63.6713 47.5933 63.6669 47.5789 63.6671 47.5659C63.6687 47.5431 63.6788 47.5168 63.6925 47.4888C63.7053 47.4627 63.7225 47.433 63.7325 47.4067C63.7812 47.2944 63.8182 47.1355 63.8224 47.0142C63.8239 46.9837 63.8173 46.9565 63.8107 46.9321C63.8041 46.908 63.7968 46.8872 63.7941 46.8647C63.7945 46.8641 63.7954 46.8631 63.796 46.8618C63.7983 46.8572 63.8029 46.8488 63.8029 46.8384V46.8364C63.7978 46.7941 63.7711 46.7244 63.7413 46.6606C63.7264 46.6286 63.7092 46.5966 63.6935 46.5688L63.6505 46.5015C63.6323 46.478 63.6106 46.4585 63.5909 46.4409C63.4484 46.31 63.2058 46.2312 63.0109 46.2661ZM65.2365 44.1763C65.2342 44.1778 65.2315 44.1787 65.2306 44.1792V44.1802L65.2394 44.1997L65.2286 44.1782L65.2228 44.186C65.2084 44.2047 65.2013 44.2207 65.2003 44.2378C65.2 44.2452 65.2006 44.2528 65.2013 44.2593C65.2021 44.2662 65.2037 44.2736 65.2042 44.2817V44.2827C65.2066 44.318 65.2135 44.3516 65.2218 44.3833C65.2303 44.4157 65.2401 44.4467 65.2462 44.479L65.3175 44.8569C65.3262 44.9023 65.3304 44.9491 65.3341 44.9966C65.3377 45.0437 65.3416 45.0924 65.3507 45.1401C65.4264 45.5365 65.5089 45.9398 65.5851 46.3364C65.5986 46.4094 65.6066 46.4832 65.6154 46.5571C65.624 46.6303 65.6334 46.7042 65.6486 46.7769V46.7778C65.6781 46.9339 65.7279 47.1534 65.7433 47.3091C65.7445 47.323 65.7424 47.3477 65.7384 47.3784C65.7344 47.4086 65.7288 47.443 65.7238 47.4771C65.7188 47.5108 65.7146 47.5451 65.713 47.5728C65.7122 47.5863 65.7119 47.5999 65.713 47.6108C65.714 47.6203 65.717 47.6313 65.7228 47.6401V47.6411C65.7274 47.6481 65.7336 47.6558 65.7374 47.6606C65.7417 47.6661 65.7453 47.6708 65.7472 47.6753L65.754 47.6938L65.7736 47.688C65.8163 47.6745 65.8521 47.6404 65.8829 47.6079C65.9155 47.5737 65.9434 47.5413 65.9728 47.521V47.52C66.0092 47.4943 66.0527 47.4768 66.0978 47.4536C66.1414 47.4312 66.1853 47.4036 66.2159 47.3608L66.2277 47.3442L66.212 47.3315C66.2104 47.3301 66.2086 47.3278 66.2062 47.3237C66.2038 47.3197 66.1992 47.3111 66.1945 47.3042H66.1935L66.1915 47.3003L66.1866 47.2935L66.1779 47.2925H66.1486C66.1447 47.293 66.1422 47.2933 66.1398 47.2935H66.1359C66.112 47.2892 66.0814 47.2702 66.0509 47.2446L65.9786 47.1694C65.9653 47.149 65.9549 47.1342 65.9513 47.1187H65.9523L65.9503 47.1147L65.9025 47.0024C65.8633 46.8984 65.8473 46.8146 65.8419 46.7456C65.8348 46.6531 65.8466 46.5862 65.8517 46.5239C65.8569 46.4439 65.9014 46.3941 65.9708 46.3491C66.0059 46.3264 66.0466 46.3047 66.0909 46.2817C66.1348 46.259 66.1817 46.2341 66.2286 46.2046L66.2296 46.2056C66.3029 46.1606 66.3957 46.1015 66.4923 46.0532C66.5894 46.0048 66.6879 45.9683 66.7716 45.9653C66.807 45.9645 66.8432 45.9801 66.8771 46.0054C66.9103 46.0303 66.9408 46.0629 66.964 46.0923V46.0933C66.9849 46.1226 66.9992 46.1546 67.0109 46.1841C67.0165 46.1984 67.0213 46.2136 67.0265 46.2261C67.0317 46.2384 67.038 46.2504 67.045 46.2603C67.058 46.2786 67.0751 46.2896 67.0939 46.2944C67.1121 46.2991 67.1312 46.2979 67.1486 46.2935C67.1827 46.2847 67.216 46.2638 67.2384 46.2456L67.2374 46.2446C67.2593 46.2291 67.29 46.2036 67.3097 46.1733C67.3292 46.1431 67.3426 46.1015 67.3156 46.064C67.3054 46.05 67.283 46.031 67.2579 46.0122C67.2319 45.9927 67.1997 45.971 67.1671 45.9507C67.1345 45.9303 67.1006 45.9105 67.0714 45.896C67.0569 45.8888 67.0425 45.883 67.0304 45.8784C67.0196 45.8744 67.0086 45.8707 66.9991 45.8696H66.9669C66.9477 45.8648 66.9278 45.8583 66.9064 45.8511C66.8853 45.844 66.8627 45.8363 66.839 45.8306C66.6995 45.7977 66.5769 45.7945 66.4435 45.813L66.3048 45.8384C66.2176 45.8603 66.1859 45.8688 66.1583 45.8843C66.145 45.8918 66.1324 45.9017 66.1154 45.9136C66.0977 45.9259 66.0729 45.9424 66.0353 45.9653C65.9368 46.024 65.8701 46.0597 65.8234 46.0737C65.8004 46.0806 65.7842 46.0814 65.7726 46.0786C65.762 46.076 65.7529 46.07 65.7443 46.0581C65.7351 46.0452 65.726 46.0254 65.7179 45.9985C65.7099 45.9719 65.7026 45.9387 65.6945 45.8989C65.6782 45.819 65.6595 45.7113 65.6281 45.5786L65.6202 45.5474C65.6174 45.5253 65.6138 45.5028 65.6124 45.48L65.6017 45.3745C65.5901 45.3109 65.5738 45.2465 65.5597 45.1841L65.5275 44.9956C65.527 44.9737 65.5259 44.9502 65.5294 44.9282C65.5329 44.9068 65.541 44.8895 65.5568 44.8784C65.5752 44.8653 65.5885 44.8626 65.6017 44.8638C65.6173 44.8652 65.6334 44.8716 65.6603 44.8804C65.721 44.9014 65.7753 44.9336 65.8282 44.9702C65.8546 44.9884 65.8809 45.0073 65.9073 45.0269C65.9339 45.0464 65.9613 45.0664 65.9894 45.0854V45.0864C66.0071 45.0979 66.0271 45.1057 66.045 45.1128C66.0636 45.1201 66.0805 45.1266 66.0958 45.1353C66.1907 45.1984 66.2867 45.2716 66.3888 45.3276L66.5138 45.3901V45.3911C66.5534 45.4189 66.5896 45.4513 66.6271 45.4849C66.6642 45.5181 66.7031 45.5526 66.7472 45.5806L66.8292 45.6177C66.8565 45.6279 66.8822 45.637 66.9054 45.6479C66.9618 45.675 67.0149 45.7085 67.0675 45.7437C67.1199 45.7788 67.1735 45.8163 67.2277 45.8491C67.266 45.8726 67.3105 45.8944 67.3478 45.9155C67.3865 45.9375 67.4221 45.961 67.4503 45.9917L67.4493 45.9927L67.4513 45.9937C67.4588 46.0002 67.4718 46.0097 67.4806 46.0171C67.4905 46.0254 67.4988 46.0335 67.504 46.0405C67.5215 46.0652 67.5377 46.1001 67.547 46.1353C67.5563 46.1707 67.5579 46.2052 67.549 46.231V46.2319C67.5481 46.2349 67.5455 46.2392 67.5421 46.2446C67.5394 46.249 67.5339 46.2572 67.5304 46.2632C67.5225 46.2769 67.5136 46.2983 67.5255 46.3218L67.5275 46.3247C67.5307 46.3292 67.5342 46.3334 67.5372 46.3364C67.5406 46.3398 67.5436 46.3417 67.546 46.3442C67.55 46.3485 67.5514 46.3515 67.5519 46.354L67.5568 46.3833L67.5831 46.3687C67.6505 46.3308 67.7077 46.2794 67.7618 46.228C67.8165 46.1762 67.868 46.1244 67.9269 46.0835H67.9279C67.9767 46.0489 68.0339 46.024 68.0929 45.9956C68.1506 45.9678 68.2098 45.9364 68.257 45.8882L68.2657 45.8794L68.2628 45.8677C68.2614 45.862 68.2613 45.8567 68.2618 45.8452C68.2624 45.8347 68.2628 45.8198 68.2531 45.8052L68.2521 45.8042C68.2412 45.7895 68.2221 45.7816 68.2052 45.7769C68.187 45.7717 68.1649 45.7684 68.1437 45.7661C68.1225 45.7638 68.1004 45.7618 68.0812 45.7603C68.0622 45.7587 68.0464 45.7575 68.0353 45.7554H68.0363C68.0041 45.7445 67.9355 45.7085 67.8615 45.6675C67.7886 45.6271 67.711 45.5827 67.6652 45.5581H67.6661L67.0402 45.1714C66.9603 45.1226 66.8797 45.0779 66.7999 45.0337C66.7199 44.9894 66.6393 44.9453 66.5607 44.8989C66.508 44.8665 66.457 44.8306 66.4054 44.7944C66.3537 44.7582 66.3011 44.721 66.2462 44.688C66.1383 44.6234 66.0272 44.5632 65.9181 44.5024L65.5968 44.313C65.5788 44.302 65.5548 44.2847 65.5265 44.2642C65.4986 44.2439 65.4662 44.2207 65.4337 44.2017C65.4015 44.1828 65.3671 44.1667 65.3341 44.1597C65.3007 44.1526 65.2659 44.1556 65.2365 44.1763ZM84.7599 43.5884C84.7274 43.5837 84.6921 43.5925 84.6671 43.6265V43.6274C84.6574 43.6414 84.6525 43.6597 84.6534 43.6763C84.6545 43.6925 84.6621 43.7097 84.6779 43.7212V43.7222C84.7028 43.7403 84.7491 43.7764 84.7911 43.814C84.8119 43.8326 84.8313 43.852 84.8468 43.8696C84.8624 43.8874 84.8732 43.9021 84.8771 43.9126L84.8829 43.9741L84.8732 44.0396C84.8678 44.0569 84.8543 44.0838 84.8361 44.1157C84.8181 44.1472 84.796 44.1836 84.7726 44.2192C84.7257 44.2906 84.6749 44.3615 84.6486 44.3979C84.6304 44.4247 84.5864 44.4867 84.5411 44.5454C84.5186 44.5747 84.4952 44.6033 84.4747 44.6265C84.4538 44.6501 84.4364 44.6665 84.4259 44.6733C84.4026 44.6862 84.3827 44.6885 84.3644 44.6851C84.345 44.6813 84.3248 44.6707 84.3019 44.6548C84.2833 44.6418 84.2644 44.6269 84.2452 44.6108C84.2263 44.595 84.2059 44.5774 84.1847 44.562C84.1552 44.5409 84.1317 44.5265 84.1056 44.522C84.0791 44.5175 84.0522 44.5236 84.0177 44.5347L84.0021 44.5396L84.0031 44.5562C84.0032 44.5583 84.0022 44.5626 84.0001 44.5698C83.9984 44.5759 83.9953 44.5868 83.9933 44.5952C83.9912 44.604 83.9895 44.6153 83.9913 44.6265C83.9935 44.6387 84.0001 44.6502 84.0118 44.6587V44.6577C84.0154 44.6606 84.0188 44.6638 84.0226 44.6655C84.0256 44.6669 84.0284 44.6671 84.0304 44.6675C84.0498 44.6862 84.0718 44.7054 84.0919 44.7241L84.0929 44.7251C84.1244 44.7525 84.156 44.778 84.1788 44.8071C84.2009 44.8353 84.2133 44.866 84.2072 44.9028C84.2026 44.9289 84.1894 44.9569 84.173 44.9858C84.1574 45.0133 84.1365 45.0448 84.1222 45.0728C84.106 45.0966 84.0946 45.1225 84.0851 45.147L84.0538 45.2202C84.022 45.2804 83.9813 45.3364 83.9406 45.394C83.8979 45.4537 83.8542 45.512 83.8107 45.5698C83.7672 45.6277 83.7234 45.686 83.6818 45.7446C83.6586 45.7768 83.6371 45.8107 83.6163 45.8433C83.5955 45.8759 83.5746 45.9081 83.5529 45.939C83.5186 45.9871 83.4756 46.0377 83.4269 46.0767C83.3779 46.1157 83.3235 46.1415 83.2667 46.145C83.2606 46.1449 83.253 46.1455 83.2443 46.144C83.2356 46.1426 83.2241 46.1397 83.214 46.1382C83.1939 46.1353 83.1676 46.1337 83.1456 46.145L83.1437 46.146C83.1326 46.1536 83.1239 46.1651 83.1173 46.1733C83.11 46.1825 83.1043 46.1891 83.0988 46.1938L83.087 46.2036L83.0929 46.2183C83.0972 46.2283 83.0993 46.2361 83.1007 46.2417C83.1018 46.246 83.1035 46.2543 83.1056 46.2603C83.1115 46.2761 83.1243 46.2869 83.1476 46.3032V46.3042L83.1505 46.3052C83.1785 46.3204 83.2045 46.3339 83.2277 46.3511L84.6241 47.3442V47.3433C84.6467 47.3606 84.6719 47.383 84.6974 47.4019H84.6984C84.7258 47.4215 84.7558 47.4341 84.7863 47.436C84.8169 47.4379 84.8466 47.4287 84.8741 47.4097C84.9084 47.386 84.9393 47.3537 84.9669 47.3208C84.9808 47.3043 84.9952 47.2872 85.0079 47.271C85.0208 47.2547 85.033 47.2385 85.045 47.2241L85.046 47.2231C85.1187 47.1286 85.2051 47.0338 85.296 46.9526L85.3087 46.9409L85.3009 46.9263C85.2987 46.922 85.2978 46.9189 85.298 46.9165L85.3077 46.8823L85.2872 46.8765L85.2638 46.8628L85.2609 46.8608H85.2599C85.2592 46.8604 85.2578 46.8596 85.257 46.8589L85.2501 46.853L85.2413 46.854C85.1624 46.8639 85.1039 46.9125 85.0529 46.9624C85.0004 47.0138 84.956 47.0658 84.9005 47.0962C84.8961 47.0984 84.8911 47.1001 84.8849 47.1011C84.8818 47.1015 84.8786 47.1017 84.8751 47.1021C84.8717 47.1024 84.8673 47.1025 84.8634 47.103C84.8556 47.1041 84.8461 47.1069 84.837 47.1118C84.8317 47.1148 84.8276 47.1197 84.8234 47.1245C84.8041 47.1278 84.7747 47.1281 84.7433 47.1235C84.7102 47.1187 84.6778 47.11 84.6593 47.103H84.6583C84.5685 47.0661 84.4917 47.0078 84.4083 46.9526L84.4073 46.9517L84.256 46.856C84.2065 46.8226 84.1572 46.7881 84.1085 46.7534C84.0632 46.7213 84.0189 46.686 83.9747 46.6509C83.9307 46.6158 83.8853 46.5798 83.839 46.5464H83.84L83.837 46.5454L83.8302 46.5415C83.8194 46.5327 83.8064 46.5262 83.797 46.521L83.7736 46.5054C83.7386 46.4655 83.731 46.4279 83.7374 46.3921C83.7443 46.3545 83.7666 46.3155 83.796 46.2749L83.8575 46.1948C83.8785 46.1687 83.9002 46.1419 83.92 46.1147L84.2609 45.6353C84.2835 45.6035 84.3057 45.5686 84.3273 45.5366C84.3493 45.504 84.3718 45.4725 84.3966 45.4448L84.4366 45.4067C84.4508 45.3948 84.4666 45.3815 84.4806 45.3657L84.4796 45.3647C84.4923 45.3521 84.5085 45.3357 84.5236 45.3179C84.5392 45.2993 84.5563 45.2796 84.5734 45.2612C84.5905 45.2427 84.6078 45.2255 84.6241 45.2134C84.6406 45.2013 84.6544 45.1948 84.6652 45.1938V45.1968L84.6671 45.1948L84.6691 45.1958C84.6718 45.1974 84.6755 45.1991 84.6798 45.2007L84.6837 45.2017C84.7479 45.2119 84.7691 45.2218 84.7863 45.2329C84.8057 45.2456 84.8258 45.2641 84.882 45.2866H84.8829C84.8999 45.2925 84.917 45.2932 84.9318 45.2925C84.9481 45.2917 84.9598 45.2901 84.9728 45.2905H84.9865L84.9923 45.2778C85.0026 45.2568 85.0145 45.2396 85.0265 45.2173L85.0323 45.2056L85.0245 45.1938C84.9923 45.1519 84.9522 45.1203 84.9152 45.0933C84.8772 45.0656 84.8436 45.0436 84.8185 45.019C84.7944 44.9954 84.7805 44.9715 84.7804 44.9419C84.7805 44.9109 84.7952 44.8685 84.837 44.8091L84.9357 44.6782L84.9366 44.6792C84.9987 44.5989 85.0526 44.5156 85.1075 44.437L85.1085 44.436C85.1328 44.3951 85.168 44.3441 85.2091 44.3052C85.2505 44.2662 85.2954 44.2408 85.34 44.2427C85.3747 44.2448 85.4068 44.2623 85.4406 44.2847C85.4725 44.3059 85.5088 44.3336 85.545 44.3501V44.3511H85.548C85.5654 44.3566 85.5829 44.3568 85.5978 44.356C85.6139 44.355 85.6253 44.3537 85.6378 44.354H85.6515L85.6573 44.3423C85.6621 44.3329 85.6676 44.3232 85.674 44.313C85.6801 44.3031 85.687 44.2919 85.6925 44.2798L85.6984 44.2681L85.6906 44.2583C85.6562 44.2139 85.6111 44.1775 85.5695 44.1479C85.4972 44.0967 85.4201 44.0504 85.3439 44.0044C85.2673 43.9582 85.1915 43.9114 85.1193 43.8599H85.1183C85.0683 43.8246 85.0189 43.7892 84.9728 43.7476H84.9738C84.953 43.7278 84.9334 43.7071 84.9113 43.6851C84.8905 43.6644 84.8675 43.6441 84.8419 43.6255H84.8429L84.839 43.6226H84.838C84.8167 43.6079 84.7889 43.5925 84.7599 43.5884ZM70.339 41.6343C70.3299 41.637 70.3202 41.6415 70.3107 41.646L70.2697 41.6636C70.2484 41.6722 70.2272 41.6835 70.2072 41.6938C70.1868 41.7043 70.1669 41.7141 70.1466 41.7222C70.0968 41.7418 70.0451 41.7592 69.9933 41.7769C69.9417 41.7944 69.8892 41.8125 69.838 41.8325C69.8173 41.8406 69.7943 41.8428 69.7677 41.8472C69.7552 41.8492 69.7418 41.8519 69.7286 41.856L69.6896 41.8745L69.6886 41.8755C69.6716 41.8898 69.6645 41.903 69.6603 41.9165C69.6588 41.9213 69.6563 41.925 69.6554 41.9282L69.6486 41.9321C69.6405 41.9364 69.6369 41.9448 69.6359 41.9497C69.6352 41.9538 69.6355 41.9581 69.6359 41.9604C69.6366 41.9645 69.6386 41.9685 69.6398 41.9712V41.9722C69.6481 41.9917 69.6649 42.0063 69.6818 42.0161C69.6983 42.0257 69.7174 42.0312 69.7355 42.0317V42.0327H69.7374C69.7779 42.0352 69.8191 42.0235 69.8536 42.0161C69.8903 42.0083 69.9213 42.0047 69.9493 42.0151H69.9503C69.9591 42.0184 69.9711 42.0272 69.9855 42.0396C69.9996 42.0517 70.0149 42.0671 70.0294 42.0835C70.0587 42.1166 70.0854 42.1531 70.0978 42.1743L70.0958 42.1753L70.1036 42.1812L70.1056 42.1851L70.1115 42.1987C70.129 42.2442 70.1419 42.2912 70.1554 42.3394C70.1688 42.3873 70.1835 42.437 70.2042 42.4849L70.2628 42.6196C70.2827 42.664 70.303 42.7081 70.3204 42.7524L70.6847 43.6675C70.6992 43.7046 70.7165 43.741 70.7335 43.7759L70.7823 43.8804C70.8081 43.9458 70.8165 43.9911 70.8136 44.02C70.8122 44.0338 70.8077 44.0431 70.8029 44.0493C70.798 44.0554 70.7911 44.0601 70.7814 44.063C70.7604 44.0692 70.7281 44.0667 70.6857 44.0552C70.6442 44.0439 70.5954 44.0251 70.5431 44.0005C70.4381 43.9512 70.3197 43.882 70.215 43.8188C70.1112 43.7563 70.0186 43.6981 69.9679 43.6733C69.9508 43.6658 69.9329 43.6611 69.9191 43.6577C69.9048 43.6542 69.893 43.651 69.882 43.645L69.88 43.644L69.8429 43.6196C69.8299 43.6092 69.814 43.5962 69.796 43.5864H69.795C69.7557 43.5625 69.713 43.5417 69.672 43.522L69.5529 43.4556L69.549 43.4536L69.4933 43.4194C69.4761 43.4063 69.4571 43.3903 69.4366 43.3784H69.4357C69.4081 43.3608 69.3777 43.3489 69.3488 43.3384C69.3185 43.3274 69.2898 43.3174 69.2628 43.3042H69.2618C69.2104 43.2763 69.1608 43.2435 69.1115 43.2104C69.0617 43.1771 69.0113 43.1423 68.9611 43.1118L68.8214 43.0405C68.7754 43.0185 68.7306 42.9965 68.6876 42.9722H68.6866C68.573 42.9138 68.4646 42.8413 68.3527 42.772H68.3536C68.3275 42.7543 68.2999 42.7402 68.2745 42.7271C68.2486 42.7136 68.2237 42.701 68.2023 42.686H68.2032L68.2003 42.6841C68.1785 42.6719 68.1594 42.6544 68.1349 42.6353C68.1115 42.6169 68.0838 42.5985 68.0499 42.5903C68.0382 42.5877 68.0216 42.5881 68.006 42.5903C67.9895 42.5927 67.9699 42.5977 67.9484 42.603C67.9049 42.6137 67.8516 42.629 67.799 42.646C67.6943 42.6797 67.5885 42.7189 67.5529 42.7329L67.5304 42.7417L67.5323 42.7456C67.4643 42.7727 67.3945 42.8 67.337 42.8589L67.3263 42.8706L67.3341 42.8843C67.3481 42.9081 67.3617 42.9326 67.3751 42.9556L67.382 42.9673L67.3956 42.9653C67.4778 42.9575 67.5399 42.9486 67.5929 42.9448C67.6452 42.9411 67.6841 42.9437 67.7159 42.9556C67.7468 42.9672 67.7743 42.9893 67.8029 43.0308C67.8319 43.073 67.8614 43.135 67.8966 43.2231C67.9121 43.2625 67.9276 43.3024 67.9425 43.3423C67.9574 43.3821 67.9723 43.4231 67.9884 43.4634L68.3439 44.356C68.3798 44.447 68.4185 44.5373 68.4572 44.6265C68.4958 44.7155 68.5347 44.8044 68.5704 44.894C68.6171 45.0104 68.6762 45.2004 68.7159 45.3237V45.3286L68.7374 45.3306L68.714 45.3286L68.7179 45.3384C68.7218 45.3481 68.728 45.3574 68.7316 45.3628L68.7374 45.3765C68.7433 45.4459 68.7273 45.4922 68.7101 45.5229C68.7013 45.5385 68.6923 45.5513 68.6847 45.561C68.6811 45.5656 68.6768 45.5705 68.674 45.5747C68.6717 45.5781 68.6667 45.5857 68.6661 45.5942L68.6876 45.5952L68.6642 45.5942L68.6681 45.603L68.6691 45.606C68.6695 45.607 68.6705 45.6087 68.671 45.6099L68.672 45.6128L68.673 45.6147C68.6739 45.6192 68.6754 45.6234 68.6769 45.6265C68.6786 45.63 68.6812 45.6345 68.6827 45.6372C68.6861 45.6431 68.6879 45.6478 68.6886 45.6519L68.6915 45.6724L68.713 45.6694C68.7588 45.6626 68.7935 45.6357 68.8234 45.6099C68.8546 45.5828 68.8812 45.5568 68.9152 45.5435C68.9261 45.5391 68.9403 45.5373 68.9572 45.5366C68.9741 45.5359 68.9923 45.5369 69.0118 45.5376C69.0309 45.5382 69.0513 45.5384 69.0704 45.5366C69.0895 45.5348 69.109 45.5306 69.1261 45.521L69.1388 45.5142L69.1368 45.4995L69.129 45.437L69.1271 45.4224L69.1124 45.4185L69.0118 45.3901C68.9852 45.3792 68.9636 45.366 68.9454 45.3501C68.9089 45.3179 68.8816 45.2699 68.8478 45.1899C68.8181 45.1188 68.7642 44.9731 68.7365 44.8999L68.1779 43.4966C68.1683 43.473 68.1572 43.4484 68.1466 43.4243C68.1359 43.4 68.1243 43.3748 68.1144 43.3501C68.0969 43.3055 68.0925 43.2843 68.0929 43.2651C68.0931 43.2555 68.094 43.2448 68.0968 43.231C68.0991 43.2197 68.102 43.2038 68.1056 43.186C68.1119 43.1831 68.1188 43.181 68.1241 43.1782C68.1327 43.1738 68.1408 43.1703 68.1486 43.1675V43.1685L68.1534 43.1646C68.1538 43.1645 68.1554 43.1645 68.1564 43.1636C68.158 43.1628 68.16 43.1615 68.1622 43.1606C68.173 43.1602 68.1883 43.1619 68.2072 43.1675C68.2269 43.1733 68.2495 43.1834 68.2745 43.1948C68.3249 43.2179 68.3837 43.2497 68.4425 43.2847C68.5012 43.3196 68.5604 43.3575 68.6124 43.3901C68.6635 43.4222 68.7091 43.4498 68.7404 43.4663V43.4673C68.8898 43.5482 69.041 43.6265 69.1915 43.7046C69.3421 43.7827 69.4928 43.8611 69.6417 43.9419C69.6828 43.9638 69.7216 43.9906 69.7609 44.0181C69.7997 44.0452 69.8405 44.0729 69.8839 44.0962C69.9128 44.1131 69.9425 44.1271 69.9718 44.1392C70.0015 44.1513 70.0301 44.1621 70.0577 44.1753C70.0861 44.1889 70.2636 44.2831 70.4679 44.3882C70.6712 44.4928 70.9016 44.608 71.0333 44.6636C71.0452 44.6715 71.0655 44.6828 71.0851 44.6909C71.096 44.6955 71.1079 44.6991 71.1183 44.7017C71.1236 44.7029 71.1296 44.7043 71.1349 44.7046C71.1397 44.7049 71.1462 44.7051 71.1525 44.7026L71.1534 44.7017C71.1862 44.686 71.2035 44.6584 71.2091 44.6274C71.2143 44.5978 71.2103 44.5642 71.2023 44.5327C71.1862 44.47 71.1525 44.4025 71.1398 44.3706V44.3696C71.1094 44.2933 71.0733 44.2199 71.0382 44.1479L70.9386 43.9312C70.9365 43.9194 70.9353 43.9077 70.9337 43.896C70.932 43.8835 70.9302 43.8699 70.9269 43.856L70.9259 43.854C70.9103 43.8045 70.8904 43.7563 70.8741 43.7134C70.8563 43.6677 70.8363 43.6227 70.8165 43.5786C70.7966 43.5343 70.7764 43.4895 70.7589 43.4448L70.3781 42.478V42.4771C70.3593 42.4318 70.3385 42.388 70.3185 42.3452C70.2983 42.3021 70.2784 42.2587 70.2609 42.2144C70.2206 42.1128 70.2109 42.0378 70.2179 41.9819C70.2249 41.9268 70.2481 41.8881 70.2765 41.8589C70.3055 41.8292 70.3397 41.8086 70.3702 41.7896C70.385 41.7803 70.3999 41.7703 70.4113 41.7603C70.422 41.7507 70.4312 41.7381 70.4347 41.7222L70.4366 41.7231C70.4413 41.7073 70.437 41.6924 70.4347 41.6841C70.4323 41.6752 70.4308 41.6697 70.4318 41.6636L70.4357 41.644L70.4161 41.6392C70.38 41.6308 70.3596 41.6282 70.339 41.6343ZM80.2931 41.6987C80.0777 41.714 79.9161 41.7491 79.7677 41.8149C79.6937 41.8478 79.6228 41.8878 79.5509 41.937L79.3243 42.1128C79.3138 42.1223 79.3018 42.1313 79.2882 42.1411C79.2749 42.1507 79.2597 42.1618 79.2462 42.1753C79.1475 42.2776 79.0673 42.4269 79.0011 42.5815C78.9348 42.7365 78.8811 42.8993 78.838 43.0298C78.8192 43.0891 78.816 43.1278 78.8165 43.1655C78.8171 43.2035 78.8214 43.2362 78.8185 43.2915V43.2925C78.8184 43.3302 78.8133 43.3677 78.8087 43.4067C78.8043 43.4447 78.8 43.4847 78.8029 43.5259L78.8156 43.6255C78.8222 43.6579 78.8293 43.6883 78.8341 43.7202L78.8351 43.7222C78.8799 43.9279 78.9276 44.0726 79.007 44.1978C79.0862 44.3226 79.1963 44.427 79.3605 44.5552V44.5562C79.3865 44.5795 79.4147 44.6006 79.4415 44.6216C79.4685 44.6427 79.4945 44.664 79.5197 44.686L79.5226 44.687C79.5366 44.6963 79.5478 44.7106 79.5616 44.7271C79.5748 44.7427 79.5907 44.7607 79.6115 44.7749V44.7759H79.6134C79.648 44.7954 79.6892 44.812 79.7306 44.8257C79.7736 44.8399 79.814 44.8508 79.8517 44.8638L79.9689 44.9019C80.0096 44.9141 80.0515 44.9244 80.0919 44.9292H80.0929C80.1408 44.934 80.1834 44.9228 80.2218 44.9116C80.2614 44.9001 80.2963 44.8889 80.3331 44.8901C80.3568 44.8905 80.3802 44.8955 80.4044 44.9009C80.4279 44.9061 80.4535 44.9117 80.4796 44.9136V44.9175L80.4913 44.9116L80.5157 44.8989C80.7428 44.9107 80.9524 44.8724 81.1613 44.7896C81.4217 44.683 81.6071 44.4904 81.7853 44.2856V44.2847C81.7942 44.2737 81.8058 44.264 81.8185 44.2524C81.8308 44.2412 81.8439 44.2271 81.8546 44.2114C81.8732 44.1869 81.8871 44.1599 81.8986 44.1343C81.9103 44.1079 81.9203 44.0834 81.9337 44.061L81.9347 44.0601C81.964 44.0057 81.9986 43.973 82.0343 43.9331C82.0698 43.8934 82.1041 43.8484 82.1271 43.7729C82.151 43.7066 82.1525 43.6412 82.1505 43.5786C82.1485 43.5149 82.1428 43.4545 82.1495 43.3931C82.1969 42.9734 82.1017 42.6338 81.8966 42.3677C81.6916 42.102 81.3782 41.9106 80.9952 41.7847C80.854 41.7378 80.752 41.7105 80.6486 41.6978C80.5452 41.6851 80.4402 41.6877 80.2931 41.6987ZM80.4601 41.8374C80.5542 41.8396 80.6482 41.8517 80.7111 41.8667C80.7598 41.8789 80.8067 41.8947 80.8546 41.9106C81.124 41.9989 81.3842 42.1582 81.5411 42.3979C81.632 42.5366 81.7149 42.7624 81.7286 42.9272C81.7506 43.1887 81.6933 43.4868 81.6105 43.7368C81.5318 43.9778 81.3994 44.2531 81.2198 44.4497L81.1398 44.5288C81.0091 44.6456 80.8469 44.7127 80.6759 44.7622C80.6535 44.7684 80.6262 44.7785 80.6027 44.7856C80.5774 44.7933 80.5519 44.7988 80.5275 44.8003L80.5255 44.8013C80.5067 44.8041 80.4883 44.8024 80.4679 44.8003C80.448 44.7983 80.425 44.795 80.4015 44.7964L80.3995 44.7974C80.3845 44.7997 80.3707 44.8043 80.3605 44.8081C80.3492 44.8123 80.3416 44.8137 80.3351 44.814C80.2943 44.8071 80.2401 44.7901 80.2013 44.7769C80.0939 44.7414 79.9368 44.6672 79.7931 44.5757C79.6487 44.4838 79.5207 44.3764 79.465 44.2778L79.464 44.2769C79.4595 44.2695 79.4566 44.2611 79.4532 44.2495C79.45 44.2385 79.4453 44.2237 79.4366 44.2104C79.4269 44.1864 79.4134 44.1652 79.4005 44.147L79.3663 44.0884L79.3654 44.0874L79.3107 43.9341C79.2044 43.5702 79.2544 43.1646 79.3761 42.8062C79.3877 42.7715 79.4012 42.7355 79.4161 42.6987C79.4311 42.6619 79.4468 42.6229 79.4611 42.5845C79.4727 42.555 79.4831 42.5244 79.4933 42.4966C79.5037 42.4679 79.5158 42.4407 79.5304 42.4146V42.4136C79.5544 42.3686 79.5861 42.3299 79.6202 42.2925C79.6534 42.2562 79.6925 42.2174 79.7257 42.1792C79.7493 42.1515 79.7792 42.1145 79.8116 42.0796C79.8441 42.0447 79.877 42.0131 79.9064 41.9966C79.9106 41.9953 79.9165 41.9952 79.924 41.9937C79.932 41.9919 79.9419 41.9891 79.9513 41.9858C79.9607 41.9825 79.9721 41.9778 79.9806 41.9692C79.9862 41.9635 79.989 41.9557 79.9913 41.9478C80.0189 41.9353 80.0483 41.9273 80.0792 41.9194C80.1127 41.911 80.1487 41.9023 80.1827 41.8882H80.1837L80.1847 41.8872C80.1902 41.8843 80.1945 41.8805 80.1974 41.8774C80.1999 41.8748 80.203 41.871 80.2042 41.8696C80.2076 41.8658 80.2089 41.8658 80.2091 41.8657L80.212 41.8647C80.2737 41.8426 80.3658 41.8352 80.4601 41.8374ZM73.5646 40.9927C73.4267 40.9979 73.2902 41.0142 73.1544 41.0347C73.0542 41.0503 72.9551 41.0701 72.8546 41.0933C72.7476 41.1178 72.6481 41.1684 72.5519 41.2056L72.549 41.2065C72.5304 41.2162 72.5114 41.223 72.4913 41.229C72.4717 41.2349 72.449 41.2413 72.4279 41.2485H72.4269C72.3947 41.2617 72.3663 41.2808 72.3409 41.3003C72.3148 41.3204 72.2924 41.3385 72.2677 41.356C72.2494 41.3659 72.2312 41.3752 72.2101 41.3853C72.1893 41.3952 72.1671 41.4064 72.1476 41.4224L72.0656 41.4927C71.9878 41.5688 71.9207 41.6591 71.8575 41.7456V41.7466C71.7805 41.8555 71.6963 41.9655 71.6476 42.0933L71.6466 42.0942C71.6298 42.1454 71.6199 42.1986 71.6105 42.2505C71.6009 42.3028 71.5917 42.3539 71.5782 42.4038C71.5717 42.4307 71.5597 42.4557 71.547 42.4839C71.5347 42.511 71.5219 42.5414 71.5206 42.5757V42.5767C71.5197 42.6258 71.5284 42.674 71.5343 42.7192L71.5616 42.8579C71.5715 42.9037 71.5802 42.9494 71.587 42.9946L71.5958 43.0767C71.5982 43.1053 71.6 43.136 71.6046 43.1655C71.6167 43.2409 71.6463 43.2927 71.6798 43.3403C71.714 43.3887 71.7506 43.4299 71.7823 43.4888L71.8497 43.6011C72.0124 43.8492 72.215 44.0138 72.506 44.1304C72.5409 44.1443 72.5753 44.1606 72.6115 44.1772C72.6471 44.1937 72.6844 44.2095 72.7228 44.2202V44.2212C72.8093 44.2434 72.9053 44.2648 72.9952 44.271L73.0616 44.27C73.083 44.2692 73.1037 44.2686 73.1241 44.271C73.173 44.2766 73.2063 44.2912 73.2472 44.3032C73.288 44.3152 73.3321 44.3234 73.3956 44.314L73.5226 44.2905L73.6368 44.2769C73.6758 44.2728 73.7162 44.2689 73.757 44.2632L73.8732 44.2349C73.9017 44.224 73.9224 44.2114 73.9415 44.1978C73.9788 44.1711 74.0043 44.1449 74.0714 44.1157H74.0724C74.1233 44.0928 74.1763 44.0729 74.2306 44.0513C74.2843 44.0299 74.3388 44.0069 74.3907 43.9771L74.3917 43.9761C74.4123 43.9635 74.4593 43.9248 74.5001 43.8853C74.5207 43.8653 74.541 43.8446 74.5558 43.8257C74.5632 43.8162 74.5697 43.8063 74.5743 43.7974L74.5822 43.7681V43.7661L74.5802 43.7583C74.5798 43.7562 74.5797 43.7535 74.5792 43.7505C74.5776 43.7398 74.5731 43.7299 74.5704 43.7231C74.5674 43.7154 74.5659 43.7107 74.5656 43.7065L74.5626 43.6704L74.5323 43.6909C74.5279 43.6939 74.5233 43.6949 74.5177 43.6958C74.5147 43.6963 74.5117 43.6974 74.5079 43.6978L74.4952 43.6987C74.4788 43.7013 74.4614 43.7108 74.4454 43.7212C74.4286 43.7323 74.4101 43.747 74.3927 43.7612C74.3748 43.7759 74.358 43.7902 74.3419 43.8032C74.3263 43.8158 74.3131 43.8258 74.3029 43.8315C74.1854 43.896 73.9597 43.9726 73.8273 43.9917H73.8263C73.7534 44.0035 73.6818 44.0067 73.6075 44.0142C73.4764 44.0265 73.3466 44.0491 73.2179 44.0337C73.1089 44.0203 73.0058 43.9718 72.8986 43.9312H72.8995C72.8595 43.9151 72.8161 43.9019 72.7775 43.8882C72.7381 43.8742 72.7013 43.8592 72.6691 43.8384L72.6661 43.8364C72.6537 43.8306 72.6416 43.822 72.629 43.811C72.6171 43.8006 72.6026 43.7864 72.588 43.7759C72.4742 43.6891 72.3885 43.6043 72.297 43.4946H72.296C72.2858 43.4789 72.2728 43.4645 72.2609 43.4526C72.2482 43.44 72.2371 43.4292 72.2286 43.4175C72.2142 43.3934 72.2029 43.3679 72.1915 43.3413L72.1544 43.2603C72.1443 43.2392 72.1336 43.2202 72.1232 43.2026C72.1126 43.1848 72.1024 43.1679 72.0939 43.1489V43.1479L72.0665 43.062C72.0565 43.0216 72.0462 42.9729 72.0363 42.9233C72.0162 42.8238 71.999 42.721 71.9923 42.6772C71.9766 42.5742 71.965 42.4715 71.9728 42.3706L71.9865 42.27C72.0056 42.1727 72.0397 42.0837 72.0695 41.9829L72.0773 41.9448C72.0786 41.9346 72.0798 41.9271 72.0831 41.9194L72.0841 41.9175C72.0977 41.877 72.1208 41.8364 72.1486 41.7964C72.1764 41.7563 72.2076 41.7184 72.2365 41.6802L72.2374 41.6782C72.2489 41.6604 72.2596 41.6391 72.2697 41.6216C72.2802 41.6034 72.2914 41.5869 72.3048 41.5728L72.3058 41.5718C72.4929 41.3668 72.8085 41.2614 73.0841 41.2192C73.1873 41.2034 73.3237 41.1895 73.4581 41.1899C73.593 41.1904 73.7238 41.2052 73.8165 41.2456V41.2466C73.845 41.2586 73.8856 41.2858 73.923 41.3188C73.9417 41.3354 73.9591 41.353 73.9738 41.3696L74.007 41.4155C74.0108 41.4263 74.0161 41.4449 74.0216 41.4692C74.0274 41.4948 74.0338 41.5259 74.0411 41.5552C74.0485 41.5842 74.057 41.6134 74.0665 41.6362C74.0713 41.6476 74.0769 41.6589 74.0831 41.6675C74.087 41.6727 74.0935 41.676 74.0997 41.6802V41.6812C74.1108 41.6934 74.125 41.6949 74.1339 41.6948H74.1495L74.1622 41.6958L74.17 41.686C74.1733 41.6817 74.1776 41.6786 74.1847 41.6724C74.1912 41.6666 74.199 41.6588 74.2052 41.647L74.2042 41.646C74.2099 41.6372 74.2142 41.6272 74.2159 41.6177C74.2179 41.6068 74.2188 41.5949 74.2189 41.5835C74.2191 41.5606 74.2161 41.5371 74.214 41.5229H74.215L74.214 41.521C74.2023 41.4702 74.1877 41.4203 74.1876 41.3726C74.1882 41.3404 74.1977 41.3094 74.2072 41.2739C74.2117 41.2567 74.2164 41.2383 74.2189 41.2192V41.1597C74.2132 41.1149 74.1898 41.0839 74.1573 41.064C74.1258 41.0447 74.086 41.0356 74.046 41.0317C74.0057 41.0279 73.9626 41.0289 73.924 41.0298H73.8243C73.7825 41.0266 73.7409 41.0168 73.6974 41.0083L73.5646 40.9927ZM75.215 40.9077V40.9087C75.1949 40.911 75.1793 40.912 75.1681 40.9165C75.1553 40.9217 75.1468 40.9299 75.1417 40.9409C75.1396 40.9456 75.1387 40.9508 75.1378 40.9546C75.1368 40.9589 75.136 40.9622 75.1349 40.9663C75.133 40.9734 75.1298 40.982 75.1232 40.9927L75.1115 41.0122L75.13 41.0229C75.1323 41.0243 75.1364 41.0261 75.1378 41.0269C75.1398 41.0279 75.1408 41.0291 75.1417 41.0298H75.1427L75.1456 41.0435L75.1593 41.0464C75.2183 41.0597 75.2682 41.0706 75.3107 41.0835C75.353 41.0964 75.3857 41.1113 75.4113 41.1313C75.4605 41.17 75.4884 41.2334 75.4874 41.3677C75.4878 41.415 75.4833 41.463 75.4777 41.5112C75.4721 41.5588 75.4653 41.6079 75.4611 41.6567V41.6577C75.4513 41.8467 75.4319 42.0408 75.4171 42.2349C75.3885 42.5176 75.3785 42.8071 75.3566 43.0942C75.3497 43.1863 75.3362 43.2911 75.3224 43.397L75.2863 43.7056L75.2853 43.7202C75.2841 43.733 75.2852 43.7491 75.2853 43.7603C75.2853 43.7726 75.2847 43.7834 75.2814 43.7935C75.2673 43.8391 75.2389 43.8714 75.2023 43.897L75.0597 43.9683L75.0587 43.9819C75.0586 43.9891 75.0602 43.9966 75.0607 44.0015V44.0259L75.0343 44.0513L75.0704 44.061C75.1421 44.0811 75.2327 44.0832 75.3214 44.0825C75.4105 44.0819 75.4978 44.0772 75.5695 44.0825V44.0835C75.5865 44.0867 75.6689 44.1068 75.7433 44.1177C75.7806 44.1231 75.8184 44.1266 75.8478 44.1245C75.8623 44.1235 75.8771 44.1205 75.8888 44.1147C75.9009 44.1086 75.9118 44.0977 75.9132 44.0806C75.9147 44.0607 75.9047 44.0435 75.8937 44.0308C75.8824 44.0179 75.8673 44.0058 75.8527 43.9956C75.8379 43.9854 75.8219 43.9754 75.8087 43.9673C75.7949 43.9588 75.7848 43.9525 75.7794 43.9478C75.7572 43.927 75.7409 43.8942 75.7296 43.8521C75.7183 43.8099 75.7122 43.7601 75.7101 43.7085C75.7059 43.6052 75.7165 43.4974 75.7208 43.4282L75.7501 43.1421C75.761 43.0439 75.7717 42.9452 75.7765 42.8521C75.7902 42.6497 75.8044 42.5188 75.8312 42.439C75.8444 42.3995 75.8599 42.3748 75.8781 42.3599C75.8958 42.3453 75.9183 42.3383 75.9493 42.3384C75.9809 42.3384 76.0201 42.3459 76.0695 42.3599C76.1186 42.3738 76.1765 42.3937 76.2452 42.4175C76.3825 42.4651 76.5616 42.5277 76.795 42.5874C76.8789 42.6097 76.9899 42.6397 77.0939 42.6802C77.1984 42.7209 77.293 42.7714 77.3468 42.8335V42.8345C77.3705 42.8594 77.3825 42.8956 77.3849 42.937C77.3872 42.978 77.3801 43.0215 77.3702 43.0581C77.3615 43.0941 77.347 43.1261 77.3322 43.1528C77.3242 43.1671 77.3177 43.1775 77.3107 43.1899C77.3045 43.2009 77.2987 43.2118 77.295 43.2222L77.2941 43.2251C77.289 43.2473 77.2919 43.2674 77.3009 43.2847C77.3097 43.3015 77.3235 43.3152 77.338 43.3257C77.3667 43.3463 77.4041 43.3596 77.4269 43.3687L77.4874 43.3774C77.495 43.3769 77.4989 43.3764 77.5021 43.3765V43.3784C77.5032 43.3836 77.5039 43.3919 77.504 43.4048C77.5043 43.4316 77.5022 43.4743 77.4972 43.5405C77.494 43.5918 77.4929 43.6508 77.4923 43.7085C77.4917 43.7666 77.4916 43.8239 77.4874 43.8716C77.4814 43.9538 77.4524 43.998 77.4113 44.0298C77.39 44.0462 77.3644 44.0604 77.3351 44.0737C77.3052 44.0873 77.2741 44.0992 77.2384 44.1147L77.2267 44.1196L77.2257 44.1333C77.2253 44.1408 77.2253 44.1483 77.2257 44.1538C77.2262 44.16 77.227 44.1645 77.2267 44.1685V44.1704C77.2267 44.173 77.2259 44.1745 77.2257 44.1753L77.2013 44.1968L77.2345 44.2085C77.2893 44.2288 77.3417 44.2355 77.3927 44.2368C77.418 44.2375 77.4438 44.2363 77.4689 44.2358C77.4936 44.2354 77.5181 44.2351 77.5431 44.2358L77.6915 44.2397C77.7407 44.2397 77.7887 44.2399 77.8361 44.2437C77.8444 44.2442 77.8631 44.2483 77.8888 44.2544C77.9132 44.2602 77.9425 44.2671 77.9708 44.272C77.9989 44.2768 78.0285 44.2799 78.0519 44.2769C78.0633 44.2753 78.0752 44.2721 78.0851 44.2651C78.096 44.2573 78.1033 44.2455 78.1046 44.231L78.0988 44.2026C78.0947 44.1944 78.0889 44.1873 78.0831 44.1812C78.0711 44.1683 78.055 44.1563 78.0392 44.146C78.0234 44.1357 78.0063 44.1259 77.9923 44.1177C77.9825 44.1119 77.9747 44.1061 77.9689 44.1021L77.9698 44.0903L77.9591 44.0835C77.9365 44.0697 77.9174 44.0376 77.9054 43.9966C77.8938 43.9566 77.8903 43.9129 77.8927 43.8823L77.9025 43.8091C77.9072 43.7812 77.9129 43.7511 77.9161 43.73L77.9562 43.3491C77.9758 43.0971 77.9871 42.8394 78.0021 42.5835C78.017 42.3901 78.0359 42.1958 78.0538 42.0024L78.0548 42.0015C78.0581 41.9049 78.0646 41.8064 78.0646 41.7085C78.0646 41.6519 78.0615 41.5998 78.0646 41.5464C78.0762 41.4243 78.1138 41.3696 78.1661 41.3384C78.1934 41.3222 78.2265 41.3114 78.2657 41.3022C78.3056 41.293 78.3486 41.2861 78.3986 41.2759L78.4122 41.2729L78.4152 41.2593C78.4206 41.2347 78.4234 41.2143 78.4318 41.1938L78.4386 41.1772L78.423 41.1675C78.4176 41.1641 78.4117 41.1592 78.4044 41.1519L78.38 41.1294L78.3751 41.1274L78.3214 41.1138C78.3012 41.1101 78.2803 41.1077 78.2667 41.106V41.105H78.2657C78.2217 41.1022 78.185 41.1107 78.1515 41.1187C78.1176 41.1267 78.0867 41.1333 78.0499 41.1323C78.0289 41.1305 78.0082 41.1282 77.9865 41.1245C77.9706 41.1219 77.9536 41.1196 77.9366 41.1177V41.1128L77.9171 41.1118C77.8655 41.1077 77.8127 41.1059 77.7609 41.105L77.6056 41.1001C77.5978 41.0993 77.5876 41.0958 77.5753 41.0913C77.5632 41.0869 77.55 41.0816 77.5363 41.0757C77.5226 41.0698 77.508 41.0639 77.4943 41.0591C77.4808 41.0543 77.4666 41.0503 77.4532 41.0493C77.4174 41.0465 77.398 41.0468 77.38 41.0542C77.3717 41.0577 77.3638 41.0622 77.3566 41.0669C77.349 41.0718 77.3395 41.0774 77.3263 41.0845L77.3097 41.0933L77.3156 41.1108C77.3173 41.1155 77.3181 41.1196 77.3175 41.1235L77.3165 41.1255C77.3162 41.128 77.3159 41.1316 77.3146 41.1372C77.3134 41.1424 77.3117 41.1489 77.3107 41.1558L77.3087 41.1704L77.3224 41.1782C77.3497 41.1924 77.3821 41.2047 77.4142 41.2173C77.4466 41.23 77.4796 41.2427 77.5109 41.2573C77.5586 41.2797 77.6002 41.3055 77.6271 41.3394L77.6486 41.3765C77.6539 41.3912 77.6578 41.4214 77.6593 41.4634C77.6608 41.5051 77.66 41.5559 77.6583 41.6069C77.6549 41.7085 77.6479 41.8121 77.6447 41.8569C77.6326 42.021 77.6233 42.1861 77.5958 42.3423C77.5901 42.3676 77.5823 42.3898 77.5743 42.4146L77.5577 42.4946C77.5538 42.5388 77.554 42.582 77.5558 42.6245C77.5575 42.6674 77.5602 42.7088 77.5607 42.7515V42.7524C77.5619 42.7734 77.5707 42.8572 77.5685 42.9165C77.568 42.9283 77.5669 42.9387 77.5656 42.9468C77.5613 42.9407 77.5551 42.9329 77.549 42.9214C77.5393 42.9019 77.5308 42.8816 77.5226 42.8608L77.4962 42.7993C77.4098 42.6298 77.3059 42.5121 77.1534 42.397H77.1544L77.1056 42.3521C77.089 42.3372 77.0709 42.3227 77.0499 42.312L77.048 42.311C77.0181 42.2988 76.9882 42.2903 76.9601 42.2827C76.9319 42.2752 76.9056 42.2685 76.88 42.2593H76.879C76.8161 42.2366 76.7199 42.213 76.6124 42.187C76.5041 42.1608 76.3829 42.1317 76.2697 42.0981C76.1562 42.0646 76.0512 42.0265 75.9747 41.9829C75.8967 41.9384 75.8555 41.8918 75.8536 41.8442C75.8522 41.787 75.8615 41.6519 75.8781 41.52C75.8863 41.4541 75.8966 41.3894 75.9073 41.3364C75.9127 41.3101 75.9184 41.287 75.924 41.2681C75.9296 41.2489 75.9349 41.2349 75.9396 41.2271L75.962 41.2017C75.9894 41.1782 76.0293 41.1627 76.0753 41.1528C76.1358 41.1398 76.2 41.137 76.2482 41.1323L76.2648 41.1313L76.2667 41.1138L76.2697 41.1128C76.2715 41.1122 76.2735 41.1117 76.2765 41.1108L76.2941 41.106L76.2921 41.0884C76.2911 41.079 76.2889 41.0683 76.2872 41.0601C76.2856 41.052 76.2845 41.0456 76.2843 41.0405V41.0337L76.2863 41.0161L76.2706 41.0112C76.2146 40.9922 76.1537 40.9868 76.0948 40.9849C76.0347 40.9829 75.9784 40.984 75.924 40.98C75.8598 40.9749 75.7954 40.9723 75.7316 40.9692C75.6676 40.9662 75.6037 40.9634 75.5402 40.9585C75.5063 40.9563 75.4743 40.9456 75.4396 40.9341C75.4057 40.9228 75.369 40.9098 75.3292 40.9067C75.2908 40.9045 75.2541 40.9016 75.215 40.9077Z" fill="white"></path>
<path d="M74.978 52.3891C60.9504 52.3891 52.0761 50.1244 51.9883 50.1018L52.2566 49.0674C52.3436 49.0889 61.0991 51.3196 74.978 51.3196V52.3891Z" fill="white"></path>
<path d="M74.9033 52.3891V51.3196C88.7969 51.3196 97.538 49.0889 97.6246 49.0674L97.8934 50.1018C97.8054 50.1244 88.9323 52.3891 74.9033 52.3891Z" fill="white"></path>
<path d="M97.5564 66.1034C97.4687 66.0807 88.7145 63.85 74.8351 63.85V62.7803C88.8625 62.7803 97.7374 65.0452 97.8241 65.0678L97.5564 66.1034Z" fill="white"></path>
<path d="M60.0579 63.6685L59.715 64.7881C63.5513 64.2929 68.7172 63.8511 74.9115 63.8511V62.7803C68.9268 62.7803 63.8859 63.1933 60.0579 63.6685Z" fill="white"></path>
<path d="M56.8524 64.1162C53.7087 64.6116 51.9598 65.0584 51.92 65.0678L52.1888 66.1035C52.2261 66.0941 53.8768 65.6737 56.8524 65.1975V64.1162Z" fill="white"></path>
<path d="M60.3766 61.7253C60.3766 62.0078 59.8754 61.9758 59.7771 62.1176C59.7666 62.5207 59.7666 62.2913 59.7333 62.7051C59.6909 63.1964 59.712 62.967 59.6469 63.2292C59.5163 63.6982 59.2329 63.8172 58.8291 64.1657C58.7314 64.2319 58.6222 64.297 58.5357 64.3735C58.5243 64.3951 58.5136 64.4276 58.4909 64.4492C58.3818 64.5694 57.7062 64.8309 57.5541 64.8309C57.3803 64.8309 57.3368 64.5589 57.3368 64.4171C57.3368 64.2638 57.3803 64.0135 57.5762 64.0135C57.6739 64.0135 57.8591 64.1015 58.0769 64.1015C58.2953 64.1015 58.5896 64.0458 58.7314 63.8513C59.0148 63.4466 58.9164 63.185 58.9164 62.7051C58.9042 62.1607 58.7416 62.5644 58.7416 62.0305C58.5566 61.8772 58.0983 61.8772 57.8816 61.8772C57.3688 61.8772 56.8567 61.9311 56.3452 61.9311C56.2025 61.9311 56.0494 61.9311 55.9071 61.9103C55.7448 61.8671 55.6142 61.7469 55.4618 61.6921C55.0804 61.5505 54.6109 61.4646 54.284 61.234C54.2298 61.2019 54.2074 61.1472 54.1659 61.1149C54.0988 61.0714 54.0125 61.0714 53.9571 61.0269C53.9239 61.0054 53.9239 60.962 53.8919 60.9401C53.8372 60.8967 53.7611 60.8853 53.7067 60.8426C53.5858 60.7664 53.5215 60.6245 53.4121 60.515C52.9444 60.0462 52.6589 59.6759 52.3981 59.0758C52.3339 58.8917 52.2243 58.7274 52.1703 58.5308C52.1156 58.3127 52.1365 58.0858 52.0821 57.8675C52.006 57.573 51.8105 57.4083 51.8105 57.0712C51.8322 56.711 52.0269 56.6026 52.094 56.2976C52.1488 56.0675 52.1488 55.8284 52.2357 55.6102C52.2783 55.5006 52.3551 55.4141 52.41 55.3153C52.5187 55.1208 52.5955 54.9131 52.7255 54.7388C53.085 54.226 53.5754 53.9642 54.1659 53.7468C54.284 53.6817 54.4153 53.6591 54.5344 53.6043C54.6875 53.539 54.8298 53.431 55.0031 53.3861C55.1127 53.354 55.2325 53.3437 55.3527 53.3105C55.6567 53.256 55.9406 53.1692 56.2456 53.1471C56.519 53.1148 56.8025 53.0928 57.0844 53.0928C57.4665 53.1148 57.8485 53.1258 58.2306 53.1692C58.4696 53.2024 58.6879 53.3105 58.9274 53.3651C59.2217 53.431 59.9302 53.3978 59.9302 53.8454C59.9302 54.0513 59.7886 54.2156 59.7565 54.4113C59.7333 54.5531 59.7565 54.7058 59.7565 54.8476C59.7446 54.9242 59.7333 55.0981 59.6909 55.1638C59.6674 55.1964 59.6241 55.2076 59.592 55.2397C59.5477 55.228 59.5042 55.2397 59.4732 55.2175C59.352 55.1524 59.3738 54.5861 59.3303 54.4445C59.2751 54.2587 59.025 53.9641 58.8617 53.8669C58.3609 53.539 57.4019 53.4634 56.8129 53.4634C56.0376 53.4634 55.1017 53.627 54.4797 54.1279C54.3728 54.2156 54.1538 54.4991 54.0657 54.5861C54.0337 54.6192 54.0337 54.6625 54.0125 54.7058C53.9679 54.7598 53.8814 54.7929 53.8268 54.8476C53.652 55.065 53.3802 55.6432 53.2919 55.9152C53.1942 56.2424 53.1072 56.9615 53.1072 57.3111C53.1182 57.7043 53.1942 58.0953 53.238 58.4885C53.2599 58.6621 53.2599 58.8257 53.3024 58.9777C53.3695 59.2943 53.5537 59.5776 53.7067 59.85C53.8372 60.0576 53.9466 60.2751 54.0988 60.4602C54.2298 60.6131 54.4153 60.7114 54.5789 60.8202C54.7639 60.9401 54.9264 61.0922 55.1343 61.18C55.7882 61.4513 56.5951 61.5505 57.3027 61.5505C57.6854 61.5505 58.7095 61.5619 58.8617 61.1254C58.9164 60.9506 58.9274 60.3951 58.9274 60.1985C58.9274 60.035 58.9274 59.5003 58.8721 59.3707C58.6548 58.8917 57.8366 59.1743 57.5971 58.9777C57.5652 58.9571 57.5541 58.9124 57.5321 58.8814L57.5211 58.9124L57.5006 58.8587C57.6192 58.5535 57.6418 58.5751 58.0009 58.5639C58.2187 58.5639 58.4044 58.6725 58.6222 58.6725C59.0354 58.6725 59.4616 58.6621 59.8862 58.6621C60.2138 58.6621 60.5727 58.5867 60.8997 58.6186C60.9224 58.6518 60.943 58.6725 60.9659 58.6839C60.976 58.6839 60.976 58.6944 60.976 58.7057C60.976 58.7492 60.9659 58.7925 60.976 58.8361C60.7697 58.9777 60.8674 58.9447 60.6059 58.9447C60.5727 58.9447 60.5406 58.9447 60.5076 58.9447C59.8862 59.0437 59.8862 59.5446 59.8862 60.0462C59.8862 60.2646 59.908 61.1254 60.0063 61.2993C60.0936 61.4513 60.3766 61.5392 60.3766 61.7356V61.7253Z" fill="white"></path>
<path d="M61.7373 53.126C61.9126 53.126 62.0751 53.1694 62.2385 53.1911C62.4133 53.2126 62.5881 53.2126 62.762 53.2126C63.2637 53.2126 63.7648 53.137 64.2547 53.137C64.3974 53.137 64.5496 53.1473 64.6912 53.1911C64.7017 53.2562 64.7017 53.3219 64.712 53.3863C64.6477 53.4312 64.5931 53.4959 64.5175 53.5186C64.3095 53.5621 64.0484 53.4959 63.8519 53.6159C63.6016 53.7788 63.5916 54.2158 63.6117 54.4881C63.6117 54.76 63.6236 55.033 63.6117 55.3155C63.6117 55.4688 63.6016 55.6218 63.6016 55.7736C63.6016 56.6131 64.1564 56.2426 64.6912 56.4064C64.7017 56.4713 64.7017 56.5377 64.712 56.6028C64.6477 56.6452 64.5931 56.7112 64.5175 56.733C64.2011 56.8097 64.2547 56.7009 63.9171 56.8634C63.8849 56.8757 63.8631 56.8634 63.8519 56.8851C63.7102 57.005 63.7219 57.4305 63.6878 57.6165C63.6773 57.7251 63.6337 57.8225 63.6236 57.9323C63.6016 58.1502 63.6236 58.3789 63.6236 58.5973V60.2421C63.6236 60.4281 63.6016 60.6133 63.6016 60.809C63.6016 61.0924 63.6442 61.3541 63.9712 61.4308C64.0374 61.4412 64.1023 61.4192 64.1685 61.4192H64.2011C64.5175 61.4192 64.8324 61.4515 65.1486 61.4515C65.4859 61.4515 65.8241 61.4515 66.1623 61.4192C66.4345 61.4091 66.7179 61.4192 66.9904 61.3541C67.1118 61.3209 67.3515 61.2132 67.4375 61.1151C67.4276 61.017 67.5248 60.9962 67.5683 60.9185C67.7321 60.5803 67.6439 60.1013 67.9386 59.8291C67.9489 59.8291 67.9604 59.8291 67.9604 59.8291C67.9934 59.8291 68.0255 59.8291 68.0596 59.8177C68.0701 59.8502 68.0802 59.8834 68.1242 59.9057C68.0481 60.2421 68.0042 60.603 67.9934 60.9403C67.9716 61.1588 67.983 61.4192 67.9063 61.6265C67.8517 61.7792 67.7204 61.8559 67.5461 61.8559C67.4597 61.8559 67.3715 61.8445 67.2848 61.8445H62.4894C62.4018 61.8445 62.3155 61.8559 62.2275 61.8673C62.0647 61.8673 62.1184 61.8445 61.9995 61.7688C62.0098 61.7141 61.9995 61.6488 62.0203 61.594C62.0647 61.5074 62.207 61.4753 62.2836 61.4192C62.5545 61.2021 62.6202 60.7769 62.6202 60.4386C62.6202 60.2214 62.5985 60.003 62.5985 59.7858C62.5985 59.3825 62.6202 58.9779 62.6202 58.5641C62.6202 58.3684 62.6202 58.1711 62.5985 57.9752C62.5764 57.8225 62.5109 57.6807 62.5109 57.5286C62.4894 57.3548 62.5004 57.1376 62.4248 56.9843C62.3155 56.7557 62.0533 56.7557 61.8248 56.733C61.7476 56.7229 61.6716 56.7112 61.596 56.7009C61.5515 56.7009 61.5733 56.7112 61.5315 56.7112C61.4335 56.7112 61.4335 56.5685 61.3892 56.515C61.5082 56.3524 61.563 56.3297 61.7698 56.3297C61.9126 56.3297 62.0533 56.3524 62.1842 56.3524C62.3477 56.3524 62.4784 56.3201 62.5545 56.156C62.6202 55.9915 62.6202 55.3276 62.6202 55.1418C62.6202 54.8913 62.6202 54.1611 62.5446 53.9429C62.5109 53.8341 62.4133 53.6819 62.326 53.6159C62.1842 53.5186 61.7046 53.4959 61.5315 53.4959C61.4647 53.4959 61.4103 53.42 61.4103 53.3542C61.4103 53.1694 61.6074 53.126 61.7476 53.126H61.7373Z" fill="white"></path>
<path d="M70.1948 54.3679C70.053 54.5205 69.9331 54.8477 69.8573 55.033C69.7479 55.2949 69.5953 55.545 69.5399 55.839C69.5067 56.0142 69.5193 56.1888 69.5067 56.3626C69.4966 56.5922 69.4744 56.821 69.4744 57.0277C69.4634 58.2486 69.7592 59.5561 70.5875 60.482C70.6739 60.5905 70.8061 60.6454 70.8919 60.755C70.9468 60.7976 70.9677 60.8638 71.0225 60.9071C71.5139 61.354 72.8111 61.6053 73.4525 61.6053C73.5721 61.6053 73.7474 61.6053 73.8672 61.5828C73.9227 61.562 73.9642 61.5073 74.0309 61.475C74.1409 61.4307 74.2595 61.4307 74.3677 61.3759C74.5102 61.3209 74.6308 61.2132 74.7394 61.1367C75.1532 60.8531 75.5357 60.5261 75.785 60.0909C76.2102 59.3593 76.3521 58.3574 76.3521 57.5399C76.3521 56.799 76.2442 55.9476 75.9502 55.2622C75.7645 54.8255 75.3393 54.2911 74.968 53.9975C74.3264 53.485 73.4866 53.2899 72.6782 53.2899C72.5371 53.2899 72.3968 53.2898 72.2555 53.3003C71.8842 53.3324 71.1978 53.5077 70.8919 53.7469C70.8584 53.7689 70.8584 53.8124 70.8373 53.834C70.6847 53.9643 70.5 54.0409 70.3582 54.1827C70.3914 54.2801 70.2496 54.3239 70.1948 54.3679ZM77.3669 56.1661C77.4416 56.5149 77.6493 56.8096 77.6385 57.181C77.6493 57.6061 77.4416 57.7457 77.377 58.1068C77.3447 58.2598 77.3555 58.4234 77.3 58.5753C77.278 58.6622 77.2137 58.7388 77.1807 58.8258C76.8869 59.5231 76.5704 60.1881 75.982 60.6899C75.5017 61.0923 74.9784 61.3757 74.3677 61.5393L74.3031 61.6053C74.1725 61.6385 74.0309 61.6264 73.8892 61.6706C73.6707 61.7357 73.5291 61.9312 73.2901 61.9862C73.0728 62.0306 72.8215 62.0203 72.6037 62.0203C72.3858 62.0203 72.1129 62.0411 71.9054 61.9976C71.786 61.9653 71.6989 61.8773 71.5902 61.8445C71.4152 61.7687 71.23 61.7141 71.0557 61.6385C69.9553 61.2454 69.5504 60.9184 68.9519 59.9056C68.8655 59.7421 68.7556 59.5996 68.701 59.4257C68.6141 59.2177 68.6027 59.0006 68.5383 58.7926C68.4506 58.4887 68.3637 58.4335 68.3637 58.0955C68.3637 57.3215 68.3523 56.1888 68.6902 55.4902C68.7331 55.4038 68.8002 55.3383 68.8428 55.2622C69.4542 54.2588 69.9109 53.7906 71.0225 53.3324C71.786 53.0164 72.1129 52.9517 72.9411 52.9517C75.186 52.9517 76.8869 53.877 77.3669 56.1661Z" fill="white"></path>
<path d="M79.1533 53.1797C79.4583 53.2022 79.7635 53.2122 80.0573 53.2122C80.3627 53.2122 80.6671 53.2022 80.9619 53.1797C81.4207 53.1469 81.8788 53.1572 82.3457 53.1572C82.4559 53.1572 82.5657 53.1469 82.6631 53.1366C82.9892 53.1366 83.076 53.2771 83.3599 53.3756C83.5992 53.4529 83.8622 53.4847 84.0576 53.6373C84.4827 53.964 84.766 54.5967 84.766 55.1206C84.766 55.1962 84.766 55.2727 84.7545 55.3481C84.7224 55.5561 84.5034 56.1004 84.3627 56.2642C84.3407 56.2857 84.3076 56.2857 84.2967 56.2974C84.1981 56.406 84.156 56.5373 84.0354 56.6345C83.7855 56.8526 83.3934 57.071 83.076 57.1807C82.9353 57.2344 82.7263 57.2561 82.6083 57.3544C82.5316 57.4197 82.4984 57.5396 82.4984 57.6377C82.4984 57.6595 82.4984 57.6803 82.4984 57.7144C82.5421 57.9213 82.7389 58.0412 82.8586 58.1933C83.0002 58.389 83.1205 58.6074 83.2726 58.8036C83.3712 58.9349 83.5011 59.0332 83.5992 59.1637C83.8517 59.4784 84.0689 59.8287 84.3076 60.1443C84.4275 60.2976 84.5806 60.4277 84.6992 60.5902C84.8305 60.7662 84.9403 60.9618 85.0815 61.1252C85.2568 61.3331 85.4957 61.4511 85.7034 61.605C85.7034 61.6484 85.7245 61.6919 85.7355 61.7354C85.7134 61.7467 85.6921 61.7574 85.6921 61.8009C85.4304 61.8328 85.1582 61.8441 84.8977 61.8328C84.7545 61.8328 84.4062 61.8328 84.2859 61.7684C84.1335 61.6807 84.0794 61.4955 83.9807 61.3537C83.8517 61.1685 83.6752 61.0166 83.5446 60.8314C83.1959 60.3409 82.8908 59.8287 82.5421 59.348C82.4108 59.1741 82.2483 59.0332 82.129 58.8585C82.03 58.7272 81.9546 58.5749 81.8552 58.4436C81.7578 58.335 81.6381 58.2483 81.5726 58.1179C81.519 57.9979 81.4963 57.7795 81.4963 57.6493C81.4963 57.0046 82.0414 57.2664 82.4449 57.104C82.5542 57.0605 82.6301 56.9729 82.7263 56.9179C83.3934 56.4606 83.6113 56.079 83.6113 55.2395C83.6113 54.0954 82.6083 53.5617 81.5623 53.5617C81.2781 53.5617 80.4729 53.6155 80.3196 53.8994C80.2321 54.0406 80.2216 54.2585 80.2094 54.4111C80.2216 54.5859 80.2216 54.7596 80.2216 54.9453C80.2094 56.7005 80.2216 58.4543 80.2216 60.221C80.2216 60.4928 80.2425 60.8424 80.2425 61.1147C80.2425 61.5182 80.8976 61.6261 81.1909 61.7022C81.1909 61.7354 81.1805 61.7684 81.1805 61.812C81.1805 61.8223 81.1805 61.8328 81.1805 61.8555C80.6671 61.9102 80.1448 61.7788 79.6322 61.7788C79.1634 61.7788 78.7062 61.9102 78.2478 61.8441C78.2478 61.8328 78.2478 61.8223 78.2478 61.8009C78.2478 61.7789 78.2478 61.7574 78.2478 61.7354C78.5097 61.6261 78.9895 61.5503 79.0977 61.2451C79.1307 61.147 79.1206 61.0382 79.1206 60.9286C79.1533 60.46 79.1533 59.9158 79.1533 59.4472V56.6448C79.1533 56.1118 79.1852 55.5779 79.1852 55.0429C79.1852 54.7596 79.1739 54.4762 79.1533 54.1927C79.1091 53.7902 78.9689 53.5617 78.5644 53.5182C78.4547 53.5074 78.3465 53.5182 78.2384 53.5182C78.1165 53.5182 77.9645 53.4847 77.9645 53.3321C77.9645 53.1146 78.2697 53.1256 78.4231 53.1256C78.6726 53.1256 78.9129 53.1572 79.1533 53.1797Z" fill="white"></path>
<path d="M86.6513 53.103C86.8685 53.103 87.0878 53.2125 87.3156 53.2125C87.6641 53.2125 88.012 53.191 88.3612 53.191C88.6676 53.191 88.9842 53.1149 89.2769 53.191V53.2125C89.2769 53.2562 89.2986 53.3106 89.3213 53.3653C89.2881 53.3759 89.2549 53.3862 89.2446 53.4199C88.9842 53.4636 88.5026 53.5078 88.3726 53.7787C88.264 54.0092 88.2299 55.4799 88.2299 55.7961C88.2299 56.6565 88.276 57.517 88.276 58.3788C88.276 58.9353 88.2299 59.4788 88.2299 60.0238C88.2299 60.4066 88.1989 61.2341 88.5145 61.4847C88.6018 61.5507 88.8949 61.6488 88.8949 61.7792C88.8949 61.9653 87.9155 61.7687 87.8161 61.7687C87.4043 61.7687 86.999 61.9312 86.608 61.8445C86.6174 61.8331 86.6174 61.8124 86.6174 61.7907C86.6174 61.7577 86.608 61.7254 86.608 61.6811C86.8582 61.5507 87.1199 61.4307 87.185 61.1367C87.2058 61.0595 87.185 60.9838 87.185 60.9071L87.1953 60.8638C87.2173 60.3299 87.2609 59.7084 87.2609 59.1745C87.2609 58.3788 87.2276 57.5832 87.2398 56.7764C87.2398 56.2314 87.2609 55.6868 87.2609 55.1417C87.2609 54.8697 87.2609 54.5756 87.2398 54.2911C87.1738 53.528 86.8685 53.5078 86.2022 53.4199C86.1928 53.3862 86.1603 53.3759 86.1387 53.3541C86.2137 53.2026 86.1051 53.1694 86.3228 53.1259C86.433 53.103 86.5413 53.103 86.6399 53.103H86.6513Z" fill="white"></path>
<path d="M92.5583 56.8851C91.9909 58.3023 91.6421 58.411 92.9164 58.5102C93.4192 58.5423 93.2443 58.4658 93.7232 58.6518C94.225 58.8589 94.5846 59.0865 94.9335 59.4788C95.0206 59.5778 95.0868 59.6864 95.1613 59.7735C95.186 59.7962 95.217 59.8067 95.2385 59.8291C95.3586 59.9263 95.631 60.5906 95.631 60.7437C95.631 60.929 95.3586 60.9735 95.217 60.9735C95.0648 60.9838 94.8146 60.9508 94.8146 60.7551C94.8146 60.6454 94.9015 60.4604 94.9015 60.2421C94.8893 60.0239 94.8345 59.7196 94.6386 59.5892C94.225 59.3168 93.4618 59.284 92.982 59.2503C92.372 59.2178 91.8713 59.0006 91.5558 59.3919C91.3372 59.6547 90.988 59.9492 90.8142 60.929C90.7925 60.9838 90.7925 61.0489 90.7925 61.1151C90.7925 61.2663 90.8465 61.5725 90.9664 61.6923C90.988 61.7141 91.0319 61.7255 91.0645 61.7578V61.7688C91.0645 61.8122 91.0533 61.8445 91.0645 61.8774C90.8142 61.9654 90.5299 61.8445 90.2691 61.8445C90.0503 61.8445 89.7669 61.976 89.5601 61.9105C89.5707 61.8673 89.5601 61.8227 89.5601 61.7792C89.5601 61.6597 90.0404 61.2455 90.1376 61.0821C90.356 60.7012 90.5952 60.1117 90.782 59.7084C90.944 59.3276 91.1736 58.9779 91.3491 58.5973C91.817 57.5618 92.2739 56.515 92.7425 55.48C92.8523 55.2399 93.0156 55.0226 93.1242 54.7816C93.278 54.4558 93.4295 54.1281 93.5713 53.8011C93.6478 53.6272 93.69 53.4533 93.7894 53.2899C93.8438 53.2024 93.8438 53.1576 93.953 53.126C93.9633 53.126 93.9739 53.126 93.986 53.126C94.3025 53.126 94.4322 53.7576 94.5293 53.9869C94.7919 54.6299 95.1292 55.2518 95.4122 55.8948C95.5538 56.221 95.6528 56.5581 95.7949 56.8851C96.0022 57.3548 96.2415 57.8006 96.4484 58.2808C96.7213 58.9126 96.9725 59.5562 97.255 60.1768C97.3863 60.4386 97.6688 61.0716 97.79 61.2342C97.8872 61.3436 98.1915 61.5394 98.1915 61.6597C98.1915 61.7255 98.1385 61.7471 98.1149 61.8013C97.7671 61.8673 97.4072 61.7141 97.0584 61.7141C96.6457 61.7141 96.23 61.8559 95.816 61.8122C95.838 61.7688 95.816 61.7255 95.816 61.6811C95.8276 61.594 95.9367 61.594 95.9917 61.5507C96.1429 61.4412 96.2195 61.1802 96.2195 60.9961C96.2195 60.929 96.1865 60.8428 96.176 60.7883C96.1429 60.5369 95.9917 60.3195 95.8927 60.091C95.7509 59.7631 95.6528 59.4144 95.4778 59.0991C95.4033 58.9675 95.2937 58.8475 95.2276 58.6946C95.1183 58.4336 95.0979 58.1502 94.9988 57.8878C94.9555 57.7685 94.8685 57.6599 94.8146 57.54C94.6728 57.2453 94.5742 56.9296 94.4542 56.6243C94.4102 56.526 94.3336 56.4394 94.2912 56.34C94.1609 55.9915 94.0837 55.6329 93.8646 55.3274C93.7785 55.2078 93.7345 55.1313 93.5825 55.1313C93.4295 55.1313 93.3426 55.2836 93.278 55.3817C93.0922 55.6979 92.982 56.0472 92.8309 56.3739C92.7539 56.5487 92.6236 56.7009 92.547 56.8851H92.5583Z" fill="white"></path>
<path d="M77.631 63.4854L77.8007 63.4712H77.0695C76.971 64.5088 76.1003 65.3206 75.0389 65.3206C73.9752 65.3206 73.1031 64.5088 73.0066 63.4712H72.2731L72.4452 63.4854L69.8823 64.0979L72.5089 63.8889L70.074 64.8942L72.6366 64.278L70.3889 65.651L72.8224 64.6391L70.8154 66.3495L73.0598 64.9709L71.3476 66.9709L73.3506 65.2581L71.9707 67.5044L73.6794 65.498L72.6671 67.9308L74.0433 65.6831L73.4243 68.2447L74.4307 65.8096L74.222 68.4361L74.8326 65.8735L75.0389 68.5L75.2408 65.8735L75.853 68.4361L75.6431 65.8096L76.6507 68.2447L76.0304 65.6831L77.4052 67.9308L76.398 65.498L78.1043 67.5044L76.7249 65.2581L78.7281 66.9709L77.0143 64.9709L79.2593 66.3495L77.2543 64.6391L79.6884 65.651L77.4407 64.278L80.0003 64.8942L77.5659 63.8889L80.1918 64.0979L77.631 63.4854Z" fill="white"></path>
</g>
</svg>