<svg width="150" height="85" viewBox="0 0 150 85" fill="none" xmlns="http://www.w3.org/2000/svg">
<g clip-path="url(#clip0_832_328)">
<path d="M56.3177 33.0243C56.319 33.3654 56.179 33.6919 55.9308 33.9259C55.6812 34.1761 55.3397 34.3124 54.9865 34.303C54.6478 34.2929 54.3256 34.1546 54.0849 33.9161C53.1383 32.9695 51.5831 32.5901 50.5668 32.5947C49.0214 32.5947 47.8127 33.1237 46.9406 34.1816C46.0684 35.2396 45.6312 36.7413 45.6291 38.6867V52.6444C45.6559 53.0132 45.5048 53.3726 45.2226 53.6116C44.9762 53.8189 44.6658 53.9347 44.3438 53.9394C44.0219 53.9347 43.7115 53.8189 43.4651 53.6116C43.1824 53.373 43.0313 53.0133 43.0586 52.6444V38.6867C43.0499 37.5472 43.209 36.4127 43.5307 35.3195C43.8219 34.3222 44.3028 33.3904 44.9471 32.5753C45.5763 31.7823 46.375 31.1404 47.2848 30.6966C48.3105 30.219 49.4325 29.9845 50.5635 30.0113C51.5333 30.0281 52.4924 30.2168 53.3964 30.5687C54.3275 30.898 55.1764 31.4248 55.8848 32.113C56.1483 32.3445 56.3048 32.6741 56.3176 33.0245L56.3177 33.0243Z" fill="white"></path>
<path d="M62.7503 52.6439C62.7635 52.8257 62.7336 53.0081 62.6629 53.1762C62.5923 53.3443 62.4829 53.4933 62.3437 53.6111C62.0979 53.8197 61.7859 53.9343 61.4634 53.9343C61.1409 53.9343 60.8289 53.8197 60.5831 53.6111C60.4437 53.4935 60.3342 53.3445 60.2635 53.1764C60.1928 53.0083 60.163 52.8258 60.1765 52.6439V31.7361C60.1633 31.5543 60.1932 31.3719 60.2639 31.2038C60.3345 31.0357 60.4439 30.8867 60.5831 30.7689C60.8292 30.5609 61.1411 30.4468 61.4634 30.4468C61.7857 30.4468 62.0976 30.5609 62.3437 30.7689C62.4827 30.8869 62.5919 31.0359 62.6625 31.204C62.7332 31.372 62.7632 31.5543 62.7503 31.7361V52.6439Z" fill="white"></path>
<path d="M85.0667 52.644C85.0796 52.8261 85.0491 53.0087 84.9779 53.1768C84.9066 53.3449 84.7967 53.4938 84.6569 53.6112C84.4112 53.819 84.0999 53.933 83.7782 53.933C83.4565 53.933 83.1452 53.819 82.8995 53.6112C82.7601 53.4936 82.6506 53.3446 82.58 53.1765C82.5093 53.0084 82.4795 52.8259 82.4929 52.644V38.3882C82.4983 37.6143 82.3443 36.8475 82.0405 36.1357C81.4504 34.7446 80.343 33.6372 78.952 33.0472C78.2382 32.7499 77.4726 32.5969 76.6994 32.5969C75.9262 32.5969 75.1607 32.7499 74.4469 33.0472C73.0561 33.6375 71.9487 34.7448 71.3584 36.1357C71.0564 36.848 70.9035 37.6146 70.9092 38.3882V52.644C70.9227 52.8259 70.8929 53.0084 70.8222 53.1765C70.7515 53.3446 70.642 53.4936 70.5027 53.6112C70.2568 53.8199 69.9448 53.9344 69.6223 53.9344C69.2999 53.9344 68.9879 53.8199 68.742 53.6112C68.6026 53.4936 68.4931 53.3446 68.4224 53.1765C68.3518 53.0084 68.322 52.8259 68.3354 52.644V38.3882C68.3271 37.2672 68.5503 36.1566 68.9912 35.1259C69.4088 34.1328 70.0132 33.229 70.7715 32.4636C71.5268 31.7114 72.4165 31.1076 73.3944 30.6834C74.4314 30.2427 75.5465 30.0156 76.6732 30.0156C77.7999 30.0156 78.915 30.2427 79.9519 30.6834C81.9602 31.5184 83.5563 33.1145 84.3914 35.1228C84.8317 36.1537 85.0549 37.2642 85.0471 38.3851L85.0667 52.644Z" fill="white"></path>
<path d="M106.945 54.145C106.956 55.2716 106.733 56.3881 106.289 57.4237C105.442 59.4228 103.844 61.0097 101.84 61.8434C100.809 62.2835 99.6984 62.5068 98.5775 62.4992C97.9432 62.4955 97.3108 62.4309 96.6889 62.3057C96.0162 62.1752 95.3575 61.9809 94.7217 61.7254C94.084 61.4716 93.4796 61.1413 92.9217 60.7418C92.3924 60.3689 91.9347 59.9035 91.5708 59.3681C91.424 59.1532 91.3494 58.8971 91.3577 58.637C91.3484 58.2845 91.4976 57.9464 91.7643 57.7156C92.0132 57.48 92.3428 57.3486 92.6856 57.3484C92.8689 57.351 93.0502 57.3876 93.22 57.4566C93.4299 57.5479 93.6039 57.7058 93.7151 57.9058C94.225 58.6737 95.3255 59.2814 96.0528 59.5156C96.8622 59.7829 97.7086 59.9213 98.561 59.9254C99.3349 59.9306 100.102 59.7766 100.814 59.473C102.205 58.8829 103.312 57.7755 103.902 56.3844C104.21 55.6779 104.37 54.9157 104.371 54.1451V51.1943C103.611 51.9195 102.721 52.4947 101.748 52.8894C100.742 53.3051 99.6629 53.5168 98.5741 53.5123C97.4475 53.5239 96.3309 53.3006 95.2954 52.8566C93.3056 52.011 91.7214 50.4267 90.8757 48.4368C90.4313 47.4015 90.208 46.2847 90.2199 45.1581V38.3877C90.2116 37.2668 90.4348 36.156 90.8757 35.1254C91.2928 34.132 91.8973 33.2281 92.656 32.4631C93.4113 31.7109 94.301 31.1071 95.2789 30.6829C97.3741 29.7926 99.7413 29.7926 101.836 30.6829C103.845 31.5176 105.441 33.1137 106.276 35.1223C106.716 36.1532 106.939 37.2637 106.932 38.3846V54.145L106.945 54.145ZM104.371 38.3878C104.376 37.6138 104.222 36.8471 103.918 36.1352C103.328 34.7442 102.221 33.6367 100.83 33.0467C99.3881 32.4463 97.7665 32.4463 96.3247 33.0467C94.9297 33.6338 93.8175 34.7401 93.2231 36.1319C92.9216 36.8443 92.7688 37.6109 92.774 38.3845V45.1223C92.7664 45.9014 92.9193 46.6738 93.2231 47.3911C93.5162 48.0806 93.9392 48.7074 94.4691 49.237C94.9981 49.7669 95.625 50.1889 96.3149 50.4796C97.7566 51.08 99.3782 51.08 100.82 50.4796C102.211 49.8896 103.318 48.7822 103.908 47.3911C104.218 46.675 104.375 45.9024 104.371 45.1223L104.371 38.3878Z" fill="white"></path>
<path d="M61.4652 26.9001C62.6802 26.9001 63.6652 25.9151 63.6652 24.7C63.6652 23.485 62.6802 22.5 61.4652 22.5C60.2501 22.5 59.2651 23.485 59.2651 24.7C59.2651 25.9151 60.2501 26.9001 61.4652 26.9001Z" fill="white"></path>
</g>
<defs>
<clipPath id="clip0_832_328">
<rect width="63.8893" height="40" fill="white" transform="translate(43.0554 22.5)"></rect>
</clipPath>
</defs>
</svg>