<svg width="150" height="85" viewBox="0 0 150 85" fill="none" xmlns="http://www.w3.org/2000/svg">
<path d="M19.4864 46.378C19.4864 46.1731 19.5678 45.9765 19.7127 45.8316C19.8577 45.6867 20.0542 45.6053 20.2592 45.6053C20.4597 45.602 20.6537 45.6768 20.8001 45.8139C21.5515 46.5422 22.4452 47.1075 23.4251 47.4745C24.4051 47.8415 25.4503 48.0022 26.4952 47.9467C29.5862 47.9467 31.3172 46.8649 31.3172 45.2962C31.3172 43.9825 30.4903 43.3875 28.5275 43.0552C27.7548 42.9239 25.6452 42.7152 24.5633 42.5143C21.4724 41.9425 20.0505 41.1156 20.0505 39.006C20.0505 36.8964 22.446 35.2659 26.1088 35.2659C28.1266 35.1937 30.1085 35.8126 31.7267 37.0201C31.8097 37.0949 31.8755 37.1869 31.9195 37.2896C31.9636 37.3923 31.9848 37.5034 31.9817 37.6151C31.9817 37.82 31.9003 38.0166 31.7554 38.1615C31.6105 38.3064 31.4139 38.3878 31.209 38.3878C31.0339 38.393 30.8622 38.3385 30.7221 38.2333C29.3794 37.2399 27.7559 36.6987 26.0857 36.6878C23.041 36.6878 21.6269 37.7696 21.6269 38.9519C21.6269 40.1342 22.3456 40.6829 24.8184 41.0924C25.9775 41.2779 27.7625 41.4556 28.6821 41.6102C31.1781 41.9966 32.909 43.0011 32.909 45.2421C32.909 47.9467 30.0962 49.3686 26.4643 49.3686C22.8324 49.3686 20.5837 47.8694 19.6332 46.8958C19.5756 46.8236 19.5329 46.7406 19.5077 46.6517C19.4825 46.5628 19.4753 46.4698 19.4864 46.378Z" fill="white"></path>
<path d="M43.4493 35.266C44.5177 35.254 45.5731 35.5016 46.5248 35.9875C47.4764 36.4734 48.2958 37.1831 48.9126 38.0557V36.1933C48.9126 35.9884 48.994 35.7918 49.1389 35.6469C49.2839 35.502 49.4804 35.4206 49.6854 35.4206C49.8903 35.4206 50.0869 35.502 50.2318 35.6469C50.3767 35.7918 50.4581 35.9884 50.4581 36.1933V48.4646C50.4581 48.6695 50.3767 48.8661 50.2318 49.011C50.0869 49.1559 49.8903 49.2373 49.6854 49.2373C49.4804 49.2373 49.2839 49.1559 49.1389 49.011C48.994 48.8661 48.9126 48.6695 48.9126 48.4646V46.61C48.2929 47.4773 47.4721 48.1814 46.5205 48.6619C45.569 49.1423 44.5151 49.3849 43.4493 49.3687C41.6196 49.3081 39.885 48.5387 38.6121 47.2229C37.3392 45.9071 36.6276 44.1481 36.6276 42.3174C36.6276 40.4866 37.3392 38.7276 38.6121 37.4118C39.885 36.0961 41.6196 35.3266 43.4493 35.266ZM43.4493 47.9236C44.1801 47.9314 44.9048 47.791 45.5798 47.5109C46.2548 47.2308 46.8661 46.8168 47.3766 46.2939C47.8872 45.7711 48.2866 45.1502 48.5506 44.4687C48.8145 43.7872 48.9377 43.0593 48.9126 42.329C48.9126 40.88 48.337 39.4904 47.3124 38.4658C46.2879 37.4412 44.8983 36.8656 43.4493 36.8656C42.0003 36.8656 40.6107 37.4412 39.5861 38.4658C38.5616 39.4904 37.986 40.88 37.986 42.329C37.9609 43.0593 38.084 43.7872 38.348 44.4687C38.612 45.1502 39.0113 45.7711 39.5219 46.2939C40.0325 46.8168 40.6438 47.2308 41.3188 47.5109C41.9938 47.791 42.7185 47.9314 43.4493 47.9236Z" fill="white"></path>
<path d="M60.8206 48.6963C60.7069 48.644 60.6051 48.5691 60.5213 48.476C60.4376 48.383 60.3738 48.2739 60.3337 48.1554L54.5072 36.5642C54.4523 36.4512 54.4258 36.3265 54.4299 36.201C54.4303 36.0553 54.4719 35.9127 54.5498 35.7897C54.6278 35.6666 54.7389 35.5681 54.8704 35.5055C54.974 35.4553 55.0876 35.4289 55.2027 35.4282C55.3483 35.4286 55.4909 35.4702 55.6139 35.5481C55.737 35.6261 55.8355 35.7372 55.8982 35.8687L61.0833 46.3549C61.2553 46.7037 61.4 47.0654 61.516 47.4367H61.5392C61.658 47.0653 61.8053 46.7036 61.9797 46.3549L67.1571 35.8687C67.2197 35.7372 67.3182 35.6261 67.4413 35.5481C67.5643 35.4702 67.7069 35.4286 67.8526 35.4282C67.9677 35.4289 68.0812 35.4553 68.1848 35.5055C68.3163 35.5681 68.4275 35.6666 68.5054 35.7897C68.5833 35.9127 68.6249 36.0553 68.6253 36.201C68.6294 36.3265 68.6029 36.4512 68.548 36.5642L60.6428 52.3282C60.323 52.9847 59.8237 53.5371 59.2028 53.9214C58.5819 54.3057 57.8648 54.5062 57.1346 54.4996C56.5396 54.4982 55.9518 54.3708 55.4097 54.1257C54.8676 53.8806 54.3835 53.5235 53.9895 53.0778C53.8646 52.9171 53.8015 52.7169 53.8117 52.5137C53.8236 52.3169 53.9102 52.132 54.0538 51.997C54.1975 51.862 54.3873 51.7869 54.5845 51.7873C54.7111 51.7871 54.8357 51.818 54.9476 51.8773C55.0594 51.9366 55.155 52.0224 55.2259 52.1273C55.4447 52.4269 55.7323 52.6696 56.0644 52.835C56.3966 53.0004 56.7636 53.0837 57.1346 53.0778C57.6075 53.092 58.0735 52.9612 58.47 52.7029C58.8664 52.4446 59.1743 52.0712 59.3523 51.6327L60.8206 48.6963Z" fill="white"></path>
<path d="M79.5829 49.3688C78.5172 49.3843 77.4635 49.1415 76.5121 48.6611C75.5607 48.1807 74.7398 47.4769 74.1196 46.6101V53.2325C74.1196 53.4375 74.0382 53.634 73.8933 53.7789C73.7483 53.9239 73.5518 54.0053 73.3468 54.0053C73.1419 54.0053 72.9453 53.9239 72.8004 53.7789C72.6555 53.634 72.5741 53.4375 72.5741 53.2325V36.1703C72.5741 35.9653 72.6555 35.7688 72.8004 35.6239C72.9453 35.4789 73.1419 35.3975 73.3468 35.3975C73.5518 35.3975 73.7483 35.4789 73.8933 35.6239C74.0382 35.7688 74.1196 35.9653 74.1196 36.1703V38.0249C74.7434 37.1618 75.5651 36.4609 76.5157 35.9809C77.4662 35.5009 78.5181 35.2558 79.5829 35.2662C80.5106 35.2547 81.4311 35.429 82.2903 35.7788C83.1496 36.1285 83.9302 36.6466 84.5862 37.3026C85.2422 37.9586 85.7603 38.7392 86.11 39.5985C86.4598 40.4577 86.6341 41.3782 86.6227 42.3059C86.6309 43.2337 86.4545 44.1539 86.104 45.013C85.7534 45.8722 85.2355 46.653 84.5805 47.3102C83.9254 47.9674 83.1463 48.4878 82.2884 48.8412C81.4304 49.1946 80.5108 49.3739 79.5829 49.3688ZM79.5829 36.7112C78.8522 36.7034 78.1274 36.8439 77.4524 37.124C76.7774 37.4041 76.1661 37.8181 75.6556 38.3409C75.145 38.8638 74.7456 39.4847 74.4817 40.1661C74.2177 40.8476 74.0945 41.5755 74.1196 42.3059C74.1196 43.7548 74.6952 45.1445 75.7198 46.169C76.7443 47.1936 78.134 47.7692 79.5829 47.7692C81.0319 47.7692 82.4215 47.1936 83.4461 46.169C84.4706 45.1445 85.0462 43.7548 85.0462 42.3059C85.0713 41.5755 84.9482 40.8476 84.6842 40.1661C84.4202 39.4847 84.0209 38.8638 83.5103 38.3409C82.9997 37.8181 82.3884 37.4041 81.7134 37.124C81.0384 36.8439 80.3137 36.7034 79.5829 36.7112Z" fill="white"></path>
<path d="M103.013 42.0202C103.098 40.8353 102.829 39.6519 102.24 38.6201C101.809 38.0019 101.229 37.5027 100.554 37.1689C99.8779 36.8352 99.129 36.6778 98.3762 36.7114C97.4562 36.6911 96.5464 36.908 95.7344 37.341C94.9224 37.7741 94.2354 38.4088 93.7397 39.1842C93.1837 40.1009 92.8996 41.1568 92.9206 42.2288V48.4649C92.9206 48.6698 92.8392 48.8664 92.6943 49.0113C92.5494 49.1562 92.3528 49.2376 92.1479 49.2376C91.9429 49.2376 91.7464 49.1562 91.6015 49.0113C91.4565 48.8664 91.3751 48.6698 91.3751 48.4649V31.4026C91.3751 31.1977 91.4565 31.0011 91.6015 30.8562C91.7464 30.7113 91.9429 30.6299 92.1479 30.6299C92.3528 30.6299 92.5494 30.7113 92.6943 30.8562C92.8392 31.0011 92.9206 31.1977 92.9206 31.4026V37.9478C93.5469 37.0928 94.3711 36.4022 95.3226 35.9353C96.274 35.4683 97.3244 35.2388 98.3839 35.2664C99.4126 35.2325 100.433 35.4583 101.352 35.9229C102.27 36.3875 103.056 37.0759 103.639 37.9246C104.334 39.2007 104.655 40.647 104.566 42.0975V48.4649C104.566 48.6698 104.485 48.8664 104.34 49.0113C104.195 49.1562 103.998 49.2376 103.793 49.2376C103.588 49.2376 103.392 49.1562 103.247 49.0113C103.102 48.8664 103.02 48.6698 103.02 48.4649L103.013 42.0202Z" fill="white"></path>
<path d="M116.08 35.266C117.148 35.2546 118.203 35.5025 119.155 35.9883C120.106 36.4742 120.926 37.1836 121.543 38.0556V36.1933C121.543 35.9884 121.625 35.7918 121.77 35.6469C121.914 35.502 122.111 35.4206 122.316 35.4206C122.521 35.4206 122.717 35.502 122.862 35.6469C123.007 35.7918 123.089 35.9884 123.089 36.1933V48.4645C123.089 48.6695 123.007 48.866 122.862 49.0109C122.717 49.1559 122.521 49.2373 122.316 49.2373C122.111 49.2373 121.914 49.1559 121.77 49.0109C121.625 48.866 121.543 48.6695 121.543 48.4645V46.6099C120.923 47.4768 120.102 48.1805 119.151 48.6609C118.199 49.1414 117.146 49.3842 116.08 49.3686C114.25 49.3081 112.516 48.5386 111.243 47.2229C109.97 45.9071 109.258 44.148 109.258 42.3173C109.258 40.4866 109.97 38.7276 111.243 37.4118C112.516 36.096 114.25 35.3266 116.08 35.266ZM116.08 47.9236C116.811 47.9313 117.535 47.7909 118.21 47.5108C118.885 47.2307 119.497 46.8167 120.007 46.2939C120.518 45.771 120.917 45.1501 121.181 44.4686C121.445 43.7872 121.568 43.0593 121.543 42.3289C121.543 41.6115 121.402 40.901 121.127 40.2382C120.853 39.5753 120.45 38.9731 119.943 38.4658C119.436 37.9584 118.833 37.556 118.171 37.2815C117.508 37.0069 116.797 36.8656 116.08 36.8656C115.362 36.8656 114.652 37.0069 113.989 37.2815C113.326 37.556 112.724 37.9584 112.217 38.4658C111.709 38.9731 111.307 39.5753 111.032 40.2382C110.758 40.901 110.617 41.6115 110.617 42.3289C110.591 43.0593 110.715 43.7872 110.979 44.4686C111.243 45.1501 111.642 45.771 112.153 46.2939C112.663 46.8167 113.274 47.2307 113.949 47.5108C114.624 47.7909 115.349 47.9313 116.08 47.9236Z" fill="white"></path>
<path d="M127.787 36.1626C127.057 36.1503 126.362 35.8503 125.852 35.3278C125.343 34.8053 125.061 34.1027 125.067 33.3729C125.047 33.003 125.103 32.633 125.231 32.2853C125.359 31.9377 125.556 31.6198 125.811 31.351C126.066 31.0821 126.373 30.8681 126.713 30.7218C127.054 30.5755 127.42 30.5 127.791 30.5C128.161 30.5 128.528 30.5755 128.868 30.7218C129.208 30.8681 129.515 31.0821 129.77 31.351C130.025 31.6198 130.223 31.9377 130.351 32.2853C130.479 32.633 130.534 33.003 130.515 33.3729C130.519 34.1034 130.235 34.806 129.724 35.3283C129.213 35.8506 128.517 36.1504 127.787 36.1626ZM127.787 30.9774C127.163 30.9916 126.57 31.251 126.136 31.6994C125.702 32.1477 125.462 32.749 125.469 33.3729C125.469 33.9878 125.713 34.5774 126.148 35.0122C126.582 35.4469 127.172 35.6912 127.787 35.6912C128.402 35.6912 128.991 35.4469 129.426 35.0122C129.861 34.5774 130.105 33.9878 130.105 33.3729C130.111 32.749 129.872 32.1477 129.438 31.6994C129.004 31.251 128.411 30.9916 127.787 30.9774ZM127.841 33.682H127.068V34.6557C127.066 34.7056 127.045 34.7528 127.009 34.7873C126.973 34.8219 126.925 34.8412 126.875 34.8412C126.85 34.8422 126.825 34.8382 126.802 34.8293C126.778 34.8205 126.757 34.807 126.739 34.7896C126.721 34.7723 126.707 34.7515 126.697 34.7285C126.687 34.7055 126.682 34.6807 126.682 34.6557V32.1365C126.682 32.0853 126.702 32.0362 126.738 31.9999C126.775 31.9637 126.824 31.9434 126.875 31.9434H127.996C128.139 31.9414 128.281 31.9685 128.414 32.023C128.547 32.0774 128.667 32.1581 128.768 32.2602C128.9 32.4098 128.974 32.6017 128.977 32.8011C128.984 32.9123 128.967 33.0238 128.927 33.1278C128.887 33.2319 128.825 33.326 128.745 33.4038C128.6 33.5357 128.415 33.617 128.22 33.6357L128.884 34.5089C128.904 34.5503 128.917 34.5946 128.923 34.6402C128.924 34.6649 128.92 34.6895 128.911 34.7125C128.902 34.7355 128.888 34.7564 128.871 34.7738C128.854 34.7913 128.833 34.8049 128.81 34.8138C128.787 34.8227 128.762 34.8268 128.737 34.8257C128.709 34.8235 128.681 34.8156 128.656 34.8023C128.631 34.789 128.608 34.7707 128.591 34.7484L127.841 33.682ZM127.068 32.3297V33.3343H127.996C128.176 33.351 128.355 33.2985 128.498 33.1875C128.546 33.1406 128.583 33.0839 128.607 33.0212C128.631 32.9585 128.641 32.8913 128.637 32.8243C128.641 32.71 128.599 32.5989 128.521 32.5152C128.451 32.4493 128.368 32.3988 128.278 32.3669C128.187 32.3349 128.091 32.3223 127.996 32.3297H127.068Z" fill="white"></path>
</svg>