<svg width="150" height="85" viewBox="0 0 150 85" fill="none" xmlns="http://www.w3.org/2000/svg">
<mask id="mask0_832_431" style="mask-type:luminance" maskUnits="userSpaceOnUse" x="45" y="18" width="60" height="49">
<path d="M104.062 18.5H45.9382V66.5H104.062V18.5Z" fill="white"></path>
</mask>
<g mask="url(#mask0_832_431)">
<path d="M65.7016 45.5189C65.2011 43.9364 66.0783 42.2479 67.6606 41.7476C69.243 41.2472 70.9313 42.1243 71.4317 43.7066C71.9322 45.289 71.0551 46.9773 69.4728 47.4776C67.8904 47.978 66.2019 47.1011 65.7016 45.5189Z" fill="white"></path>
<path d="M68.1042 56.4046C67.589 54.7829 66.9389 54.2683 65.3122 54.2014L58.5076 54.1672L58.0518 52.7329L61.8912 51.5127L62.5147 53.4754L66.7461 52.1309L66.0841 50.0476C65.7246 48.9162 65.2596 48.2171 64.6209 47.8472C63.9139 47.4376 63.0156 47.4278 61.7941 47.8159L55.8724 49.6976C53.7973 50.357 53.0346 51.6026 53.6055 53.3993L54.3852 55.8527C54.864 57.3596 55.533 57.8784 57.1385 57.9882L63.9737 58.0666L64.508 59.7478L60.6689 60.9683L59.9741 58.7822L55.7431 60.1264L56.5471 62.656C56.8555 63.6267 57.4367 64.3166 58.2279 64.6517C58.5879 64.804 58.9858 64.8816 59.4103 64.8847C59.8392 64.8877 60.2952 64.8141 60.7661 64.6643L66.5379 62.8304C68.59 62.1781 69.4485 60.6348 68.8343 58.7018L68.1042 56.4046Z" fill="white"></path>
<path d="M79.9424 51.1596L78.4168 46.3593L82.0067 45.2186L83.5321 50.0189L79.9424 51.1596ZM86.0967 43.3446C85.7828 42.3562 85.3953 41.7277 84.8776 41.3668C84.29 40.9573 83.5472 40.9035 82.6059 41.2027L73.0563 44.2372L77.8252 59.2437L82.0815 57.8912L81.0111 54.523L85.9542 52.9523C86.8834 52.6569 87.5512 52.116 87.8852 51.3877C88.1775 50.7505 88.2044 49.9775 87.9608 49.2109L86.0967 43.3446Z" fill="white"></path>
<path d="M101.465 47.9057L95.1021 49.9274L98.8085 39.5465L97.8003 36.374L86.2483 40.045L87.3525 43.5198L93.6916 41.5054L90.009 51.8792L91.0169 55.0517L102.569 51.3805L101.465 47.9057Z" fill="white"></path>
<path d="M53.7079 38.5433L52.8459 35.8298L56.3607 34.7129L57.2227 37.4264L53.7079 38.5433ZM54.7058 41.6834L58.4702 40.4872L59.3412 43.229L55.5769 44.4252L54.7058 41.6834ZM63.6077 44.5837C63.9495 43.9345 64.0074 43.1662 63.7703 42.4204L62.7874 39.3268C62.5897 38.7048 62.2251 37.9031 61.3027 37.6683C61.5401 37.2596 61.6639 36.6569 61.3893 35.7926L60.4862 32.9502C59.8514 30.9526 58.6335 30.3153 56.6536 30.9444L47.5247 33.8314L52.3752 49.0962L61.4497 46.2126C62.4713 45.8879 63.2175 45.3245 63.6077 44.5837Z" fill="white"></path>
<path d="M71.5666 39.5502C72.0464 41.0606 73.0412 41.8486 74.4301 41.8581C74.8983 41.8613 75.4112 41.7762 75.9642 41.6005L81.636 39.7981C82.7741 39.4363 83.5379 38.8381 83.9064 38.0197C84.2132 37.3379 84.2286 36.5148 83.9506 35.6395L82.126 29.8982L75.3213 32.0607L76.2979 35.134L78.9216 34.3004L79.6602 36.6248L75.6707 37.8925L73.0386 29.6081L76.9777 28.3563L77.4954 29.9846L81.7265 28.64L81.1281 26.7574C80.4108 24.5 79.1621 23.8363 76.9522 24.5385L70.9057 26.4603C68.7973 27.13 68.0391 28.4485 68.6523 30.3784L71.5666 39.5502Z" fill="white"></path>
<path d="M71.0043 48.1564C70.6639 48.3851 70.294 48.5635 69.9046 48.6864C69.5786 48.7897 69.2392 48.8535 68.8958 48.8765L68.5995 48.8964L70.8084 61.4496L76.4962 59.6412L71.2667 47.98L71.0043 48.1564Z" fill="white"></path>
<path d="M66.2089 41.0468C66.5516 40.8149 66.9251 40.6344 67.3189 40.5097C67.65 40.405 67.994 40.3407 68.3416 40.3185L68.6389 40.2996L66.4469 27.8472L60.7566 29.6469L65.946 41.2243L66.2089 41.0468Z" fill="white"></path>
<path d="M67.805 56.5C67.323 54.9831 66.771 54.5444 65.2657 54.4828L58.2672 54.4475L57.6718 52.5739L62.0194 51.1924L62.643 53.1551L66.3661 51.9719L65.7849 50.1428C65.154 48.158 64.1536 47.346 61.8296 48.0846L55.908 49.9661C54.1091 50.5381 53.2544 51.571 53.8144 53.3329L54.5941 55.7866C55.0477 57.2143 55.6494 57.6368 57.1116 57.737L64.1244 57.8165L64.7978 59.936L60.4503 61.3177L59.7557 59.1316L56.0329 60.3145L56.7559 62.5899C57.3583 64.4854 58.9412 64.9647 60.6402 64.4252L66.4119 62.591C68.3859 61.9633 69.0949 60.5595 68.5351 58.7976L67.805 56.5Z" fill="white"></path>
<path d="M79.7239 51.5088L78.037 46.2004L82.135 44.8985L83.8219 50.2066L79.7239 51.5088ZM85.7978 43.4396C85.2521 41.722 84.4155 40.9074 82.6415 41.4712L73.3464 44.4247L77.9535 58.9233L81.7016 57.7325L80.6313 54.3641L85.8283 52.7125C87.6773 52.1248 88.0872 50.6445 87.6616 49.3059L85.7978 43.4396Z" fill="white"></path>
<path d="M101.246 48.255L94.6248 50.3591L98.4821 39.5561L97.5817 36.7231L86.5378 40.2327L87.4808 43.1993L94.0772 41.1031L90.2451 51.8984L91.1452 54.731L102.189 51.2217L101.246 48.255Z" fill="white"></path>
<path d="M55.3584 44.7743L54.3259 41.5246L58.5985 40.1668L59.6311 43.4168L55.3584 44.7743ZM52.4659 35.6709L56.4889 34.3925L57.5124 37.6142L53.4896 38.8926L52.4659 35.6709ZM63.4712 42.5156L62.4882 39.4219C62.1763 38.4404 61.678 37.9112 60.7615 37.8833C61.2687 37.4026 61.3522 36.7131 61.09 35.8877L60.1871 33.0455C59.6554 31.3726 58.7128 30.5699 56.689 31.2131L47.8147 34.0195L52.5035 48.7758L61.3238 45.9729C63.3977 45.3138 63.8752 43.787 63.4712 42.5156Z" fill="white"></path>
<path d="M71.7758 39.4835C72.3853 41.4018 73.8395 41.9956 75.8383 41.3604L81.5105 39.558C83.8091 38.8274 84.1193 37.2065 83.6512 35.7342L81.9078 30.2471L75.611 32.248L76.4263 34.8133L79.05 33.9796L79.9499 36.8121L75.4525 38.2413L72.6589 29.4487L77.1064 28.0354L77.6238 29.6639L81.3467 28.4808L80.8293 26.8524C80.1985 24.8675 79.1617 24.116 76.9882 24.8067L70.9416 26.7281C69.1675 27.2922 68.2377 28.349 68.8615 30.3117L71.7758 39.4835Z" fill="white"></path>
<path d="M68.8685 49.1567L70.9731 61.1172L76.0855 59.4919L71.1078 48.3921C70.7557 48.6287 70.365 48.8205 69.94 48.9549C69.5842 49.0674 69.2249 49.1329 68.8685 49.1567Z" fill="white"></path>
<path d="M68.2795 40.0668L66.1919 28.2075L61.0771 29.8251L66.0144 40.8402C66.3696 40.6002 66.764 40.4057 67.1934 40.2699C67.554 40.1558 67.9183 40.09 68.2795 40.0668Z" fill="white"></path>
<path d="M91.8721 19.3128C90.4529 19.3221 89.053 19.6947 87.7855 20.4159C85.8369 21.5254 84.437 23.3273 83.8434 25.4899H83.8431C83.2498 27.6521 83.5335 29.9163 84.643 31.8651C85.752 33.8141 87.5545 35.2143 89.7171 35.8079C94.1817 37.033 98.8098 34.3979 100.035 29.934C100.629 27.7716 100.345 25.5074 99.2354 23.5584C98.1258 21.6097 96.3238 20.2094 94.1613 19.6159C93.4045 19.4083 92.6356 19.3079 91.8721 19.3128ZM91.9953 36.9221C91.1713 36.9275 90.3342 36.8214 89.5015 36.5929C87.1293 35.9417 85.1526 34.4058 83.9355 32.2679C82.7187 30.1301 82.4071 27.6461 83.0583 25.2741C83.7093 22.9021 85.2453 20.9255 87.3832 19.7085C89.5214 18.4915 92.0054 18.1801 94.3766 18.8308C96.7491 19.4822 98.7258 21.018 99.9426 23.156C101.16 25.2935 101.471 27.7775 100.82 30.1495C99.7046 34.2138 96.017 36.8959 91.9953 36.9221Z" fill="white"></path>
<path d="M83.8332 25.4963C85.0618 21.0192 89.6874 18.3855 94.1643 19.6144C98.6409 20.843 101.274 25.4688 100.045 29.9455C98.8163 34.4223 94.191 37.0552 89.7141 35.8263C85.2374 34.5975 82.6047 29.9728 83.8332 25.4963ZM94.5588 34.4797C94.9882 34.5154 95.2038 34.5273 95.635 34.5422L95.7395 34.1672C95.5006 34.1504 95.378 34.1402 95.133 34.1174L95.1193 34.1164L95.6867 32.0431L95.2551 31.924L94.5588 34.4797ZM94.0051 31.5803C93.8959 31.5504 93.7986 31.5596 93.716 31.6066C93.6086 31.6681 93.525 31.7969 93.4758 31.9787L92.9934 33.756C92.9432 33.9396 92.9534 34.0918 93.0217 34.1955C93.0712 34.2705 93.152 34.3177 93.2541 34.3322C93.4453 34.3596 93.5401 34.3724 93.7346 34.3957C94.0834 34.4374 94.2319 34.1674 94.2951 33.9338L94.7385 32.3019C94.8292 31.9677 94.7384 31.7826 94.4436 31.7013L94.0061 31.5803H94.0051ZM91.9699 31.0178C91.8551 31.7018 91.7945 32.1145 91.7307 32.551C91.6722 32.9521 91.6115 33.3669 91.5041 34.0119C91.7854 34.075 91.9289 34.1051 92.2141 34.1594C92.4644 33.5198 92.6301 33.124 92.7902 32.7414C92.9442 32.3738 93.1039 31.9941 93.3391 31.3967L92.8986 31.2746C92.678 31.8814 92.54 32.2416 92.3947 32.6222C92.294 32.8859 92.1898 33.159 92.049 33.5363L92.0461 33.5461L91.9816 33.5314L91.9826 33.5197C92.0515 33.1447 92.0999 32.8681 92.1467 32.6008C92.2189 32.1894 92.2874 31.8009 92.4143 31.1408L91.9699 31.0178ZM93.9328 32.0353C94.0832 32.0735 94.1586 32.0923 94.3088 32.1301L94.3205 32.133L94.3176 32.1447L93.8244 33.9621L93.8147 33.9601C93.6579 33.9373 93.5814 33.9262 93.4279 33.9015L93.4152 33.8986L93.4182 33.8859L93.9211 32.0324L93.9328 32.0353ZM91.2785 30.8254C90.9675 31.4618 90.764 31.8398 90.549 32.2394C90.3519 32.6049 90.1481 32.9828 89.8547 33.5773C90.0236 33.6288 90.1123 33.6541 90.2834 33.7023C90.5821 33.094 90.7887 32.7102 90.9875 32.339C91.1907 31.9607 91.4004 31.5696 91.7053 30.9445L91.2785 30.8254ZM89.5568 30.3488C89.2944 30.2774 89.1261 30.3874 89.0422 30.6857C88.9263 31.1001 88.848 31.3784 88.7688 31.6594C88.6952 31.9209 88.6207 32.1857 88.5139 32.5666C88.4238 32.8884 88.5112 33.1233 88.7541 33.2111C88.9229 33.2721 89.0066 33.3015 89.1779 33.3596C89.2913 33.398 89.3918 33.3951 89.4758 33.3508C89.5905 33.2898 89.6791 33.1494 89.7385 32.9347C89.8028 32.7033 89.8348 32.5914 89.8947 32.3771C89.7225 32.3252 89.6332 32.2977 89.4641 32.2443L89.2834 32.8918L89.2717 32.8879C89.1301 32.8412 89.0635 32.8183 88.9309 32.7726L88.9201 32.7687L88.9231 32.758C89.0334 32.3633 89.1104 32.0901 89.1857 31.8205C89.2664 31.5345 89.3461 31.2519 89.4631 30.8322L89.466 30.8215L89.4777 30.8244C89.6149 30.8642 89.6843 30.8845 89.8215 30.924L89.8332 30.9269L89.6926 31.4279C89.8626 31.4786 89.9531 31.5055 90.1232 31.5549L90.2453 31.1164C90.2987 30.9247 90.3062 30.795 90.2707 30.6955C90.2304 30.5829 90.1331 30.5082 89.9641 30.4611L89.5598 30.3498C89.5588 30.3495 89.5579 30.349 89.5568 30.3488ZM87.4465 31.2101C87.3443 31.573 87.2414 31.9369 87.0754 32.5285C87.4676 32.7064 87.6663 32.791 88.0647 32.9494C88.1156 32.7657 88.1423 32.6731 88.1897 32.5041C87.9646 32.4189 87.8501 32.3744 87.6203 32.2814L87.6106 32.2775L87.6135 32.2678C87.7232 31.878 87.8021 31.5983 87.8772 31.3322C87.9847 30.9516 88.0857 30.5979 88.257 29.9875L87.8244 29.8683C87.6545 30.4731 87.5512 30.8411 87.4465 31.2101ZM86.4377 29.4836C86.2158 30.0425 86.0754 30.3668 85.9397 30.6799C85.8153 30.966 85.6863 31.262 85.4953 31.7385C85.6545 31.8259 85.738 31.8709 85.8996 31.9553C85.9763 31.7525 86.0158 31.6528 86.09 31.464L86.0949 31.4523L86.1057 31.4582C86.25 31.5258 86.3216 31.558 86.4689 31.6242L86.4777 31.6281L86.4758 31.6379C86.438 31.8488 86.418 31.9609 86.3732 32.1965C86.5386 32.2782 86.6237 32.3193 86.7844 32.3947C86.8989 31.7581 86.9576 31.3855 87.0197 30.9914C87.0749 30.6394 87.1328 30.2755 87.2336 29.7043C86.9178 29.6166 86.7541 29.5711 86.4377 29.4836ZM96.9875 28.7443C96.9035 28.7208 96.8215 28.7235 96.7453 28.7541C96.5773 28.8213 96.461 28.9539 96.3762 29.2531L95.9299 30.8068C95.7435 31.4642 96.0174 31.5962 96.2863 31.675L96.9152 31.8732C97.0483 31.9098 97.1968 31.914 97.3156 31.8478C97.4948 31.7481 97.5908 31.6399 97.6633 31.3762L98.0158 30.1183C98.139 29.6699 98.0661 29.4108 97.7375 29.2062C97.4777 29.0447 97.3578 28.9436 97.1164 28.801C97.0734 28.7753 97.0302 28.7563 96.9875 28.7443ZM97.4758 29.8019L97.0617 31.2629C96.9655 31.2268 96.5167 31.0608 96.5031 31.0558L96.9445 29.5119C96.9445 29.5119 97.263 29.6822 97.4758 29.8019ZM86.7629 30.0265L86.7609 30.0373C86.7033 30.3578 86.6683 30.5561 86.6291 30.7853C86.6056 30.921 86.5809 31.0649 86.549 31.2472L86.5461 31.2619L86.5324 31.256C86.4134 31.2063 86.3539 31.1808 86.2356 31.1301L86.2238 31.1252L86.2287 31.1144C86.2796 30.9882 86.3221 30.8825 86.3615 30.7844C86.4598 30.5422 86.5378 30.3512 86.6711 30.0099L86.674 29.9992L86.7629 30.0265ZM98.4875 24.9035C98.4604 24.9374 95.4256 28.7263 93.7131 30.9504L94.4064 31.1437C94.4064 31.1437 96.0666 28.9293 98.8957 25.4748C98.6611 25.1121 98.495 24.9124 98.4875 24.9035ZM94.3732 21.6838C92.6506 21.1951 90.5679 20.7198 89.7648 22.8156C89.3567 24.4943 88.7711 26.1946 88.4094 27.8781C88.2414 28.6598 88.2422 29.3998 89.0979 29.7199C90.0019 30.0582 91.0834 30.2157 92.0109 30.5158C93.0424 30.6305 93.4317 29.9161 93.7033 29.0676C93.9161 28.4036 94.1846 27.5368 94.3215 26.8615C94.7358 24.8185 92.9289 24.9343 91.4904 24.6222L90.8469 25.0002C91.0056 24.4717 91.1019 23.9141 91.2766 23.3908C91.327 23.2407 91.3575 23.1093 91.507 23.0197C91.712 22.8978 92.2253 22.9803 92.4729 23.0109C93.3184 23.1162 94.137 23.3694 94.9641 23.5568L95.3732 22.0178C95.0598 21.8804 94.7088 21.7789 94.3732 21.6838ZM89.4797 21.4484C88.3374 21.5788 87.3022 22.0705 87.2981 22.0724C87.2981 22.0724 86.896 22.8287 86.3459 23.9221C86.3572 23.9189 86.7729 23.8039 87.4055 23.6857L85.9807 28.8322L87.3986 29.2267L89.4797 21.4484ZM92.5246 26.506L91.9397 28.6584L89.9875 28.1916L90.5402 26.134L92.5246 26.506ZM96.5969 23.0109C96.4744 22.9188 96.2745 22.8424 96.1516 22.884C95.9522 22.9512 95.8126 23.0925 95.7102 23.4553L95.175 25.3566C94.9842 26.0323 95.2686 26.2003 95.549 26.3332C95.8371 26.4695 95.934 26.5154 96.2258 26.6379C96.2302 26.6398 96.4323 26.7291 96.5852 26.6857C96.7587 26.6178 96.8714 26.5249 96.9602 26.2121L97.4328 24.5422C97.531 24.1963 97.5596 23.8325 97.1535 23.4728C96.9069 23.2541 96.8539 23.2035 96.5969 23.0109ZM96.2785 23.7892C96.2785 23.7892 96.6546 24.0567 96.8596 24.2306L96.385 25.9074C96.1314 25.7771 95.7676 25.6055 95.7658 25.6047L96.2785 23.7892Z" fill="white"></path>
</g>
</svg>