<svg width="150" height="85" viewBox="0 0 150 85" fill="none" xmlns="http://www.w3.org/2000/svg">
<g clip-path="url(#clip0_832_275)">
<path fill-rule="evenodd" clip-rule="evenodd" d="M66.5781 42.4766C63.7656 44.068 61.4152 47.3915 60.0903 50.0914C59.4064 51.1122 59.7223 53.188 61.6706 51.8874C63.106 50.9276 65.9347 46.8519 67.7742 43.82C67.9751 43.488 68.2019 42.788 68.1223 42.4553C67.8308 41.8716 66.9417 42.303 66.5781 42.4766ZM78.0218 44.5038C76.0469 45.0565 74.6145 46.768 73.8542 48.5397C73.4551 49.4672 72.9745 51.0003 73.5383 51.76C73.7709 52.0472 74.175 51.88 74.4062 51.7115C75.1938 51.1675 75.7658 50.3233 76.2471 49.568C77.1304 47.992 77.9063 46.3086 78.1263 44.4802L78.0218 44.5038ZM85.758 45.0323C84.7311 45.5631 84.146 47.2802 83.9465 48.2314C83.6984 49.4275 83.4702 51.0563 84.0142 51.7718C84.1392 51.8925 84.3027 51.9801 84.5022 51.9751C85.3185 51.9926 85.886 50.7324 86.2062 50.0081C86.7421 48.8039 87.2227 46.8998 87.0511 45.6837C86.9857 45.0565 86.3865 44.7792 85.758 45.0323ZM65.5822 26.0718C67.5666 28.1034 68.1665 31.1484 67.214 33.7631C64.9469 39.5633 59.0627 43.6956 52.8819 45.3555C49.9576 46.0164 45.7265 46.3403 43.0428 44.9682C40.6431 43.6434 39.4942 40.8477 39.9617 38.2038C40.7102 34.1591 43.8216 31.2192 47.4983 29.2796C50.5625 27.8044 54.1825 27.1435 57.846 27.5557C58.2508 27.6197 58.6225 27.8156 58.7257 28.2837C58.7668 28.62 58.7146 28.8475 58.5578 29.0632C58.2987 29.3797 57.9991 29.4555 57.6657 29.4363C53.5378 29.4114 49.295 30.4359 46.2705 33.1153C44.4987 34.7964 43.0701 37.4559 44.4384 40.2802C45.3143 42.0594 48.4537 42.604 50.2983 42.4355C61.0265 41.4433 64.3389 34.8915 64.9667 32.6435C66.2579 28.0232 61.731 24.0917 53.0343 25.3003C41.7819 26.8638 34.7826 34.5035 33.3509 42.3317C31.847 50.5558 39.7696 54.0441 48.023 52.3084C51.3869 51.6033 54.9311 50.0031 58.3907 46.712C61.2422 43.7192 65.1457 39.3631 69.5665 40.0359C70.1111 40.1595 70.7737 40.4356 70.9298 41.0392C71.191 42.1072 70.6419 43.0603 70.2945 44.0084C66.7789 50.0044 67.1389 52.4364 67.7668 52.7472C69.0579 53.1563 69.8904 51.3155 70.522 50.2842C71.3618 46.4043 74.4224 42.727 78.3707 41.6111C78.4906 41.1443 78.5031 40.6718 78.4906 40.1882C78.4296 38.111 77.4543 36.672 76.8338 34.9754C76.6872 34.5285 76.8389 33.9794 77.187 33.6445C77.463 33.359 78.0593 33.0439 78.5422 33.175C79.0141 33.2552 79.3379 33.635 79.5897 33.9677C80.4869 35.3478 81.4791 36.1442 83.3576 36.1435C84.759 36.1914 86.1826 36.0963 87.3066 35.3566C88.014 34.5477 88.8222 33.6724 89.8785 33.387C90.3907 33.2845 90.7992 33.3914 91.1504 33.7041C91.4787 34.0354 91.5626 34.5352 91.383 34.9804C91.0591 35.8122 89.902 36.6153 89.0827 37.4846C87.7387 38.9155 86.7546 40.6593 86.067 42.5157C86.4897 42.3846 87.0791 42.244 87.6224 42.3485C89.1858 42.6438 89.682 44.1439 89.771 45.5719C89.7989 46.0201 89.7858 46.5 89.7187 46.9631C90.6152 46.8232 91.1858 46.4882 91.8578 46.1438C93.0061 45.4997 93.9592 44.5517 94.8793 43.6515C95.2871 43.276 95.9032 43.1405 96.3663 43.3121C96.7306 43.4203 97.0309 43.7435 97.0949 44.1432C97.2577 45.2244 96.2911 45.5631 94.9066 47.6638C94.1338 48.8393 93.2548 50.0597 93.1068 51.4995C93.087 51.7593 93.151 52.0044 93.3219 52.1951C93.639 52.4594 94.1624 52.3202 94.5032 52.1237C95.2143 51.7283 95.7832 51.0917 96.2021 50.4365C96.8138 48.2071 97.6911 46.0885 99.4777 44.5392C99.9303 44.1991 100.479 43.8766 101.071 44.0077C101.39 44.0637 101.65 44.2918 101.715 44.5473C102.07 45.6116 101.338 46.9998 100.83 47.8919C100.179 49.0402 99.1265 50.1436 98.227 51.1557C98.2027 51.6872 98.3227 52.0286 98.7349 52.1324C99.3628 52.215 99.8589 51.7476 100.346 51.3559C101.707 50.0877 102.994 48.6031 103.799 46.9035C103.667 45.3723 104.191 43.6117 105.558 42.8042C106.023 42.5716 106.562 42.5952 106.934 42.8483C107.314 43.1392 107.327 43.6926 107.254 44.1638C107.147 44.7158 106.835 45.1516 106.559 45.6315C107.318 45.68 107.986 45.3231 108.687 45.1479C109.051 45.072 109.267 45.1765 109.47 45.3356C109.835 45.6794 109.87 46.1276 109.687 46.5722C109.302 47.3884 108.782 47.8279 108.231 48.5957C107.471 49.6556 106.778 51.0806 106.754 52.1473C106.758 52.399 106.863 52.5719 107.035 52.6441C107.443 52.7883 107.795 52.4843 108.134 52.2791C110.486 50.4999 112.287 47.9604 114.238 45.8486C114.75 45.3717 115.335 44.8806 116.055 45.1081C116.306 45.1957 116.503 45.3966 116.57 45.6676C116.679 46.1799 116.379 46.8202 116.058 47.2486C115.083 48.7356 113.778 50.4271 113.727 52.184C113.735 52.4917 113.831 52.5962 113.971 52.6403C114.538 52.8038 115.218 52.2244 115.727 51.7526C117.439 50.1797 118.582 48.1798 119.875 46.3366C120.127 45.9392 120.514 45.6116 120.983 45.5594C121.31 45.5395 121.582 45.6278 121.794 45.8486C122.359 46.6443 121.887 47.8323 121.49 48.5957C119.75 51.8793 117.911 55.2004 116.078 58.5511C115.155 60.1645 114.647 61.0721 114.591 62.3279C114.538 62.4714 114.407 62.5436 114.211 62.4721C113.171 62.0872 112.758 61.4445 112.75 60.6717C112.742 59.9886 113.35 59.0199 113.579 58.568C114.478 56.7956 115.698 54.923 116.546 53.1513C116.426 53.2483 116.206 53.4714 116.014 53.6282C114.883 54.552 113.81 55.7356 112.29 55.5273C111.795 55.4397 111.355 54.9355 111.219 54.4327C110.974 53.5803 111.131 52.3606 111.387 51.4884L111.294 51.5804C109.999 52.9592 108.603 54.496 106.855 55.3558C106.319 55.6001 105.391 55.7754 104.851 55.2874C103.827 54.2318 104.075 52.3555 104.635 50.9805C105.083 49.8514 105.702 48.7952 106.375 47.8006C105.879 47.9523 105.435 48.0237 104.935 48.0275L104.767 48.2718C103.179 50.6485 101.678 53.3242 99.3348 54.9679C98.534 55.531 97.4741 55.5765 96.8101 55.1525C96.25 54.7913 96.0225 54.1361 95.8621 53.5311C94.6858 54.4232 92.6418 55.9874 91.2225 55.2924C90.3702 54.8361 90.0028 53.8719 90.0426 52.8958C90.075 51.487 90.6947 50.0318 91.2586 48.7686C91.0422 48.871 90.9259 48.9158 90.7022 49.0166C90.1589 49.2603 89.6025 49.4318 89.0497 49.6401C88.6433 50.7871 87.7821 52.399 87.3066 53.0431C86.6059 54.1199 85.211 55.4758 83.9471 55.5162C82.9468 55.5846 82.0672 55.1202 81.591 54.2877C80.4582 52.4519 80.986 49.9434 81.4379 47.7831C82.2512 44.5436 83.5461 41.5316 85.0748 38.7005C84.5817 38.7632 84.1945 38.7912 83.7021 38.8205C82.8225 38.8765 82.1497 38.959 81.198 38.7713C81.2671 43.948 79.9061 49.2845 76.5099 53.3683C75.5471 54.524 73.9984 55.74 72.3069 55.4751C71.2344 55.316 70.4468 54.2244 70.2952 53.2365C69.5385 54.5358 68.0937 56.0993 66.0061 54.9524C64.7696 54.2685 64.7504 53.6561 64.6628 52.2966C64.6628 52.2966 62.0504 56.2566 58.6182 55.3271C57.0702 54.8951 55.743 53.3552 56.563 50.9033C52.2982 54.1913 47.502 56.3311 43.2416 56.4046C37.3588 56.5084 32.1709 54.1081 29.6506 50.0964C26.1897 44.5877 28.3818 36.8604 32.8136 31.9671C37.2425 27.0714 42.27 25.0391 45.5337 23.9717C54.591 21.0113 62.3619 22.9317 65.5822 26.0718Z" fill="white"></path>
</g>
<defs>
<clipPath id="clip0_832_275">
<rect width="94.1079" height="40" fill="white" transform="translate(27.9463 22.5)"></rect>
</clipPath>
</defs>
</svg>