<svg width="150" height="85" viewBox="0 0 150 85" fill="none" xmlns="http://www.w3.org/2000/svg">
<g clip-path="url(#clip0_832_336)">
<path d="M54.7985 43.5403V31.5525H52.6178C52.337 31.5525 52.1294 31.3449 52.1294 31.0641V29.2204C52.1294 28.92 52.3077 28.7784 52.6178 28.732L54.818 28.395V27.8968C54.818 24.837 56.8107 23.0079 59.7265 23.0079C60.7423 23.0079 61.663 23.1764 62.4151 23.5159C62.7912 23.6844 62.8473 23.8162 62.8107 24.0433L62.4346 26.3755C62.3785 26.7149 62.0976 26.7515 61.8144 26.6197C61.3064 26.3755 60.9499 26.2241 60.442 26.2241C59.4456 26.2241 58.8058 26.9054 58.8058 27.9921V28.3974H61.9462C62.2295 28.3974 62.4346 28.605 62.4346 28.8858V31.0665C62.4346 31.3498 62.2271 31.5549 61.9462 31.5549H58.7887V43.5427C58.7887 43.826 58.5812 44.0311 58.3003 44.0311H55.2918C55.011 44.0311 54.8034 43.8236 54.8034 43.5427L54.7985 43.5403ZM66.1001 22.5C67.3797 22.5 68.4322 23.3645 68.4322 24.8321C68.4322 26.2998 67.3797 27.1642 66.1001 27.1642C64.8205 27.1642 63.768 26.2607 63.768 24.8321C63.768 23.4035 64.8229 22.5 66.1001 22.5ZM64.1074 28.8834C64.1074 28.6026 64.315 28.395 64.5958 28.395H67.6044C67.8876 28.395 68.0928 28.6026 68.0928 28.8834V43.5403C68.0928 43.8236 67.8852 44.0287 67.6044 44.0287H64.5958C64.315 44.0287 64.1074 43.8211 64.1074 43.5403V28.8834Z" fill="white"></path>
<path d="M79.0011 32.2876C78.3246 31.9873 77.7215 31.7235 76.9693 31.7235C75.4284 31.7235 74.6006 32.8884 74.6006 35.052V43.5428C74.6006 43.8261 74.393 44.0312 74.1122 44.0312H71.1036C70.8228 44.0312 70.6152 43.8237 70.6152 43.5428V28.8835C70.6152 28.6027 70.8228 28.3951 71.1036 28.3951H73.5847C73.8851 28.3951 74.0462 28.5831 74.1122 28.8835L74.4883 30.7272H74.6372C75.3136 29.0154 76.6299 28.0947 78.3613 28.0947C79.0768 28.0947 79.6775 28.2461 80.1659 28.4708C80.4296 28.6222 80.4858 28.8005 80.393 29.1863L79.6775 32.063C79.6018 32.3633 79.3405 32.439 79.0011 32.2876Z" fill="white"></path>
<path d="M87.05 28.0557C90.8864 28.0557 93.5384 31.3841 93.5384 36.0947V36.8835C93.5384 37.1839 93.3308 37.3719 93.05 37.3719H84.4248C84.6129 39.9287 85.4725 41.2278 87.0524 41.2278C88.2197 41.2278 89.1208 40.6833 89.4603 39.2352C89.536 38.9152 89.724 38.7931 90.0244 38.8591L92.8058 39.4794C93.1257 39.5502 93.2576 39.7626 93.1452 40.0801C92.1855 42.864 90.0048 44.3682 87.0524 44.3682C83.028 44.3682 80.2466 41.1155 80.2466 36.3194C80.2466 31.5233 83.0671 28.0557 87.0524 28.0557H87.05ZM89.4774 34.7419C89.2429 32.4244 88.4468 31.1985 87.0524 31.1985C85.6581 31.1985 84.7447 32.4586 84.4664 34.7419H89.4774Z" fill="white"></path>
<path d="M90.6934 51.6697C90.8814 52.0995 91.4211 52.0995 92.2636 51.931C94.5054 51.445 97.3479 51.4084 97.8338 52.0799C98.3002 52.771 97.2722 55.423 96.0585 57.3644C95.6092 58.1117 95.4236 58.5781 95.7972 58.9322C95.89 59.0445 96.0219 59.0812 96.1708 59.1007C96.6201 59.1007 97.1989 58.6514 97.741 58.1483C98.9181 57.1202 99.8338 55.8138 100.339 54.3388C100.845 52.92 101.087 50.9224 100.564 50.1556C100.058 49.4279 98.0976 48.942 96.5835 48.9615C94.9938 48.9615 93.4626 49.3547 92.078 50.0824C91.2184 50.5488 90.4346 51.0714 90.6958 51.6697H90.6934Z" fill="white"></path>
<path d="M49.2209 50.8833C49.3503 51.2764 49.6507 51.7599 50.1 52.3216C55.8387 59.3985 65.0719 62.4999 73.9877 62.4999C81.7825 62.4999 89.3137 60.1458 94.0976 56.0017C94.9205 55.274 95.3503 54.6952 95.3503 54.2459C95.3503 54.0603 95.2746 53.9089 95.1452 53.7599C94.7349 53.3301 94.1171 53.6476 93.3699 54.0408C88.9205 56.3753 82.0805 57.9822 74.8106 57.9822C66.6055 57.9822 57.8216 55.9455 51.1672 50.5878C50.5322 50.0823 49.8412 49.5792 49.3723 49.9529C49.2038 50.0847 49.0524 50.3656 49.2233 50.8857L49.2209 50.8833Z" fill="white"></path>
</g>
<defs>
<clipPath id="clip0_832_336">
<rect width="51.7094" height="40" fill="white" transform="translate(49.1453 22.5)"></rect>
</clipPath>
</defs>
</svg>