<svg width="150" height="85" viewBox="0 0 150 85" fill="none" xmlns="http://www.w3.org/2000/svg">
<g clip-path="url(#clip0_832_383)">
<path d="M114.6 50.8854H103.917V34.0269H114.439V36.2805H106.507V41.0659H113.737V43.3195H106.507V48.6317H114.6V50.8854Z" fill="white"></path>
<path d="M51.2634 50.8854V34.0269H53.839V41.0659H62.3854V34.0269H64.961V50.8854H62.3854V43.3195H53.839V50.8854H51.2634Z" fill="white"></path>
<path d="M81.6585 44.8269C81.6585 48.7049 79.1707 51.2366 75.1317 51.2366C71.0927 51.2366 68.6342 48.7049 68.6342 44.8269V34.0269H71.2098V44.9C71.2098 47.3439 72.6439 48.9098 75.1317 48.9098C77.6488 48.9098 79.0829 47.3439 79.0829 44.9V34.0269H81.6585V44.8269Z" fill="white"></path>
<path d="M84.2781 42.427C84.2781 37.4514 87.8488 33.6758 92.7512 33.6758C97.0976 33.6758 100.024 36.3246 101.063 39.8221H98.0634C97.4342 37.6563 95.5756 36.0026 92.6927 36.0026C89.3561 36.0026 86.9708 38.5197 86.9708 42.4855C86.9708 46.2172 89.2537 49.0416 93 49.0416C96.1171 49.0416 98.0927 47.1099 98.561 44.227H92.7366V42.149H101.283C101.371 47.549 98.0634 51.2368 92.8976 51.2368C88.0391 51.2368 84.2781 47.549 84.2781 42.427Z" fill="white"></path>
<path d="M117.878 50.8854V34.0269H120.454V48.5586H128.078V50.8854H117.878Z" fill="white"></path>
<path d="M43.2147 34.9487C43.3464 35.6804 43.4342 36.4268 43.4342 37.1878C43.4342 44.5926 36.7171 50.5926 28.4342 50.5926C27.1318 50.5926 25.8732 50.4463 24.6732 50.1682C26.8683 52.7878 30.1757 54.456 33.8635 54.456C40.4927 54.456 45.8635 49.0853 45.8635 42.456C45.8488 39.617 44.8537 37.0121 43.2147 34.9487Z" fill="white"></path>
<path d="M27.3365 42.4561C27.3365 39.4122 29.4439 36.8512 32.2683 36.1487C31.639 36.0317 30.9951 35.9585 30.3365 35.9585C25.639 35.9585 21.8341 39.178 21.8341 43.1585C21.8341 44.5634 22.317 45.8804 23.1365 46.9926C24.9073 47.7683 26.8975 48.2073 29.0048 48.2073C29.5463 48.2073 30.0878 48.178 30.6292 48.1195C28.6683 46.9926 27.3365 44.8707 27.3365 42.4561Z" fill="white"></path>
<path d="M30.3513 34.5536C35.8683 34.5536 40.3464 38.0951 40.3464 42.4561C40.3464 42.4707 40.3464 42.4853 40.3464 42.5C41.4147 40.8756 42.0147 39.0024 42.0147 37.0122C42.0147 35.578 41.6927 34.2024 41.122 32.9292C39.1025 31.378 36.5854 30.4561 33.8342 30.4561C29.1952 30.4561 25.1708 33.0902 23.1659 36.9536C24.9952 35.4756 27.5415 34.5536 30.3513 34.5536Z" fill="white"></path>
</g>
<defs>
<clipPath id="clip0_832_383">
<rect width="106.244" height="24" fill="white" transform="translate(21.8781 30.5)"></rect>
</clipPath>
</defs>
</svg>