<svg width="150" height="85" viewBox="0 0 150 85" fill="none" xmlns="http://www.w3.org/2000/svg">
<g clip-path="url(#clip0_832_301)">
<path d="M49.414 49.9597C49.1776 50.1463 49.1279 50.4573 49.2647 50.8928C49.3891 51.2784 49.6815 51.7573 50.1418 52.3296C51.9954 54.6188 54.2037 56.5222 56.7665 58.04C59.3293 59.5578 62.0725 60.6774 64.9961 61.3989C67.9321 62.133 70.9303 62.5 73.9907 62.5C77.9096 62.5 81.6418 61.9278 85.1874 60.7831C88.733 59.651 91.6939 58.0586 94.0702 56.0059C94.9036 55.2719 95.3204 54.6872 95.3204 54.2517C95.3204 54.09 95.252 53.9283 95.1152 53.7665C94.9285 53.58 94.7046 53.5178 94.4433 53.58C94.1821 53.6421 93.8151 53.7976 93.3423 54.0465C91.0657 55.2408 88.2914 56.1925 85.0195 56.9017C81.76 57.6232 78.3575 57.984 74.8119 57.984C70.4203 57.984 66.1779 57.3869 62.0849 56.1925C57.9919 54.9982 54.3654 53.1321 51.2055 50.5942C50.7452 50.2334 50.3719 50.0032 50.0858 49.9037C49.8121 49.8041 49.5882 49.8229 49.414 49.9597Z" fill="white"></path>
<path d="M90.8782 50.8938C90.617 51.1426 90.5486 51.4039 90.673 51.6776C90.7601 51.8767 90.9281 51.9886 91.1769 52.0135C91.4256 52.0508 91.7802 52.0259 92.2405 51.9389C92.987 51.7771 93.7645 51.6651 94.5732 51.6029C95.3818 51.5532 96.0848 51.5656 96.6819 51.6402C97.2791 51.7273 97.6523 51.8767 97.8016 52.0881C98.0256 52.4241 97.9446 53.1331 97.559 54.2155C97.1858 55.2978 96.6757 56.349 96.0288 57.3692C95.7799 57.7797 95.6307 58.1032 95.5809 58.3396C95.5312 58.576 95.5934 58.775 95.7675 58.9368C95.8794 59.0487 96.0039 59.1047 96.1407 59.1047C96.5016 59.1047 97.0241 58.7874 97.7083 58.153C98.94 57.0831 99.8045 55.8141 100.302 54.3462C100.576 53.5872 100.744 52.791 100.806 51.9575C100.868 51.124 100.775 50.5268 100.526 50.166C100.29 49.8176 99.7672 49.5315 98.9585 49.3077C98.1624 49.0837 97.3599 48.9717 96.5513 48.9717C94.9712 48.9717 93.4722 49.345 92.054 50.0914C91.5315 50.3776 91.1396 50.645 90.8782 50.8938Z" fill="white"></path>
<path d="M53.0024 43.8818C53.2667 43.8818 53.4136 43.6174 53.2961 43.3825L48.6849 34.395L52.8556 28.9027C53.0612 28.6384 52.9143 28.374 52.5912 28.374H49.008C48.773 28.374 48.5968 28.4915 48.4499 28.6677L44.2793 34.4538H44.1618V23.8509C44.1618 23.5572 43.9562 23.3223 43.6919 23.3223H40.6373C40.373 23.3223 40.1968 23.5572 40.1968 23.8509V43.3825C40.1968 43.6762 40.373 43.8818 40.6373 43.8818H43.6919C43.9562 43.8818 44.1618 43.6762 44.1618 43.3825V40.2985L45.9534 37.7433H46.1003L49.0667 43.5881C49.1548 43.7643 49.3604 43.8818 49.5367 43.8818H53.0024Z" fill="white"></path>
<path d="M56.3383 22.5C57.6012 22.5 58.6586 23.3224 58.6586 24.7909C58.6586 26.2007 57.6012 27.0525 56.3383 27.0525C55.1047 27.0525 54.0474 26.2007 54.0474 24.7909C54.0474 23.3224 55.1047 22.5 56.3383 22.5ZM54.3704 43.3826V28.8147C54.3704 28.5504 54.6054 28.3741 54.8991 28.3741H57.8656C58.1299 28.3741 58.3355 28.5504 58.3355 28.8147V43.3826C58.3355 43.6763 58.1299 43.8819 57.8656 43.8819H54.8991C54.6054 43.8819 54.3704 43.6763 54.3704 43.3826Z" fill="white"></path>
<path d="M68.5972 28.0215C71.4462 28.0215 73.2084 30.3711 73.2084 34.16V43.3824C73.2084 43.6761 73.0322 43.8817 72.7385 43.8817H69.7427C69.449 43.8817 69.2434 43.6761 69.2434 43.3824V34.4537C69.2434 32.6621 68.4797 31.6635 67.0993 31.6635C65.6014 31.6635 64.779 32.8383 64.779 34.9823V43.3824C64.779 43.6761 64.5734 43.8817 64.2797 43.8817H61.2839C60.9902 43.8817 60.814 43.6761 60.814 43.3824V28.8439C60.814 28.5502 61.0196 28.3739 61.2839 28.3739H63.7804C64.0447 28.3739 64.221 28.5502 64.2797 28.8439L64.6615 30.6942H64.8084C65.4839 28.9613 66.835 28.0215 68.5972 28.0215Z" fill="white"></path>
<path d="M75.0522 36.1279C75.0522 31.223 77.1963 28.0216 80.3683 28.0216C82.0425 28.0216 83.276 28.8146 84.1865 30.5181H84.3334V23.8509C84.3334 23.5572 84.5096 23.3223 84.8033 23.3223H87.7991C88.0928 23.3223 88.2691 23.5572 88.2691 23.8509V43.3825C88.2691 43.6762 88.0928 43.8818 87.7991 43.8818H85.332C85.0677 43.8818 84.8914 43.7055 84.8033 43.3825L84.4215 41.5908H84.304C83.6285 43.1475 82.0718 44.2048 80.3683 44.2048C77.1963 44.2048 75.0522 40.9741 75.0522 36.1279ZM81.7781 40.886C83.4523 40.886 84.3921 39.1237 84.3921 36.1279C84.3921 33.044 83.4523 31.2817 81.7781 31.2817C80.104 31.2817 79.1348 33.044 79.1348 36.1279C79.1348 39.1824 80.104 40.886 81.7781 40.886Z" fill="white"></path>
<path d="M91.1896 23.3223H94.2441C94.5085 23.3223 94.7141 23.5572 94.7141 23.8509V43.3825C94.7141 43.6762 94.5085 43.8818 94.2441 43.8818H91.1896C90.9253 43.8818 90.749 43.6762 90.749 43.3825V23.8509C90.749 23.5572 90.9253 23.3223 91.1896 23.3223Z" fill="white"></path>
<path d="M103.4 28.0215C107.189 28.0215 109.803 31.3404 109.803 36.0103V36.774C109.803 37.097 109.598 37.2733 109.333 37.2733H100.786C100.963 39.7991 101.814 41.0914 103.4 41.0914C104.546 41.0914 105.456 40.5628 105.779 39.1236C105.838 38.8005 106.014 38.683 106.308 38.7418L109.098 39.3586C109.392 39.4173 109.539 39.6229 109.421 39.946C108.481 42.7068 106.308 44.2047 103.4 44.2047C99.3765 44.2047 96.645 40.974 96.645 36.2159C96.645 31.4579 99.4352 28.0215 103.4 28.0215ZM105.779 34.6593C105.574 32.339 104.781 31.1348 103.4 31.1348C102.049 31.1348 101.109 32.3977 100.816 34.6593H105.779Z" fill="white"></path>
</g>
<defs>
<clipPath id="clip0_832_301">
<rect width="69.6063" height="40" fill="white" transform="translate(40.1968 22.5)"></rect>
</clipPath>
</defs>
</svg>