<svg width="150" height="85" viewBox="0 0 150 85" fill="none" xmlns="http://www.w3.org/2000/svg">
<path d="M90.8302 22.5C90.4322 22.5 88.8709 22.7454 88.8709 24.3971C88.8709 25.2408 89.2131 25.7698 89.5801 26.3452C89.8508 26.7699 90.2047 27.3395 90.2047 27.9347C90.2047 28.5846 89.8626 28.9929 89.8626 28.9929C90.281 28.9466 91.242 28.4073 92.0695 27.2213C92.55 26.5327 92.926 25.6493 92.926 24.8017C92.926 24.269 92.7705 23.7599 92.4882 23.3559C92.126 22.8373 91.5471 22.5 90.8302 22.5ZM95.3955 28.1584C94.408 28.4731 93.6422 28.8856 92.9329 29.4373C92.099 30.0859 90.9218 31.4115 90.8257 33.4274C90.7676 34.6451 91.109 35.713 91.4974 36.341C92.2632 37.5794 93.5906 38.2624 94.8898 38.7852C96.1387 39.2876 97.2721 39.6471 97.9637 40.2017C98.9042 40.9558 98.9289 42.1584 97.8487 42.8949C97.284 43.2798 96.4629 43.4872 95.8166 43.4872C94.8996 43.4872 94.2053 43.1074 93.7897 42.6168C93.0035 41.689 93.0621 40.3822 93.0621 40.3822C92.8808 40.374 92.5782 40.4005 92.2579 40.5096C91.2298 40.8598 90.4857 41.9578 90.4857 43.1512C90.4857 44.3032 91.1741 45.2965 92.1848 45.8408C93.9845 46.8099 96.8352 46.4217 98.6717 45.714C100.35 45.0671 101.612 43.9986 102.281 42.7732C103.298 40.9128 102.821 38.9913 102.259 38.0253C101.353 36.4679 99.6561 35.769 98.1035 35.1461C96.9978 34.7025 95.9754 34.3212 95.3955 33.7073C95.1013 33.3958 94.8998 32.9796 94.8998 32.4689C94.8998 31.0645 96.5369 30.5796 97.4399 30.5796C99.0225 30.5796 99.8544 31.7544 100.055 33.3441C100.869 33.3441 101.462 33.0109 101.886 32.4864C102.882 31.2541 102.446 29.6604 101.511 28.777C99.5703 26.9449 95.9799 27.9722 95.3955 28.1584ZM53.4317 29.1976L48.9044 30.0897C48.4727 30.1747 48.1833 30.3367 47.9791 30.6237C47.779 30.905 47.7045 31.2415 47.6971 31.6366L47.1235 62.5L62.817 59.4508C64.5683 59.1106 65.6781 58.3464 66.3308 57.5115C67.0254 56.6227 67.2358 55.679 67.2358 54.8291C67.2358 53.5918 66.8014 52.7059 66.8014 52.7059C66.5928 53.061 66.2232 53.5207 65.6983 53.9431C65.1683 54.3695 64.3526 54.8287 63.4042 55.0139L52.874 57.0701L53.4317 29.1976ZM88.4123 29.6948L84.597 30.4338C84.2681 30.4975 84.0597 30.6055 83.8954 30.7698C83.7275 30.9377 83.6084 31.1639 83.6022 31.5484L83.441 41.5046C83.4299 42.1907 83.3119 43.3584 82.666 44.3793C82.4213 44.7661 82.0596 45.1425 81.642 45.3707C81.2936 45.5611 80.9287 45.6591 80.4924 45.6708C79.9913 45.6842 79.5872 45.4476 79.3551 45.0851C79.0575 44.6203 78.8953 43.8986 78.9159 42.9082L79.1535 31.4989L75.3378 32.238C74.7675 32.3484 74.3848 32.6417 74.3739 33.2381C74.312 36.6119 74.1869 40.0823 74.1628 43.3547C74.161 43.5989 74.1628 43.8656 74.184 44.1052C74.1223 44.6847 73.9099 45.546 73.5231 46.2009C73.1439 46.8432 72.4921 47.4444 71.562 47.4629C70.5365 47.4832 70.2428 46.4603 70.2581 45.5211L70.4622 32.9927C69.8193 33.2823 69.1938 33.6024 68.461 33.8543C67.378 34.2265 66.3885 34.2099 65.3321 34.238C64.159 34.2693 63.1086 34.3418 61.7223 34.9218C61.0889 35.1868 60.4924 35.5312 59.9342 35.9612C58.3755 37.162 57.2773 38.8231 56.6221 40.9522C56.2734 42.0854 56.0678 43.5686 56.0678 44.8795C56.0678 46.1855 56.2118 47.7482 56.6873 49.1695C57.4193 51.3572 58.8964 53.0135 61.2677 52.9957C62.7895 52.9842 64.079 52.3995 64.9113 51.6997C66.128 50.6765 66.6025 49.315 66.6025 49.315C67.1083 50.0066 67.7072 50.5645 68.6502 50.8918C69.099 51.0475 69.6075 51.1217 70.1422 51.1061C71.7669 51.059 73.088 50.3141 73.8854 49.3654C74.3929 48.7617 74.7952 48.0272 75.0079 47.3681C75.0079 47.3681 75.9198 49.5767 78.7272 49.5767C80.5881 49.5767 81.8503 48.8916 82.6742 47.9936C82.923 47.7224 83.1359 47.445 83.3176 47.148L83.2904 49.8315C83.2694 51.9055 82.9805 53.704 82.1154 54.8977C81.8056 55.3252 81.4377 55.6652 80.957 55.9196C79.811 56.526 78.2733 56.6095 77.3883 55.7245C76.9446 55.2808 76.6852 54.7459 76.6695 53.8821C76.6511 52.8689 77.3053 51.8859 77.3053 51.8859C76.7498 51.8149 76.0884 51.8654 75.4761 52.0973C74.3062 52.5404 73.2279 53.7103 73.2279 55.4299C73.2279 56.5963 73.7041 57.9042 74.6915 58.7459C75.6939 59.6005 77.0709 60.0391 78.8127 59.9701C79.8078 59.9307 81.2318 59.7475 82.6507 59.1366C83.9101 58.5943 85.1049 57.7518 86.0437 56.396C86.7491 55.3772 87.1975 54.2756 87.4991 53.089C87.8785 51.5965 87.9741 49.9355 88.0021 48.6439L88.4123 29.6948ZM65.6675 37.5999L65.554 45.5075C65.5431 46.2661 65.2291 47.4186 64.5517 48.1811C64.1366 48.6483 63.5462 48.9989 62.9054 48.9989C62.2038 48.9989 61.6468 48.5488 61.2677 47.8055C61.0608 47.3999 60.9046 46.9057 60.8021 46.3458C60.7072 45.8273 60.6584 45.2524 60.6584 44.6395C60.6584 41.6779 61.3986 39.7649 62.3593 38.7577C62.9043 38.1863 63.472 37.8993 64.0158 37.7542C64.6306 37.5901 65.2141 37.6075 65.6675 37.5999Z" fill="white"></path>
</svg>