<svg width="150" height="85" viewBox="0 0 150 85" fill="none" xmlns="http://www.w3.org/2000/svg">
<g clip-path="url(#clip0_832_358)">
<path d="M94.3541 42.7709C94.3636 42.9282 94.3701 43.0854 94.3732 43.2424C94.3756 43.3346 94.377 43.4282 94.378 43.5213V42.3697C94.3146 31.592 85.1678 22.877 73.8874 22.877H53.4539V25.2752H73.8857C84.8516 25.2752 93.8048 33.0227 94.3541 42.7708V42.7709Z" fill="white"></path>
<path d="M53.4536 41.4229V42.3696C53.4536 53.2293 62.6543 62.0324 74.0045 62.0324H94.3776V59.9217H74.0045C62.6543 59.9217 53.4536 51.6396 53.4536 41.423V41.4229Z" fill="white"></path>
<path d="M73.8855 25.2754C84.8514 25.2754 93.805 33.0234 94.3542 42.7715C94.3638 42.9283 94.3697 43.0852 94.3728 43.2422C94.3752 43.3344 94.3766 43.4284 94.3777 43.5215V59.9219H74.0046C62.6546 59.9218 53.4541 51.6404 53.4539 41.4238V25.2754H73.8855ZM74.2898 35.8818C73.1554 35.8819 72.0657 36.1029 71.0212 36.543C69.976 36.9834 69.051 37.5835 68.2449 38.3447C67.4388 39.1059 66.7931 39.9943 66.3083 41.0088C65.8232 42.0242 65.5808 43.1067 65.5808 44.2559C65.5509 45.1064 65.6662 45.9235 65.9275 46.707C66.1884 47.4905 66.558 48.215 67.0359 48.8789C67.5132 49.5433 68.0802 50.1369 68.7371 50.6592C69.3935 51.1817 70.1101 51.6065 70.8865 51.9346C71.6623 52.2632 72.476 52.4839 73.3269 52.5957C74.1776 52.7077 75.0291 52.6807 75.8796 52.5166V52.5176L78.8347 56.167L82.6638 53.502L80.2683 50.4346C80.7308 50.0765 81.1338 49.6625 81.4773 49.1924C81.8206 48.7223 82.1117 48.2181 82.3503 47.6807C82.5889 47.1438 82.764 46.5879 82.8757 46.0137C82.9879 45.4394 83.0447 44.8603 83.0447 44.2783C83.0447 43.129 82.801 42.043 82.3162 41.0205C81.8309 39.9984 81.1747 39.1058 80.3464 38.3447C79.5181 37.5836 78.5775 36.9834 77.5251 36.543C76.4728 36.1029 75.4243 35.8818 74.2898 35.8818ZM59.6472 52.5615H64.4158L64.573 36.0166H59.8035L59.6472 52.5615ZM74.156 40.7627C74.6484 40.7628 75.1184 40.8639 75.5662 41.0654C76.0136 41.267 76.4092 41.5387 76.7527 41.8818C77.0962 42.2256 77.3683 42.6175 77.5701 43.0576C77.7715 43.498 77.8718 43.9567 77.8718 44.4346C77.8718 44.9125 77.767 45.3681 77.5583 45.8008C77.3492 46.2337 77.0775 46.6144 76.7419 46.9424C76.4059 47.271 76.017 47.5283 75.5769 47.7148C75.1914 47.8782 74.7976 47.9699 74.3953 47.9902L74.2224 47.9941C73.7597 47.9796 73.3046 47.8823 72.8572 47.7031C72.4093 47.5241 72.0065 47.2774 71.6482 46.9639C71.2898 46.6505 70.9948 46.2852 70.7634 45.8672C70.5321 45.4497 70.4168 45.0169 70.4167 44.5244C70.4167 44.0318 70.5171 43.558 70.7185 43.1025C70.9203 42.6474 71.1923 42.248 71.5359 41.9043C71.8789 41.5611 72.2788 41.2854 72.7341 41.0762C73.1892 40.8674 73.6635 40.7627 74.156 40.7627ZM81.3572 34.3877C81.2735 34.6179 81.1708 34.7777 81.0505 34.8672C80.9303 34.9565 80.7732 35.001 80.5789 35.001C80.2871 35.001 80.0225 34.9632 79.7849 34.8877L79.9148 36.0391C80.4119 36.104 80.7796 36.1367 81.0173 36.1367C81.6035 36.1367 82.0404 36.0067 82.3269 35.7471C82.5294 35.5631 82.728 35.2082 82.9226 34.6836L84.6306 30.082H83.0046L82.1794 32.9492L81.2908 30.082H79.5496L81.3572 34.3877ZM65.3679 32.8232C65.3679 33.3883 65.4973 33.8075 65.7556 34.0791C66.0139 34.3508 66.37 34.4863 66.824 34.4863C67.1644 34.4863 67.4514 34.4253 67.6853 34.3037C67.9191 34.182 68.1519 33.9779 68.3816 33.6914V34.3887H69.9216V30.082H68.2712V32.1543C68.2712 32.5464 68.2083 32.8182 68.0828 32.9697C67.9569 33.1211 67.7956 33.1973 67.5984 33.1973C67.4174 33.1973 67.2765 33.1399 67.1765 33.0264C67.0765 32.9128 67.0261 32.7204 67.0261 32.4502V30.082H65.3679V32.8232ZM76.8406 29.291V30.082H76.2322V31.291H76.8406V32.8057C76.8406 33.2862 76.8868 33.6341 76.9802 33.8486C77.0733 34.0634 77.2182 34.2229 77.4128 34.3281C77.6075 34.4332 77.9102 34.4863 78.321 34.4863C78.6753 34.4863 79.0565 34.4418 79.4646 34.3525L79.3425 33.2129C79.1237 33.283 78.9534 33.3184 78.8318 33.3184C78.6966 33.3183 78.6017 33.2725 78.5476 33.1807C78.5127 33.1213 78.4949 32.9996 78.4949 32.8164V31.291H79.4041V30.082H78.4949V28.4443L76.8406 29.291ZM59.8621 34.3896H61.7078V32.1826H62.7126C63.4535 32.1826 64.0049 32.0138 64.366 31.6758C64.7265 31.3378 64.907 30.8524 64.907 30.2686C64.907 29.6847 64.7411 29.2343 64.4099 28.918C64.0788 28.6018 63.5807 28.4443 62.9158 28.4443H59.8621V34.3896ZM73.158 29.9844C72.9255 29.9844 72.7293 30.0423 72.571 30.1572C72.4132 30.2722 72.2597 30.4827 72.1111 30.7881V30.082H70.5662V34.3887H72.2244V32.9453C72.2244 32.2562 72.31 31.7858 72.4802 31.5342C72.5991 31.3558 72.7668 31.2666 72.9832 31.2666C73.0966 31.2666 73.2506 31.3067 73.4451 31.3877L73.9568 30.2119C73.6677 30.0605 73.3903 29.9845 73.158 29.9844ZM74.1316 34.3887H75.782V30.082H74.1316V34.3887ZM84.615 32.8604H87.0154V31.583H84.615V32.8604ZM62.2302 29.6523C62.5735 29.6523 62.8081 29.7169 62.9324 29.8467C63.0566 29.9763 63.1188 30.1294 63.1189 30.3213C63.1189 30.5133 63.0473 30.6711 62.9041 30.7939C62.7608 30.917 62.512 30.9785 62.158 30.9785H61.7078V29.6523H62.2302ZM74.1316 29.5674H75.782V28.4443H74.1316V29.5674Z" fill="white"></path>
<path d="M96.7841 59.9531V60.3213H96.162V62.0323H95.7247V60.3213H95.0999V59.9531H96.7841Z" fill="white"></path>
<path d="M98.417 59.9531H99.0422V62.0323H98.6373V60.6258C98.6373 60.5856 98.6378 60.5289 98.6387 60.4558C98.6396 60.3832 98.6401 60.3267 98.6401 60.2873L98.2459 62.0323H97.8239L97.4327 60.2873C97.4327 60.3268 97.4332 60.3832 97.434 60.4558C97.4349 60.5288 97.4354 60.5856 97.4354 60.6258V62.0323H97.0305V59.9531H97.6628L98.0412 61.588L98.4168 59.9531H98.417Z" fill="white"></path>
</g>
<defs>
<clipPath id="clip0_832_358">
<rect width="52" height="52" fill="white" transform="translate(49 16.5)"></rect>
</clipPath>
</defs>
</svg>