<svg width="150" height="85" viewBox="0 0 150 85" fill="none" xmlns="http://www.w3.org/2000/svg">
<path d="M48.581 31.6137C46.9787 30.9321 44.7655 30.4456 42.9794 30.4456C41.2315 30.4456 38.973 31.1993 38.973 33.9245C38.973 38.2646 50.1196 36.4361 50.1196 44.8292C50.1196 50.3162 45.7116 52.3965 40.5753 52.3965C37.8063 52.3965 36.5689 52.0373 34.0545 51.4292L34.0489 46.9095C35.7982 47.8414 38.2801 48.4523 40.284 48.4523C42.2157 48.4523 44.8009 47.4836 44.8009 45.2238C44.8009 40.4537 33.6543 42.4251 33.6543 34.1408C33.6543 28.5449 38.0623 26.5 42.5424 26.5C44.7287 26.5 46.768 26.7871 48.6262 27.3966L48.581 31.6137Z" fill="white"></path>
<path d="M77.7902 37.866C76.3406 37.3781 75.0269 37.0995 73.2931 37.0995C72.0203 37.0995 70.4986 37.5521 70.4986 39.085C70.4986 41.9403 78.7405 40.1301 78.7405 46.6071C78.7405 50.786 74.9561 52.4575 71.0997 52.4575C69.2966 52.4575 67.4567 52.1436 65.7244 51.691L66.0072 47.86C67.4921 48.5926 69.0491 49.0451 70.6754 49.0451C71.8789 49.0451 73.788 48.5926 73.788 46.8503C73.788 43.3332 65.5476 45.7359 65.5476 39.259C65.5476 35.394 68.977 33.6871 72.692 33.6871C74.9208 33.6871 76.3703 34.035 77.8566 34.3489L77.7902 37.866Z" fill="white"></path>
<path d="M92.7979 37.9707C91.9494 37.5874 91.0302 37.3088 89.5806 37.3088C86.6434 37.3088 84.7696 39.6069 84.7696 42.9853C84.7696 46.2931 86.3605 48.8358 89.6853 48.8358C91.0302 48.8358 92.5151 48.3479 93.3282 48L93.5403 51.865C92.1615 52.2822 90.7459 52.4575 88.8014 52.4575C82.8237 52.4575 79.8171 48.4526 79.8171 42.9853C79.8171 37.7967 82.9297 33.6871 88.6246 33.6871C90.5338 33.6871 91.914 33.8964 93.2236 34.2797L92.7979 37.9707Z" fill="white"></path>
<path d="M103.591 48.8358C107.234 48.8358 108.189 45.6327 108.189 42.6375C108.189 39.8869 106.704 37.3102 103.591 37.3102C100.514 37.3102 99.0289 39.9562 99.0289 42.6375C99.0289 45.5973 99.9834 48.8358 103.591 48.8358ZM103.591 33.6885C109.002 33.6885 113.14 37.2749 113.14 43.1946C113.14 48.3479 109.639 52.4575 103.591 52.4575C97.5793 52.4575 94.0764 48.3479 94.0764 43.1946C94.0764 37.2749 98.2157 33.6885 103.591 33.6885Z" fill="white"></path>
<path d="M66.0799 33.8622H61.2688L52.2195 58.5H56.5667L66.0799 33.8622Z" fill="white"></path>
<path d="M46.4164 33.4186C48.4259 35.4536 50.4284 37.9327 51.8794 40.8403C53.1776 43.4438 53.8338 45.9794 54.3033 48.5348C54.3231 48.6239 54.3825 48.6168 54.4164 48.5475C56.1445 45.5283 57.2023 41.4187 55.6552 38.3216C54.0346 35.0718 50.1399 33.577 46.4814 33.2758C46.3542 33.2702 46.3315 33.3366 46.4164 33.4186Z" fill="white"></path>
<path d="M113.052 34.0794H112.403V33.8446H113.984V34.0794H113.331V35.9814H113.052V34.0794Z" fill="white"></path>
<path d="M116.022 35.0429C116.006 34.7487 115.988 34.3839 115.988 34.1208H115.981C115.904 34.3683 115.819 34.6398 115.71 34.9326L115.333 35.9692H115.125L114.776 34.9509C114.674 34.6497 114.592 34.374 114.532 34.1208H114.525C114.52 34.3867 114.503 34.7445 114.484 35.0655L114.428 35.9805H114.165L114.313 33.8451H114.665L115.029 34.8774C115.118 35.1404 115.189 35.3794 115.245 35.6001H115.251C115.309 35.3851 115.384 35.1475 115.48 34.8774L115.86 33.8451H116.213L116.345 35.9805H116.073L116.022 35.0429Z" fill="white"></path>
</svg>