<svg width="150" height="85" viewBox="0 0 150 85" fill="none" xmlns="http://www.w3.org/2000/svg">
<path d="M49.7039 31.6129H43.0179V51.957H37.2257V31.6307H30.5754V26.5H49.7039V31.6129ZM115.563 42.5C115.563 49.2218 112.828 52.243 106.982 52.243C101.136 52.243 98.4011 49.2218 98.4011 42.5C98.4011 35.7782 101.136 32.757 106.982 32.757C112.828 32.757 115.563 35.7782 115.563 42.5ZM110.057 42.5C110.057 38.9782 109.002 37.2441 107 37.2441C104.998 37.2441 103.943 38.9782 103.943 42.5C103.943 46.0218 104.998 47.7559 107 47.7559C109.002 47.7559 110.057 46.0218 110.057 42.5ZM72.4972 32.7749C70.4414 32.7749 68.8682 33.6151 67.724 34.3659V33.1324H62.1464V51.9391H67.7419V38.9425C67.9386 38.2631 68.7967 37.2799 70.5307 37.2799C72.2827 37.2799 73.2838 37.852 73.2838 39.9615V51.9391H78.8615V40.5872C78.8615 34.0978 76.1263 32.7927 72.4972 32.7927M97.9363 53.2084C97.9363 57.7849 93.2704 58.4821 88.6581 58.5C84.0458 58.5 80.2738 57.6955 80.2738 51.9749H85.8514C85.8514 54.1737 86.0659 54.8352 89.0157 54.8173C91.9654 54.8173 92.2157 54.2274 92.2157 53.1726C92.2157 52.1179 91.4112 51.5994 87.1028 50.652C82.6335 49.6866 81.0067 48.5603 81.0067 46.2542C81.0067 45.0385 81.5967 44.0553 82.2045 43.376C81.0604 42.3034 80.4525 40.8732 80.4525 39.1391C80.4525 35.1704 83.6347 32.7749 89.0335 32.757C94.4324 32.757 97.6145 35.1525 97.6145 39.1212C97.6145 43.0899 94.4324 45.4855 89.0335 45.5034C88.0503 45.5034 87.1386 45.414 86.3162 45.2709C86.0302 45.2173 85.762 45.4497 85.762 45.7358C85.762 46.7547 87.2637 46.9872 90.4816 47.7737C93.7173 48.5603 97.9542 48.9894 97.9542 53.2084M86.0123 39.1391C86.0123 40.7123 87.0134 41.767 89.0335 41.767C91.0358 41.767 92.0548 40.7123 92.0548 39.1391C92.0548 37.5659 91.0537 36.5112 89.0335 36.5112C87.0313 36.5112 86.0123 37.5659 86.0123 39.1391ZM60.305 40.3905V51.9391H54.7274V50.938C53.7799 51.5279 52.2425 52.2788 50.3833 52.2788C47.3084 52.2788 44.5911 50.7056 44.5911 46.3257C44.5911 41.9279 48.381 40.5693 52.0637 40.5693C53.2793 40.5693 54.7274 40.6408 54.7274 40.6408V38.6028C54.7274 37.4229 54.1374 36.5827 52.1352 36.5827C50.3654 36.5827 49.6682 37.2084 49.6682 38.3346H45.4134V37.0832C45.4134 35.5816 46.3073 34.2229 47.6838 33.6508C48.7922 33.186 50.276 32.7927 52.0637 32.7927C58.1062 32.7927 60.2872 35.5816 60.2872 40.3905M54.7274 46.7548V43.8229C54.2447 43.805 53.4224 43.7693 52.4391 43.7693C50.8481 43.7693 49.8112 44.5022 49.8112 45.986C49.8112 47.2911 50.8659 47.9525 51.9207 47.9525C52.6715 47.9525 53.4581 47.7916 54.0659 47.6128C54.4592 47.5056 54.7095 47.148 54.7095 46.7548M117.851 50.1514V50.4017H117.494V51.6352H117.19V50.4017H116.85V50.1514H117.851ZM118.048 51.6352V50.1514H118.477L118.745 51.1346L119.013 50.1693H119.425V51.6531H119.174V50.4911L118.853 51.6531H118.62L118.298 50.4911V51.6531H118.03L118.048 51.6352Z" fill="white"></path>
</svg>