<svg width="295" height="125" viewBox="0 0 295 125" fill="none" xmlns="http://www.w3.org/2000/svg">
<g clip-path="url(#clip0_23_35)">
<path fill-rule="evenodd" clip-rule="evenodd" d="M120.725 62.4269C111.936 67.4001 104.591 77.7859 100.45 86.2232C98.3134 89.4132 99.3003 95.9001 105.389 91.8357C109.875 88.8362 118.714 76.0997 124.463 66.625C125.09 65.5876 125.799 63.4 125.551 62.3605C124.64 60.5364 121.861 61.8845 120.725 62.4269ZM156.487 68.7619C150.315 70.4892 145.839 75.8374 143.463 81.3742C142.216 84.2726 140.714 89.0636 142.476 91.4376C143.202 92.3349 144.465 91.8125 145.188 91.2859C147.649 89.586 149.436 86.9477 150.94 84.5874C153.701 79.6626 156.125 74.4019 156.813 68.6881L156.487 68.7619ZM180.662 70.4134C177.453 72.0721 175.624 77.4383 175.001 80.4105C174.226 84.1483 173.513 89.2384 175.213 91.4745C175.603 91.8515 176.114 92.1253 176.738 92.1096C179.289 92.1643 181.062 88.2263 182.063 85.963C183.737 82.1998 185.239 76.2493 184.703 72.4492C184.499 70.4892 182.626 69.6223 180.662 70.4134ZM117.613 11.1617C123.814 17.5106 125.689 27.0264 122.712 35.1971C115.627 53.3229 97.2392 66.2363 77.9244 71.4234C68.7857 73.4887 55.5636 74.5009 47.1769 70.2133C39.678 66.0731 36.0876 57.3367 37.5485 49.0743C39.8877 36.4346 49.6109 27.2475 61.1004 21.1863C70.6762 16.5764 81.9887 14.511 93.4371 15.7991C94.702 15.9992 95.8637 16.6112 96.186 18.0741C96.3145 19.1251 96.1513 19.8361 95.6615 20.5101C94.8516 21.4991 93.9153 21.736 92.8736 21.676C79.9739 21.5981 66.7151 24.7998 57.2635 33.1729C51.7268 38.4263 47.2623 46.7371 51.5383 55.5631C54.2755 61.123 64.0862 62.8249 69.8504 62.2984C103.376 59.1977 113.727 38.7233 115.689 31.6984C119.724 17.2599 105.578 4.97418 78.4004 8.75104C43.2369 13.6368 21.3638 37.511 16.8898 61.974C12.1902 87.6745 36.9482 98.5752 62.7402 93.1511C73.2523 90.9479 84.3279 85.9472 95.1391 75.6625C104.05 66.31 116.249 52.6972 130.064 54.7996C131.766 55.1861 133.836 56.0486 134.324 57.9349C135.14 61.2725 133.424 64.251 132.338 67.2137C121.352 85.9513 122.477 93.5513 124.439 94.5224C128.474 95.8011 131.076 90.0484 133.049 86.8255C135.674 74.701 145.238 63.2094 157.577 59.7222C157.952 58.2635 157.991 56.787 157.952 55.2755C157.761 48.7845 154.713 44.2874 152.774 38.9855C152.316 37.589 152.79 35.8733 153.878 34.8264C154.74 33.9343 156.603 32.9496 158.113 33.3593C159.587 33.6099 160.599 34.7969 161.386 35.8365C164.19 40.1494 167.29 42.6381 173.161 42.6359C177.54 42.7855 181.989 42.4885 185.501 40.1768C187.712 37.649 190.238 34.9138 193.539 34.0217C195.139 33.7016 196.416 34.0355 197.513 35.0129C198.539 36.0481 198.801 37.61 198.24 39.0013C197.228 41.6007 193.612 44.1104 191.052 46.8268C186.852 51.2986 183.776 56.7479 181.628 62.549C182.948 62.1394 184.791 61.7001 186.488 62.0266C191.374 62.9493 192.924 67.6371 193.203 72.0996C193.29 73.5003 193.249 75.0001 193.039 76.4472C195.841 76.0101 197.624 74.9632 199.724 73.8869C203.312 71.8741 206.291 68.9115 209.166 66.0984C210.44 64.9251 212.366 64.5017 213.813 65.0378C214.951 65.3758 215.89 66.3859 216.09 67.6349C216.599 71.0137 213.578 72.0721 209.251 78.6368C206.836 82.3104 204.09 86.1242 203.627 90.6235C203.565 91.4355 203.765 92.2011 204.299 92.7973C205.29 93.623 206.926 93.188 207.991 92.574C210.213 91.3386 211.991 89.3491 213.3 87.3016C215.212 80.3346 217.953 73.7142 223.536 68.8725C224.951 67.8097 226.664 66.8019 228.516 67.2116C229.512 67.3865 230.324 68.0995 230.526 68.8977C231.637 72.2238 229.349 76.562 227.762 79.3498C225.728 82.9381 222.439 86.3864 219.628 89.5492C219.552 91.2101 219.927 92.277 221.215 92.6014C223.177 92.8595 224.727 91.3986 226.25 90.1748C230.503 86.2116 234.524 81.5721 237.04 76.2608C236.626 71.4761 238.264 65.9741 242.538 63.4506C243.989 62.7239 245.676 62.7975 246.837 63.5885C248.024 64.4974 248.065 66.2269 247.838 67.6993C247.502 69.4244 246.529 70.7862 245.666 72.2859C248.038 72.4376 250.124 71.3222 252.316 70.7746C253.453 70.5376 254.129 70.8642 254.762 71.3613C255.902 72.4355 256.013 73.8363 255.44 75.2255C254.237 77.7763 252.613 79.1498 250.89 81.549C248.516 84.8613 246.35 89.3143 246.274 92.6477C246.288 93.4345 246.616 93.9748 247.152 94.2002C248.427 94.651 249.528 93.701 250.587 93.0596C257.938 87.4997 263.564 79.5636 269.663 72.9642C271.261 71.4739 273.09 69.9395 275.339 70.6503C276.124 70.9242 276.74 71.5519 276.95 72.3986C277.29 73.9996 276.354 76.0007 275.349 77.3393C272.303 81.9861 268.225 87.2721 268.066 92.7625C268.091 93.7241 268.39 94.0506 268.827 94.1886C270.601 94.6993 272.724 92.8889 274.316 91.4144C279.664 86.4991 283.238 80.2493 287.277 74.4893C288.066 73.2474 289.274 72.2238 290.739 72.0606C291.763 71.9984 292.612 72.2744 293.274 72.9642C295.041 75.4509 293.564 79.1634 292.324 81.549C286.887 91.8104 281.14 102.189 275.413 112.66C272.526 117.702 270.939 120.538 270.764 124.462C270.599 124.911 270.189 125.136 269.577 124.913C266.327 123.71 265.037 121.702 265.012 119.287C264.988 117.152 266.888 114.125 267.603 112.712C270.412 107.174 274.224 101.322 276.876 95.7852C276.499 96.0886 275.813 96.7858 275.213 97.2756C271.677 100.162 268.324 103.861 263.576 103.21C262.028 102.937 260.652 101.361 260.227 99.7895C259.463 97.126 259.953 93.3144 260.753 90.5886L260.462 90.8762C256.415 95.1849 252.052 99.9876 246.591 102.674C244.914 103.438 242.014 103.986 240.327 102.46C237.128 99.1618 237.903 93.2986 239.653 89.0014C241.052 85.4733 242.987 82.1725 245.091 79.0644C243.539 79.5384 242.152 79.7617 240.59 79.7733L240.065 80.5368C235.104 87.964 230.411 96.3255 223.09 101.462C220.587 103.222 217.275 103.364 215.2 102.039C213.449 100.91 212.739 98.8628 212.237 96.9722C208.562 99.7601 202.174 104.648 197.739 102.476C195.075 101.05 193.927 98.0371 194.051 94.987C194.153 90.5845 196.089 86.0368 197.851 82.0893C197.175 82.4095 196.812 82.5495 196.113 82.8644C194.415 83.6259 192.676 84.162 190.949 84.8129C189.679 88.397 186.987 93.4345 185.501 95.4472C183.312 98.8122 178.953 103.049 175.003 103.176C171.877 103.389 169.128 101.938 167.64 99.3367C164.1 93.5998 165.749 85.7608 167.162 79.0097C169.703 68.8862 173.75 59.4737 178.527 50.6267C176.986 50.8225 175.776 50.91 174.237 51.0017C171.489 51.1765 169.386 51.4345 166.412 50.8478C166.628 67.0251 162.375 83.7017 151.762 96.4635C148.753 100.075 143.913 103.875 138.627 103.047C135.276 102.55 132.815 99.1387 132.341 96.0517C129.976 100.112 125.461 104.998 118.937 101.414C115.073 99.2766 115.013 97.363 114.739 93.1143C114.739 93.1143 106.576 105.489 95.85 102.585C91.0126 101.235 86.8651 96.4224 89.4276 88.7603C76.1001 99.0354 61.1119 105.722 47.7983 105.952C29.4146 106.276 13.2025 98.7753 5.32655 86.2389C-5.48885 69.0242 1.36125 44.8761 15.2109 29.5845C29.0512 14.2856 44.7619 7.93476 54.9612 4.59918C83.2652 -4.65217 107.549 1.34902 117.613 11.1617Z" fill="white"></path>
</g>
<defs>
<clipPath id="clip0_23_35">
<rect width="294.087" height="125" fill="white"></rect>
</clipPath>
</defs>
</svg>